<mxfile host="app.diagrams.net" modified="2022-02-06T15:28:49.984Z" agent="5.0 (Macintosh; Intel Mac OS X 10_15_7) AppleWebKit/537.36 (KHTML, like Gecko) Chrome/98.0.4758.80 Safari/537.36" etag="6aB2HcrQgcOCGuNowhWi" version="16.5.2" type="github">
  <diagram id="a5yGORljdPkWL05U4U_r" name="Page-1">
    <mxGraphModel dx="1666" dy="679" grid="1" gridSize="10" guides="1" tooltips="1" connect="1" arrows="1" fold="1" page="1" pageScale="1" pageWidth="827" pageHeight="1169" math="0" shadow="0">
      <root>
        <mxCell id="0" />
        <mxCell id="1" parent="0" />
        <mxCell id="UGVQ1dfHeVU3jZcF55VB-116" value="" style="verticalLabelPosition=bottom;verticalAlign=top;html=1;shadow=0;dashed=0;strokeWidth=1;shape=mxgraph.ios.iBgFlat;strokeColor=#18211b;fillColor=#FFF2CC;" vertex="1" parent="1">
          <mxGeometry x="10" y="30" width="780" height="750" as="geometry" />
        </mxCell>
        <mxCell id="UGVQ1dfHeVU3jZcF55VB-97" value="" style="verticalLabelPosition=bottom;verticalAlign=top;html=1;shadow=0;dashed=0;strokeWidth=1;shape=mxgraph.ios.iBgFlat;strokeColor=#18211b;fillColor=#D4E1F5;" vertex="1" parent="1">
          <mxGeometry x="225.73" y="270" width="234.27" height="60" as="geometry" />
        </mxCell>
        <mxCell id="UGVQ1dfHeVU3jZcF55VB-23" value="" style="verticalLabelPosition=bottom;verticalAlign=top;html=1;shadow=0;dashed=0;strokeWidth=1;shape=mxgraph.ios.iBgFlat;strokeColor=#18211b;fillColor=#D4E1F5;" vertex="1" parent="1">
          <mxGeometry x="34.36" y="270" width="88.48" height="50" as="geometry" />
        </mxCell>
        <mxCell id="UGVQ1dfHeVU3jZcF55VB-22" value="" style="verticalLabelPosition=bottom;verticalAlign=top;html=1;shadow=0;dashed=0;strokeWidth=1;shape=mxgraph.ios.iBgFlat;strokeColor=#18211b;fillColor=#E6FFCC;" vertex="1" parent="1">
          <mxGeometry x="20" y="365" width="760" height="110" as="geometry" />
        </mxCell>
        <mxCell id="UGVQ1dfHeVU3jZcF55VB-21" value="" style="verticalLabelPosition=bottom;verticalAlign=top;html=1;shadow=0;dashed=0;strokeWidth=1;shape=mxgraph.ios.iBgFlat;strokeColor=#18211b;fillColor=#FFE6CC;" vertex="1" parent="1">
          <mxGeometry x="20" y="515" width="760" height="110" as="geometry" />
        </mxCell>
        <mxCell id="UGVQ1dfHeVU3jZcF55VB-13" value="" style="verticalLabelPosition=bottom;verticalAlign=top;html=1;shadow=0;dashed=0;strokeWidth=1;shape=mxgraph.ios.iBgFlat;strokeColor=#18211b;fillColor=#dddddd;" vertex="1" parent="1">
          <mxGeometry x="20" y="660" width="760" height="110" as="geometry" />
        </mxCell>
        <mxCell id="UGVQ1dfHeVU3jZcF55VB-110" style="edgeStyle=orthogonalEdgeStyle;rounded=0;orthogonalLoop=1;jettySize=auto;html=1;entryX=0.484;entryY=0;entryDx=0;entryDy=0;entryPerimeter=0;" edge="1" parent="1" source="UGVQ1dfHeVU3jZcF55VB-1" target="UGVQ1dfHeVU3jZcF55VB-97">
          <mxGeometry relative="1" as="geometry" />
        </mxCell>
        <mxCell id="UGVQ1dfHeVU3jZcF55VB-114" style="edgeStyle=orthogonalEdgeStyle;rounded=0;orthogonalLoop=1;jettySize=auto;html=1;" edge="1" parent="1">
          <mxGeometry relative="1" as="geometry">
            <mxPoint x="110" y="160" as="sourcePoint" />
            <mxPoint x="570" y="78" as="targetPoint" />
            <Array as="points">
              <mxPoint x="154.67" y="160" />
              <mxPoint x="154.67" y="78" />
            </Array>
          </mxGeometry>
        </mxCell>
        <mxCell id="UGVQ1dfHeVU3jZcF55VB-115" value="Consumed By" style="edgeLabel;html=1;align=center;verticalAlign=middle;resizable=0;points=[];" vertex="1" connectable="0" parent="UGVQ1dfHeVU3jZcF55VB-114">
          <mxGeometry x="-0.0103" relative="1" as="geometry">
            <mxPoint x="-84" y="1" as="offset" />
          </mxGeometry>
        </mxCell>
        <mxCell id="UGVQ1dfHeVU3jZcF55VB-1" value="" style="shape=image;verticalLabelPosition=bottom;labelBackgroundColor=#ffffff;verticalAlign=top;aspect=fixed;imageAspect=0;image=data:image/svg+xml,PHN2ZyB4bWxuczpjYz0iaHR0cDovL2NyZWF0aXZlY29tbW9ucy5vcmcvbnMjIiB4bWxuczpkYz0iaHR0cDovL3B1cmwub3JnL2RjL2VsZW1lbnRzLzEuMS8iIHhtbG5zOmlua3NjYXBlPSJodHRwOi8vd3d3Lmlua3NjYXBlLm9yZy9uYW1lc3BhY2VzL2lua3NjYXBlIiB4bWxuczpyZGY9Imh0dHA6Ly93d3cudzMub3JnLzE5OTkvMDIvMjItcmRmLXN5bnRheC1ucyMiIHhtbG5zOnNvZGlwb2RpPSJodHRwOi8vc29kaXBvZGkuc291cmNlZm9yZ2UubmV0L0RURC9zb2RpcG9kaS0wLmR0ZCIgeG1sbnM6c3ZnPSJodHRwOi8vd3d3LnczLm9yZy8yMDAwL3N2ZyIgeG1sbnM9Imh0dHA6Ly93d3cudzMub3JnLzIwMDAvc3ZnIiB4bWxuczp4bGluaz0iaHR0cDovL3d3dy53My5vcmcvMTk5OS94bGluayIgdmVyc2lvbj0iMS4xIiBpZD0ic3ZnMTAwNzM2IiBpbmtzY2FwZTp2ZXJzaW9uPSIwLjkyLjMgKDI0MDU1NDYsIDIwMTgtMDMtMTEpIiBzb2RpcG9kaTpkb2NuYW1lPSJ1c2Vycy5zdmciIHg9IjBweCIgeT0iMHB4IiB2aWV3Qm94PSIwIDAgMTkyLjEyIDIyNC45MSIgc3R5bGU9ImVuYWJsZS1iYWNrZ3JvdW5kOm5ldyAwIDAgMTkyLjEyIDIyNC45MTsiIHhtbDpzcGFjZT0icHJlc2VydmUiPiYjeGE7PHNvZGlwb2RpOm5hbWVkdmlldyBib3JkZXJjb2xvcj0iIzY2NjY2NiIgYm9yZGVyb3BhY2l0eT0iMSIgZml0LW1hcmdpbi1ib3R0b209IjAiIGZpdC1tYXJnaW4tbGVmdD0iMCIgZml0LW1hcmdpbi1yaWdodD0iMCIgZml0LW1hcmdpbi10b3A9IjAiIGdyaWR0b2xlcmFuY2U9IjEwIiBndWlkZXRvbGVyYW5jZT0iMTAiIGlkPSJuYW1lZHZpZXcxMDA3MzgiIGlua3NjYXBlOmN1cnJlbnQtbGF5ZXI9InN2ZzEwMDczNiIgaW5rc2NhcGU6Y3g9IjIwMS40NDcwNiIgaW5rc2NhcGU6Y3k9IjczLjk2NDI1MyIgaW5rc2NhcGU6cGFnZW9wYWNpdHk9IjAiIGlua3NjYXBlOnBhZ2VzaGFkb3c9IjIiIGlua3NjYXBlOndpbmRvdy1oZWlnaHQ9IjEwMTciIGlua3NjYXBlOndpbmRvdy1tYXhpbWl6ZWQ9IjEiIGlua3NjYXBlOndpbmRvdy13aWR0aD0iMTkyMCIgaW5rc2NhcGU6d2luZG93LXg9Ii04IiBpbmtzY2FwZTp3aW5kb3cteT0iLTgiIGlua3NjYXBlOnpvb209IjEuNDQ1NTY5IiBvYmplY3R0b2xlcmFuY2U9IjEwIiBwYWdlY29sb3I9IiNmZmZmZmYiIHNob3dncmlkPSJmYWxzZSI+JiN4YTsJPC9zb2RpcG9kaTpuYW1lZHZpZXc+JiN4YTs8ZyBpZD0iZzEwMDczNCIgdHJhbnNmb3JtPSJ0cmFuc2xhdGUoLTQuOTkwNTY4MWUtNywwLjAwNDQ1NzEzKSI+JiN4YTsJPHRpdGxlIGlkPSJ0aXRsZTEwMDU4NCI+UGFnZS0xPC90aXRsZT4mI3hhOwk8ZyBpZD0iZ3JvdXA1NTkzLTEiIHRyYW5zZm9ybT0idHJhbnNsYXRlKDAuMTQ5OTk5LC0wLjE0OTk5OSkiPiYjeGE7CQk8dGl0bGUgaWQ9InRpdGxlMTAwNTg2Ij5Vc2VyczwvdGl0bGU+JiN4YTsJCTxnIGlkPSJzaGFwZTU1OTQtMiIgdHJhbnNmb3JtPSJ0cmFuc2xhdGUoMjguNDk5MiwtMTM2LjY4MSkiPiYjeGE7CQkJPHRpdGxlIGlkPSJ0aXRsZTEwMDU4OCI+U2hlZXQuNTU5NDwvdGl0bGU+JiN4YTsJCQk8cGF0aCBpZD0icGF0aDEwMDU5MCIgaW5rc2NhcGU6Y29ubmVjdG9yLWN1cnZhdHVyZT0iMCIgc3R5bGU9ImZpbGw6IzZENDgyOTsiIGQ9Ik0wLDIyNC45MXYtMjguNDRoNDcuMzR2MjguNDRIMHoiLz4mI3hhOwkJPC9nPiYjeGE7CQk8ZyBpZD0ic2hhcGU1NTk1LTQiIHRyYW5zZm9ybT0idHJhbnNsYXRlKDAuMTE5OTk3LC0zMC42MDAyKSI+JiN4YTsJCQk8dGl0bGUgaWQ9InRpdGxlMTAwNTkzIj5TaGVldC41NTk1PC90aXRsZT4mI3hhOwkJCTxwYXRoIGlkPSJwYXRoMTAwNTk1IiBpbmtzY2FwZTpjb25uZWN0b3ItY3VydmF0dXJlPSIwIiBzdHlsZT0iZmlsbDojNDBDNUFGOyIgZD0iTTIyLjAyLDExMC4zMWg2MC4yNCAgICAgYzEyLjEyLDAsMjIuMDIsMTAuOCwyMi4wMiwyMy41MnYxOS42Mkg4Mi4zMnY3MS40NkgyMi4wOHYtNzEuNDZIMHYtMTkuNTZsMCwwYzAtMTIuNzgsOS45LTIzLjUyLDIyLjAyLTIzLjUyVjExMC4zMXoiLz4mI3hhOwkJPC9nPiYjeGE7CQk8ZyBpZD0ic2hhcGU1NTk2LTYiIHRyYW5zZm9ybT0idHJhbnNsYXRlKDg3LjE3NzYsLTQzLjA4MDMpIj4mI3hhOwkJCTx0aXRsZSBpZD0idGl0bGUxMDA1OTgiPlNoZWV0LjU1OTY8L3RpdGxlPiYjeGE7CQkJPHBhdGggaWQ9InBhdGgxMDA2MDAiIGlua3NjYXBlOmNvbm5lY3Rvci1jdXJ2YXR1cmU9IjAiIHN0eWxlPSJmaWxsOiNFMEJCOEQ7IiBkPSJNMTQuODIsMjI0Ljg1aDI0LjY2di0xOC44NEgxNy4yMnYtNDAuMDhIMCAgICAgdjQ0LjE2bDAsMGMwLjA2LDguMTYsNi42NiwxNC43NiwxNC44MiwxNC44MlYyMjQuODV6Ii8+JiN4YTsJCTwvZz4mI3hhOwkJPGcgaWQ9InNoYXBlNTU5Ny04Ij4mI3hhOwkJCTx0aXRsZSBpZD0idGl0bGUxMDA2MDMiPlNoZWV0LjU1OTc8L3RpdGxlPiYjeGE7CQkJPHBhdGggaWQ9InBhdGgxMDA2MDUiIGlua3NjYXBlOmNvbm5lY3Rvci1jdXJ2YXR1cmU9IjAiIHN0eWxlPSJmaWxsOiNFMEJCOEQ7IiBkPSJNMCwxMjIuODVoMTcuMjJ2MTAyLjA2SDBWMTIyLjg1eiIvPiYjeGE7CQk8L2c+JiN4YTsJCTxnIGlkPSJzaGFwZTU1OTgtMTAiPiYjeGE7CQkJPHRpdGxlIGlkPSJ0aXRsZTEwMDYwOCI+U2hlZXQuNTU5ODwvdGl0bGU+JiN4YTsJCQkmI3hhOwkJCQk8cGF0aCBpZD0icGF0aDEwMDYxMCIgaW5rc2NhcGU6Y29ubmVjdG9yLWN1cnZhdHVyZT0iMCIgc3R5bGU9ImZpbGw6bm9uZTtzdHJva2U6I0ZGRkZGRjtzdHJva2Utd2lkdGg6MC4zO3N0cm9rZS1saW5lY2FwOnJvdW5kO3N0cm9rZS1saW5lam9pbjpyb3VuZDtzdHJva2UtbWl0ZXJsaW1pdDozOyIgZD0iICAgICBNMCwxMjIuODVoMTcuMjJ2MTAyLjA2SDBWMTIyLjg1eiIvPiYjeGE7CQk8L2c+JiN4YTsJCTxnIGlkPSJzaGFwZTU1OTktMTIiIHRyYW5zZm9ybT0idHJhbnNsYXRlKDExMi40OTcsLTY4LjQwMDUpIj4mI3hhOwkJCTx0aXRsZSBpZD0idGl0bGUxMDA2MTMiPlNoZWV0LjU1OTk8L3RpdGxlPiYjeGE7CQkJPHBhdGggaWQ9InBhdGgxMDA2MTUiIGlua3NjYXBlOmNvbm5lY3Rvci1jdXJ2YXR1cmU9IjAiIHN0eWxlPSJmaWxsOiMzRjU3NjU7IiBkPSJNNzkuMzIsMTg2LjUxbC0yMC44OCwzOC40SDBsMjAuNTgtMzguNCAgICAgTDc5LjMyLDE4Ni41MXoiLz4mI3hhOwkJPC9nPiYjeGE7CQk8ZyBpZD0ic2hhcGU1NjAwLTE0IiB0cmFuc2Zvcm09InRyYW5zbGF0ZSgxMTIuNDk3LC02OC40MDA1KSI+JiN4YTsJCQk8dGl0bGUgaWQ9InRpdGxlMTAwNjE4Ij5TaGVldC41NjAwPC90aXRsZT4mI3hhOwkJCSYjeGE7CQkJCTxwYXRoIGlkPSJwYXRoMTAwNjIwIiBpbmtzY2FwZTpjb25uZWN0b3ItY3VydmF0dXJlPSIwIiBzdHlsZT0iZmlsbDpub25lO3N0cm9rZTojRkZGRkZGO3N0cm9rZS13aWR0aDowLjM7c3Ryb2tlLWxpbmVjYXA6cm91bmQ7c3Ryb2tlLWxpbmVqb2luOnJvdW5kO3N0cm9rZS1taXRlcmxpbWl0OjM7IiBkPSIgICAgIE03OS4zMiwxODYuNTFsLTIwLjg4LDM4LjRIMGwyMC41OC0zOC40TDc5LjMyLDE4Ni41MXoiLz4mI3hhOwkJPC9nPiYjeGE7CQk8ZyBpZD0ic2hhcGU1NjAxLTE2IiB0cmFuc2Zvcm09InRyYW5zbGF0ZSgwLC05Ny4wMjA4KSI+JiN4YTsJCQk8dGl0bGUgaWQ9InRpdGxlMTAwNjIzIj5TaGVldC41NjAxPC90aXRsZT4mI3hhOwkJCTxwYXRoIGlkPSJwYXRoMTAwNjI1IiBpbmtzY2FwZTpjb25uZWN0b3ItY3VydmF0dXJlPSIwIiBzdHlsZT0iZmlsbDojQzM5ODZGOyIgZD0iTTE3LjIyLDIyNC45MXYtNS4wNEgwdjUuMDRIMTcuMjJ6Ii8+JiN4YTsJCTwvZz4mI3hhOwkJPGcgaWQ9InNoYXBlNTYwMi0xOCIgdHJhbnNmb3JtPSJ0cmFuc2xhdGUoMCwtOTcuMDIwOCkiPiYjeGE7CQkJPHRpdGxlIGlkPSJ0aXRsZTEwMDYyOCI+U2hlZXQuNTYwMjwvdGl0bGU+JiN4YTsJCQkmI3hhOwkJCQk8cGF0aCBpZD0icGF0aDEwMDYzMCIgaW5rc2NhcGU6Y29ubmVjdG9yLWN1cnZhdHVyZT0iMCIgc3R5bGU9ImZpbGw6bm9uZTtzdHJva2U6I0ZGRkZGRjtzdHJva2Utd2lkdGg6MC4zO3N0cm9rZS1saW5lY2FwOnJvdW5kO3N0cm9rZS1saW5lam9pbjpyb3VuZDtzdHJva2UtbWl0ZXJsaW1pdDozOyIgZD0iICAgICBNMTcuMjIsMjI0Ljkxdi01LjA0SDB2NS4wNEgxNy4yMnoiLz4mI3hhOwkJPC9nPiYjeGE7CQk8ZyBpZD0ic2hhcGU1NjAzLTIwIiB0cmFuc2Zvcm09InRyYW5zbGF0ZSg4Ny4xNzc2LC05Ny4wMjA4KSI+JiN4YTsJCQk8dGl0bGUgaWQ9InRpdGxlMTAwNjMzIj5TaGVldC41NjAzPC90aXRsZT4mI3hhOwkJCTxwYXRoIGlkPSJwYXRoMTAwNjM1IiBpbmtzY2FwZTpjb25uZWN0b3ItY3VydmF0dXJlPSIwIiBzdHlsZT0iZmlsbDojQzM5ODZGOyIgZD0iTTE3LjIyLDIyNC45MXYtNS4wNEgwdjUuMDRIMTcuMjJ6Ii8+JiN4YTsJCTwvZz4mI3hhOwkJPGcgaWQ9InNoYXBlNTYwNC0yMiIgdHJhbnNmb3JtPSJ0cmFuc2xhdGUoODcuMTc3NiwtOTcuMDIwOCkiPiYjeGE7CQkJPHRpdGxlIGlkPSJ0aXRsZTEwMDYzOCI+U2hlZXQuNTYwNDwvdGl0bGU+JiN4YTsJCQkmI3hhOwkJCQk8cGF0aCBpZD0icGF0aDEwMDY0MCIgaW5rc2NhcGU6Y29ubmVjdG9yLWN1cnZhdHVyZT0iMCIgc3R5bGU9ImZpbGw6bm9uZTtzdHJva2U6I0ZGRkZGRjtzdHJva2Utd2lkdGg6MC4zO3N0cm9rZS1saW5lY2FwOnJvdW5kO3N0cm9rZS1saW5lam9pbjpyb3VuZDtzdHJva2UtbWl0ZXJsaW1pdDozOyIgZD0iICAgICBNMTcuMjIsMjI0Ljkxdi01LjA0SDB2NS4wNEgxNy4yMnoiLz4mI3hhOwkJPC9nPiYjeGE7CQk8ZyBpZD0ic2hhcGU1NjA1LTI0IiB0cmFuc2Zvcm09InRyYW5zbGF0ZSg0MS44Nzg5LC0xMzcuNTgxKSI+JiN4YTsJCQk8dGl0bGUgaWQ9InRpdGxlMTAwNjQzIj5TaGVldC41NjA1PC90aXRsZT4mI3hhOwkJCTxwYXRoIGlkPSJwYXRoMTAwNjQ1IiBpbmtzY2FwZTpjb25uZWN0b3ItY3VydmF0dXJlPSIwIiBzdHlsZT0iZmlsbDojRTFCQzhGOyIgZD0iTTAsMTkxLjQzaDIwLjI4djI3Ljg0bC0xMC4zMiw1LjY0TDAsMjE5LjI3ICAgICBWMTkxLjQzeiIvPiYjeGE7CQk8L2c+JiN4YTsJCTxnIGlkPSJzaGFwZTU2MDYtMjYiIHRyYW5zZm9ybT0idHJhbnNsYXRlKDIzLjM5OTQsLTE4MC40MjEpIj4mI3hhOwkJCTx0aXRsZSBpZD0idGl0bGUxMDA2NDgiPlNoZWV0LjU2MDY8L3RpdGxlPiYjeGE7CQkJPHBhdGggaWQ9InBhdGgxMDA2NTAiIGlua3NjYXBlOmNvbm5lY3Rvci1jdXJ2YXR1cmU9IjAiIHN0eWxlPSJmaWxsOiNDNDk5NzA7IiBkPSJNNTcuNzIsMjIxLjc5YzAsMS42Mi0xLjIsMy0yLjgyLDMuMTJIMi44OCAgICAgYy0xLjYyLTAuMTItMi44OC0xLjUtMi44OC0zLjEydi02LjI0YzAtMS41NiwxLjMyLTIuODIsMi44OC0yLjgySDU0LjljMS41NiwwLDIuODIsMS4yNiwyLjgyLDIuODJWMjIxLjc5eiIvPiYjeGE7CQk8L2c+JiN4YTsJCTxnIGlkPSJzaGFwZTU2MDctMjgiIHRyYW5zZm9ybT0idHJhbnNsYXRlKDQyLjExODksLTEzNy41ODEpIj4mI3hhOwkJCTx0aXRsZSBpZD0idGl0bGUxMDA2NTMiPlNoZWV0LjU2MDc8L3RpdGxlPiYjeGE7CQkJJiN4YTsJCQkJPHBhdGggaWQ9InBhdGgxMDA2NTUiIGlua3NjYXBlOmNvbm5lY3Rvci1jdXJ2YXR1cmU9IjAiIHN0eWxlPSJmaWxsOm5vbmU7c3Ryb2tlOiNGRkZGRkY7c3Ryb2tlLXdpZHRoOjAuNDg7c3Ryb2tlLWxpbmVjYXA6cm91bmQ7c3Ryb2tlLWxpbmVqb2luOnJvdW5kO3N0cm9rZS1taXRlcmxpbWl0OjM7IiBkPSIgICAgIE0wLDE5MS40M2gyMC4yOHYyNy44NGwtMTAuMjYsNS42NEwwLDIxOS4yN1YxOTEuNDN6Ii8+JiN4YTsJCTwvZz4mI3hhOwkJPGcgaWQ9InNoYXBlNTYwOC0zMCIgdHJhbnNmb3JtPSJ0cmFuc2xhdGUoNDIuMTE4OSwtMTUzLjU0MSkiPiYjeGE7CQkJPHRpdGxlIGlkPSJ0aXRsZTEwMDY1OCI+U2hlZXQuNTYwODwvdGl0bGU+JiN4YTsJCQk8cGF0aCBpZD0icGF0aDEwMDY2MCIgaW5rc2NhcGU6Y29ubmVjdG9yLWN1cnZhdHVyZT0iMCIgc3R5bGU9ImZpbGw6I0M0OTk3MDsiIGQ9Ik0wLDIyMy43MWMzLjMsMC45LDYuNjYsMS4zMiwxMC4wMiwxLjIgICAgIGMzLjQ4LDAuMDYsNi45LTAuMzYsMTAuMjYtMS4ydi0xNi4zMkgwVjIyMy43MXoiLz4mI3hhOwkJPC9nPiYjeGE7CQk8ZyBpZD0ic2hhcGU1NjA5LTMyIiB0cmFuc2Zvcm09InRyYW5zbGF0ZSgyOC43MzkyLC0xNTcuMzIxKSI+JiN4YTsJCQk8dGl0bGUgaWQ9InRpdGxlMTAwNjYzIj5TaGVldC41NjA5PC90aXRsZT4mI3hhOwkJCTxwYXRoIGlkPSJwYXRoMTAwNjY1IiBpbmtzY2FwZTpjb25uZWN0b3ItY3VydmF0dXJlPSIwIiBzdHlsZT0iZmlsbDojRTFCQzhGOyIgZD0iTTAsMTc5Ljk3djM3LjE0YzYuNzgsNC45OCwxNC45NCw3LjY4LDIzLjQsNy44ICAgICBjOC41OC0wLjEyLDE2Ljk4LTIuODIsMjQtNy44di0zNy4xNEgweiIvPiYjeGE7CQk8L2c+JiN4YTsJCTxnIGlkPSJzaGFwZTU2MTAtMzQiIHRyYW5zZm9ybT0idHJhbnNsYXRlKDI4LjQzOTIsLTE4OS4xMjEpIj4mI3hhOwkJCTx0aXRsZSBpZD0idGl0bGUxMDA2NjgiPlNoZWV0LjU2MTA8L3RpdGxlPiYjeGE7CQkJPHBhdGggaWQ9InBhdGgxMDA2NzAiIGlua3NjYXBlOmNvbm5lY3Rvci1jdXJ2YXR1cmU9IjAiIHN0eWxlPSJmaWxsOiM2RDQ4Mjk7IiBkPSJNMzMuNjYsMTkxLjQ5Yy0zLTEuNS02LjMtMi4yOC05LjY2LTIuMjIgICAgIGMtMTMuMi0wLjEyLTI0LDEwLjU2LTI0LDIzLjc2djExLjg4QzE3Ljc2LDIyMi42OSwzMS44LDIwOC45NSwzMy42NiwxOTEuNDl6Ii8+JiN4YTsJCTwvZz4mI3hhOwkJPGcgaWQ9InNoYXBlNTYxMS0zNiIgdHJhbnNmb3JtPSJ0cmFuc2xhdGUoNDIuNDc4OSwtMTg5LjEyMSkiPiYjeGE7CQkJPHRpdGxlIGlkPSJ0aXRsZTEwMDY3MyI+U2hlZXQuNTYxMTwvdGl0bGU+JiN4YTsJCQk8cGF0aCBpZD0icGF0aDEwMDY3NSIgaW5rc2NhcGU6Y29ubmVjdG9yLWN1cnZhdHVyZT0iMCIgc3R5bGU9ImZpbGw6IzZENDgyOTsiIGQ9Ik0wLDE5MS40OWMzLjA2LTEuNTYsNi40OC0yLjI4LDkuOTYtMi4yMiAgICAgYzEzLjA4LDAsMjMuNywxMC42MiwyMy43LDIzLjc2djExLjg4QzE2LjE0LDIyMi43NSwyLjI4LDIwOS4wMSwwLDE5MS40OXoiLz4mI3hhOwkJPC9nPiYjeGE7CQk8ZyBpZD0ic2hhcGU1NjEyLTM4IiB0cmFuc2Zvcm09InRyYW5zbGF0ZSg0Mi4xMTg5LC0xNjYuMDgxKSI+JiN4YTsJCQk8dGl0bGUgaWQ9InRpdGxlMTAwNjc4Ij5TaGVldC41NjEyPC90aXRsZT4mI3hhOwkJCTxwYXRoIGlkPSJwYXRoMTAwNjgwIiBpbmtzY2FwZTpjb25uZWN0b3ItY3VydmF0dXJlPSIwIiBzdHlsZT0iZmlsbDojRkZGRkZGOyIgZD0iTTAsMjE5LjkzYzIuNDYsMy4yNCw2LjMsNS4xLDEwLjMyLDQuOTggICAgIGMzLjk2LDAuMDYsNy42OC0xLjgsMTAuMDItNC45OEgweiIvPiYjeGE7CQk8L2c+JiN4YTsJCTxnIGlkPSJzaGFwZTU2MTMtNDAiIHRyYW5zZm9ybT0idHJhbnNsYXRlKDQ5LjAxODcsLTE3NS4zODEpIj4mI3hhOwkJCTx0aXRsZSBpZD0idGl0bGUxMDA2ODMiPlNoZWV0LjU2MTM8L3RpdGxlPiYjeGE7CQkJPHBhdGggaWQ9InBhdGgxMDA2ODUiIGlua3NjYXBlOmNvbm5lY3Rvci1jdXJ2YXR1cmU9IjAiIHN0eWxlPSJmaWxsOiNDNDk5NzA7IiBkPSJNMCwyMjMuMzVjMC44NCwwLjk2LDIuMSwxLjU2LDMuNDIsMS41NiAgICAgYzEuMjYsMCwyLjQtMC42LDMuMTItMS41NkgweiIvPiYjeGE7CQk8L2c+JiN4YTsJCTxnIGlkPSJzaGFwZTU2MTQtNDIiIHRyYW5zZm9ybT0idHJhbnNsYXRlKDM5LjU4MzksLTE4NS4xMDEpIj4mI3hhOwkJCTx0aXRsZSBpZD0idGl0bGUxMDA2ODgiPlNoZWV0LjU2MTQ8L3RpdGxlPiYjeGE7CQkJPHBhdGggaWQ9InBhdGgxMDA2OTAiIGlua3NjYXBlOmNvbm5lY3Rvci1jdXJ2YXR1cmU9IjAiIHN0eWxlPSJmaWxsOiMzMzMzMzM7IiBkPSJNMy40MywyMjMuMzVjLTAuMDYsMC45Ni0wLjksMS42Mi0xLjg2LDEuNTYgICAgIGMtMi4wOSwwLTIuMDktMy4xMiwwLTMuMTJDMi41MywyMjEuNzMsMy4zNywyMjIuMzksMy40MywyMjMuMzV6Ii8+JiN4YTsJCTwvZz4mI3hhOwkJPGcgaWQ9InNoYXBlNTYxNS00NCIgdHJhbnNmb3JtPSJ0cmFuc2xhdGUoNjEuNzgzMywtMTg1LjEwMSkiPiYjeGE7CQkJPHRpdGxlIGlkPSJ0aXRsZTEwMDY5MyI+U2hlZXQuNTYxNTwvdGl0bGU+JiN4YTsJCQk8cGF0aCBpZD0icGF0aDEwMDY5NSIgaW5rc2NhcGU6Y29ubmVjdG9yLWN1cnZhdHVyZT0iMCIgc3R5bGU9ImZpbGw6IzMzMzMzMzsiIGQ9Ik0zLjQzLDIyMy4zNWMtMC4xMiwwLjk2LTAuOTYsMS42Mi0xLjg2LDEuNTYgICAgIGMtMi4wOSwwLTIuMDktMy4xMiwwLTMuMTJDMi40NywyMjEuNzMsMy4zMSwyMjIuMzksMy40MywyMjMuMzV6Ii8+JiN4YTsJCTwvZz4mI3hhOwkJPGcgaWQ9InNoYXBlNTYxNi00NiIgdHJhbnNmb3JtPSJ0cmFuc2xhdGUoNDYuNDk4NywtODYuNzYwNykiPiYjeGE7CQkJPHRpdGxlIGlkPSJ0aXRsZTEwMDY5OCI+U2hlZXQuNTYxNjwvdGl0bGU+JiN4YTsJCQk8cGF0aCBpZD0icGF0aDEwMDcwMCIgaW5rc2NhcGU6Y29ubmVjdG9yLWN1cnZhdHVyZT0iMCIgc3R5bGU9ImZpbGw6I0ZGRkZGRjsiIGQ9Ik0wLDIwNS45NWgxMS41MnYxOC45NkgwVjIwNS45NXoiLz4mI3hhOwkJPC9nPiYjeGE7CQk8ZyBpZD0ic2hhcGU1NjE3LTQ4IiB0cmFuc2Zvcm09InRyYW5zbGF0ZSg0My4xMzg4LC0xMDUuMzYxKSI+JiN4YTsJCQk8dGl0bGUgaWQ9InRpdGxlMTAwNzAzIj5TaGVldC41NjE3PC90aXRsZT4mI3hhOwkJCSYjeGE7CQkJCTxwYXRoIGlkPSJwYXRoMTAwNzA1IiBpbmtzY2FwZTpjb25uZWN0b3ItY3VydmF0dXJlPSIwIiBzdHlsZT0iZmlsbDpub25lO3N0cm9rZTojRkZGRkZGO3N0cm9rZS13aWR0aDowLjc4O3N0cm9rZS1saW5lY2FwOnJvdW5kO3N0cm9rZS1saW5lam9pbjpyb3VuZDtzdHJva2UtbWl0ZXJsaW1pdDozOyIgZD0iICAgICBNMy45LDIyNC45MUwwLDE4Ny41OSIvPiYjeGE7CQk8L2c+JiN4YTsJCTxnIGlkPSJzaGFwZTU2MTgtNTEiIHRyYW5zZm9ybT0idHJhbnNsYXRlKDU3LjUzODQsLTEwNS40ODEpIj4mI3hhOwkJCTx0aXRsZSBpZD0idGl0bGUxMDA3MDgiPlNoZWV0LjU2MTg8L3RpdGxlPiYjeGE7CQkJJiN4YTsJCQkJPHBhdGggaWQ9InBhdGgxMDA3MTAiIGlua3NjYXBlOmNvbm5lY3Rvci1jdXJ2YXR1cmU9IjAiIHN0eWxlPSJmaWxsOm5vbmU7c3Ryb2tlOiNGRkZGRkY7c3Ryb2tlLXdpZHRoOjAuNzg7c3Ryb2tlLWxpbmVjYXA6cm91bmQ7c3Ryb2tlLWxpbmVqb2luOnJvdW5kO3N0cm9rZS1taXRlcmxpbWl0OjM7IiBkPSIgICAgIE0wLDIyNC45MWwzLjg0LTM3LjIiLz4mI3hhOwkJPC9nPiYjeGE7CQk8ZyBpZD0ic2hhcGU1NjE5LTU0IiB0cmFuc2Zvcm09InRyYW5zbGF0ZSg0OC42NTg3LC05Ni40ODA3KSI+JiN4YTsJCQk8dGl0bGUgaWQ9InRpdGxlMTAwNzEzIj5TaGVldC41NjE5PC90aXRsZT4mI3hhOwkJCTxwYXRoIGlkPSJwYXRoMTAwNzE1IiBpbmtzY2FwZTpjb25uZWN0b3ItY3VydmF0dXJlPSIwIiBzdHlsZT0iZmlsbDojRjA1MTI1OyIgZD0iTTAsMjIxLjQ5aDMuNDJ2My40MkgwVjIyMS40OXoiLz4mI3hhOwkJPC9nPiYjeGE7CQk8ZyBpZD0ic2hhcGU1NjIwLTU2IiB0cmFuc2Zvcm09InRyYW5zbGF0ZSg1Mi40OTg2LC05Ni40ODA3KSI+JiN4YTsJCQk8dGl0bGUgaWQ9InRpdGxlMTAwNzE4Ij5TaGVldC41NjIwPC90aXRsZT4mI3hhOwkJCTxwYXRoIGlkPSJwYXRoMTAwNzIwIiBpbmtzY2FwZTpjb25uZWN0b3ItY3VydmF0dXJlPSIwIiBzdHlsZT0iZmlsbDojN0ZCQjQyOyIgZD0iTTAsMjIxLjQ5aDMuNDJ2My40MkgwVjIyMS40OXoiLz4mI3hhOwkJPC9nPiYjeGE7CQk8ZyBpZD0ic2hhcGU1NjIxLTU4IiB0cmFuc2Zvcm09InRyYW5zbGF0ZSg1Mi40OTg2LC05Mi42NDA3KSI+JiN4YTsJCQk8dGl0bGUgaWQ9InRpdGxlMTAwNzIzIj5TaGVldC41NjIxPC90aXRsZT4mI3hhOwkJCTxwYXRoIGlkPSJwYXRoMTAwNzI1IiBpbmtzY2FwZTpjb25uZWN0b3ItY3VydmF0dXJlPSIwIiBzdHlsZT0iZmlsbDojRkRCODEzOyIgZD0iTTAsMjIxLjQ5aDMuNDJ2My40MkgwVjIyMS40OXoiLz4mI3hhOwkJPC9nPiYjeGE7CQk8ZyBpZD0ic2hhcGU1NjIyLTYwIiB0cmFuc2Zvcm09InRyYW5zbGF0ZSg0OC42NTg3LC05Mi42NDA3KSI+JiN4YTsJCQk8dGl0bGUgaWQ9InRpdGxlMTAwNzI4Ij5TaGVldC41NjIyPC90aXRsZT4mI3hhOwkJCTxwYXRoIGlkPSJwYXRoMTAwNzMwIiBpbmtzY2FwZTpjb25uZWN0b3ItY3VydmF0dXJlPSIwIiBzdHlsZT0iZmlsbDojMzJBMERBOyIgZD0iTTAsMjIxLjQ5aDMuNDJ2My40MkgwVjIyMS40OXoiLz4mI3hhOwkJPC9nPiYjeGE7CTwvZz4mI3hhOzwvZz4mI3hhOzwvc3ZnPg==;" vertex="1" parent="1">
          <mxGeometry x="61.58" y="160" width="42.67" height="50" as="geometry" />
        </mxCell>
        <mxCell id="UGVQ1dfHeVU3jZcF55VB-46" style="edgeStyle=orthogonalEdgeStyle;rounded=0;orthogonalLoop=1;jettySize=auto;html=1;" edge="1" parent="1" source="UGVQ1dfHeVU3jZcF55VB-2" target="UGVQ1dfHeVU3jZcF55VB-9">
          <mxGeometry relative="1" as="geometry" />
        </mxCell>
        <mxCell id="UGVQ1dfHeVU3jZcF55VB-2" value="" style="shape=image;verticalLabelPosition=bottom;labelBackgroundColor=#ffffff;verticalAlign=top;aspect=fixed;imageAspect=0;image=data:image/svg+xml,PHN2ZyB4bWxuczpkYz0iaHR0cDovL3B1cmwub3JnL2RjL2VsZW1lbnRzLzEuMS8iIHhtbG5zOmNjPSJodHRwOi8vY3JlYXRpdmVjb21tb25zLm9yZy9ucyMiIHhtbG5zOnJkZj0iaHR0cDovL3d3dy53My5vcmcvMTk5OS8wMi8yMi1yZGYtc3ludGF4LW5zIyIgeG1sbnM6c3ZnPSJodHRwOi8vd3d3LnczLm9yZy8yMDAwL3N2ZyIgeG1sbnM9Imh0dHA6Ly93d3cudzMub3JnLzIwMDAvc3ZnIiB4bWxuczp4bGluaz0iaHR0cDovL3d3dy53My5vcmcvMTk5OS94bGluayIgeG1sbnM6c29kaXBvZGk9Imh0dHA6Ly9zb2RpcG9kaS5zb3VyY2Vmb3JnZS5uZXQvRFREL3NvZGlwb2RpLTAuZHRkIiB4bWxuczppbmtzY2FwZT0iaHR0cDovL3d3dy5pbmtzY2FwZS5vcmcvbmFtZXNwYWNlcy9pbmtzY2FwZSIgdmVyc2lvbj0iMS4xIiBpZD0iTGF5ZXJfMSIgeD0iMHB4IiB5PSIwcHgiIHZpZXdCb3g9IjAgMCA0NC4yMTk5OTcgNDUuNzc5OTk5IiB4bWw6c3BhY2U9InByZXNlcnZlIiBzb2RpcG9kaTpkb2NuYW1lPSJhenVyZV9kYXRhYnJpY2tzLnN2ZyIgd2lkdGg9IjQ0LjIxOTk5NyIgaGVpZ2h0PSI0NS43Nzk5OTkiIGlua3NjYXBlOnZlcnNpb249IjAuOTIuMyAoMjQwNTU0NiwgMjAxOC0wMy0xMSkiPjxtZXRhZGF0YSBpZD0ibWV0YWRhdGEzMDcwMyI+PHJkZjpSREY+PGNjOldvcmsgcmRmOmFib3V0PSIiPjxkYzpmb3JtYXQ+aW1hZ2Uvc3ZnK3htbDwvZGM6Zm9ybWF0PjxkYzp0eXBlIHJkZjpyZXNvdXJjZT0iaHR0cDovL3B1cmwub3JnL2RjL2RjbWl0eXBlL1N0aWxsSW1hZ2UiLz48ZGM6dGl0bGUvPjwvY2M6V29yaz48L3JkZjpSREY+PC9tZXRhZGF0YT48ZGVmcyBpZD0iZGVmczMwNzAxIi8+PHNvZGlwb2RpOm5hbWVkdmlldyBwYWdlY29sb3I9IiNmZmZmZmYiIGJvcmRlcmNvbG9yPSIjNjY2NjY2IiBib3JkZXJvcGFjaXR5PSIxIiBvYmplY3R0b2xlcmFuY2U9IjEwIiBncmlkdG9sZXJhbmNlPSIxMCIgZ3VpZGV0b2xlcmFuY2U9IjEwIiBpbmtzY2FwZTpwYWdlb3BhY2l0eT0iMCIgaW5rc2NhcGU6cGFnZXNoYWRvdz0iMiIgaW5rc2NhcGU6d2luZG93LXdpZHRoPSIxOTIwIiBpbmtzY2FwZTp3aW5kb3ctaGVpZ2h0PSIxMDE3IiBpZD0ibmFtZWR2aWV3MzA2OTkiIHNob3dncmlkPSJmYWxzZSIgZml0LW1hcmdpbi10b3A9IjAiIGZpdC1tYXJnaW4tbGVmdD0iMCIgZml0LW1hcmdpbi1yaWdodD0iMCIgZml0LW1hcmdpbi1ib3R0b209IjAiIGlua3NjYXBlOnpvb209IjEuMDMwMzAzIiBpbmtzY2FwZTpjeD0iMjQwLjA4NSIgaW5rc2NhcGU6Y3k9Ii0xNzcuMzkiIGlua3NjYXBlOndpbmRvdy14PSItOCIgaW5rc2NhcGU6d2luZG93LXk9Ii04IiBpbmtzY2FwZTp3aW5kb3ctbWF4aW1pemVkPSIxIiBpbmtzY2FwZTpjdXJyZW50LWxheWVyPSJMYXllcl8xIi8+JiN4YTsmI3hhOzxnIGlkPSJnMzA2OTYiIHRyYW5zZm9ybT0idHJhbnNsYXRlKC01Ny4yOTAwMDEsLTE5Ny41OCkiPiYjeGE7CTxkZWZzIGlkPSJkZWZzMzA2NzUiPiYjeGE7CQk8cmVjdCBpZD0iU1ZHSURfM18iIHg9IjU3LjI5MDAwMSIgeT0iMTk3LjU4IiB3aWR0aD0iNDUuMzMwMDAyIiBoZWlnaHQ9IjQ4LjE2Ii8+JiN4YTsJPC9kZWZzPiYjeGE7CTxjbGlwUGF0aCBpZD0iU1ZHSURfNF8iPiYjeGE7CQk8dXNlIHhsaW5rOmhyZWY9IiNTVkdJRF8zXyIgc3R5bGU9Im92ZXJmbG93OnZpc2libGUiIGlkPSJ1c2UzMDY3NyIgeD0iMCIgeT0iMCIgd2lkdGg9IjEwMCUiIGhlaWdodD0iMTAwJSIvPiYjeGE7CTwvY2xpcFBhdGg+JiN4YTsJPGcgY2xpcC1wYXRoPSJ1cmwoI1NWR0lEXzRfKSIgaWQ9ImczMDY5NCI+JiN4YTsJCTxkZWZzIGlkPSJkZWZzMzA2ODEiPiYjeGE7CQkJPHJlY3QgaWQ9IlNWR0lEXzVfIiB4PSI1Ny4yOTAwMDEiIHk9IjE5Ny41OCIgd2lkdGg9IjQ1LjMzMDAwMiIgaGVpZ2h0PSI0OC4xNiIvPiYjeGE7CQk8L2RlZnM+JiN4YTsJCTxjbGlwUGF0aCBpZD0iU1ZHSURfNl8iPiYjeGE7CQkJPHVzZSB4bGluazpocmVmPSIjU1ZHSURfNV8iIHN0eWxlPSJvdmVyZmxvdzp2aXNpYmxlIiBpZD0idXNlMzA2ODMiIHg9IjAiIHk9IjAiIHdpZHRoPSIxMDAlIiBoZWlnaHQ9IjEwMCUiLz4mI3hhOwkJPC9jbGlwUGF0aD4mI3hhOwkJPHBvbHlnb24gc3R5bGU9ImZpbGw6I2RjMjEyNiIgcG9pbnRzPSI3OS40NiwyNDMuMzYgNTcuMjksMjMxLjMyIDU3LjI5LDIyNC4wMSA3OS40LDIxMi42MiAxMDEuNDUsMjI0LjAxIDEwMS40NSwyMzEuMzIgIiBjbGlwLXBhdGg9InVybCgjU1ZHSURfNl8pIiBpZD0icG9seWdvbjMwNjg2Ii8+JiN4YTsJCTxwb2x5Z29uIHN0eWxlPSJmaWxsOiNmMDU0MmQiIHBvaW50cz0iNzkuNCwyMzUuNTcgNTcuMjksMjI0LjAxIDc5LjQsMjEyLjYyIDEwMS41MSwyMjQuMDEgIiBjbGlwLXBhdGg9InVybCgjU1ZHSURfNl8pIiBpZD0icG9seWdvbjMwNjg4Ii8+JiN4YTsJCTxwb2x5Z29uIHN0eWxlPSJmaWxsOiNkYzIxMjYiIHBvaW50cz0iNzkuNDYsMjI4LjMyIDU3LjI5LDIxNi4yOCA1Ny4yOSwyMDguOTYgNzkuNCwxOTcuNTggMTAxLjQ1LDIwOC45NiAxMDEuNDUsMjE2LjI4ICIgY2xpcC1wYXRoPSJ1cmwoI1NWR0lEXzZfKSIgaWQ9InBvbHlnb24zMDY5MCIvPiYjeGE7CQk8cG9seWdvbiBzdHlsZT0iZmlsbDojZjA1NDJkIiBwb2ludHM9Ijc5LjQsMjIwLjUzIDU3LjI5LDIwOC45NiA3OS40LDE5Ny41OCAxMDEuNTEsMjA4Ljk2ICIgY2xpcC1wYXRoPSJ1cmwoI1NWR0lEXzZfKSIgaWQ9InBvbHlnb24zMDY5MiIvPiYjeGE7CTwvZz4mI3hhOzwvZz4mI3hhOzwvc3ZnPg==;" vertex="1" parent="1">
          <mxGeometry x="96.09" y="475" width="38.26" height="40" as="geometry" />
        </mxCell>
        <mxCell id="UGVQ1dfHeVU3jZcF55VB-102" style="edgeStyle=orthogonalEdgeStyle;rounded=0;orthogonalLoop=1;jettySize=auto;html=1;entryX=0;entryY=0.25;entryDx=0;entryDy=0;" edge="1" parent="1" source="UGVQ1dfHeVU3jZcF55VB-5" target="UGVQ1dfHeVU3jZcF55VB-43">
          <mxGeometry relative="1" as="geometry">
            <Array as="points">
              <mxPoint x="160" y="295" />
              <mxPoint x="160" y="404" />
            </Array>
          </mxGeometry>
        </mxCell>
        <mxCell id="UGVQ1dfHeVU3jZcF55VB-5" value="" style="shape=image;verticalLabelPosition=bottom;labelBackgroundColor=#ffffff;verticalAlign=top;aspect=fixed;imageAspect=0;image=data:image/svg+xml,PHN2ZyB4bWxuczpkYz0iaHR0cDovL3B1cmwub3JnL2RjL2VsZW1lbnRzLzEuMS8iIHhtbG5zOmNjPSJodHRwOi8vY3JlYXRpdmVjb21tb25zLm9yZy9ucyMiIHhtbG5zOnJkZj0iaHR0cDovL3d3dy53My5vcmcvMTk5OS8wMi8yMi1yZGYtc3ludGF4LW5zIyIgeG1sbnM6c3ZnPSJodHRwOi8vd3d3LnczLm9yZy8yMDAwL3N2ZyIgeG1sbnM9Imh0dHA6Ly93d3cudzMub3JnLzIwMDAvc3ZnIiB4bWxuczpzb2RpcG9kaT0iaHR0cDovL3NvZGlwb2RpLnNvdXJjZWZvcmdlLm5ldC9EVEQvc29kaXBvZGktMC5kdGQiIHhtbG5zOmlua3NjYXBlPSJodHRwOi8vd3d3Lmlua3NjYXBlLm9yZy9uYW1lc3BhY2VzL2lua3NjYXBlIiB2ZXJzaW9uPSIxLjEiIGlkPSJzdmc0ODU5MiIgaW5rc2NhcGU6dmVyc2lvbj0iMC45Mi4zICgyNDA1NTQ2LCAyMDE4LTAzLTExKSIgc29kaXBvZGk6ZG9jbmFtZT0iYW5hbHlzaXNfc2VydmljZXMuc3ZnIiB4PSIwcHgiIHk9IjBweCIgdmlld0JveD0iMCAwIDExMS4yNyA4OS45OSIgc3R5bGU9ImVuYWJsZS1iYWNrZ3JvdW5kOm5ldyAwIDAgMTExLjI3IDg5Ljk5OyIgeG1sOnNwYWNlPSJwcmVzZXJ2ZSI+PG1ldGFkYXRhIGlkPSJtZXRhZGF0YTE2MTY0Ij48cmRmOlJERj48Y2M6V29yayByZGY6YWJvdXQ9IiI+PGRjOmZvcm1hdD5pbWFnZS9zdmcreG1sPC9kYzpmb3JtYXQ+PGRjOnR5cGUgcmRmOnJlc291cmNlPSJodHRwOi8vcHVybC5vcmcvZGMvZGNtaXR5cGUvU3RpbGxJbWFnZSIvPjxkYzp0aXRsZS8+PC9jYzpXb3JrPjwvcmRmOlJERj48L21ldGFkYXRhPjxkZWZzIGlkPSJkZWZzMTYxNjIiLz4mI3hhOzxmaWx0ZXIgaWQ9ImZpbHRlcl8yIj4mI3hhOwk8ZmVHYXVzc2lhbkJsdXIgaWQ9ImZlR2F1c3NpYW5CbHVyNDg0OTIiIHN0ZERldmlhdGlvbj0iMiIvPiYjeGE7PC9maWx0ZXI+JiN4YTs8c29kaXBvZGk6bmFtZWR2aWV3IGJvcmRlcmNvbG9yPSIjNjY2NjY2IiBib3JkZXJvcGFjaXR5PSIxIiBmaXQtbWFyZ2luLWJvdHRvbT0iMCIgZml0LW1hcmdpbi1sZWZ0PSIwIiBmaXQtbWFyZ2luLXJpZ2h0PSIwIiBmaXQtbWFyZ2luLXRvcD0iMCIgZ3JpZHRvbGVyYW5jZT0iMTAiIGd1aWRldG9sZXJhbmNlPSIxMCIgaWQ9Im5hbWVkdmlldzQ4NTk0IiBpbmtzY2FwZTpjdXJyZW50LWxheWVyPSJzdmc0ODU5MiIgaW5rc2NhcGU6Y3g9IjQ3LjU5NjU3MSIgaW5rc2NhcGU6Y3k9IjQwLjMwNjcxOCIgaW5rc2NhcGU6cGFnZW9wYWNpdHk9IjAiIGlua3NjYXBlOnBhZ2VzaGFkb3c9IjIiIGlua3NjYXBlOndpbmRvdy1oZWlnaHQ9IjEwMTciIGlua3NjYXBlOndpbmRvdy1tYXhpbWl6ZWQ9IjEiIGlua3NjYXBlOndpbmRvdy13aWR0aD0iMTkyMCIgaW5rc2NhcGU6d2luZG93LXg9Ii04IiBpbmtzY2FwZTp3aW5kb3cteT0iLTgiIGlua3NjYXBlOnpvb209IjguNDQxMjQ5MiIgb2JqZWN0dG9sZXJhbmNlPSIxMCIgcGFnZWNvbG9yPSIjZmZmZmZmIiBzaG93Z3JpZD0iZmFsc2UiPiYjeGE7CTwvc29kaXBvZGk6bmFtZWR2aWV3PiYjeGE7JiN4YTs8cmVjdCBpZD0icmVjdDQ4NTA3IiB5PSIwIiBzdHlsZT0iZmlsbDojMzk5OWM2IiB3aWR0aD0iNDUuODIiIGhlaWdodD0iMzYiIHg9IjAiLz4mI3hhOyYjeGE7PHJlY3QgaWQ9InJlY3Q0ODUxNSIgeD0iMy4yNzAwMDA1IiB5PSI2LjU1MDAwMDIiIHN0eWxlPSJmaWxsOiNmZmZmZmYiIHdpZHRoPSIzOS4yNyIgaGVpZ2h0PSIyNi4xOCIvPiYjeGE7JiN4YTs8cmVjdCBpZD0icmVjdDQ4NTI2IiB4PSI5LjgxOTk5OTciIHk9IjU0IiBzdHlsZT0iZmlsbDojMzk5OWM2IiB3aWR0aD0iNDUuODIiIGhlaWdodD0iMzYiLz4mI3hhOyYjeGE7PHJlY3QgaWQ9InJlY3Q0ODUzNCIgeD0iMTMuMDkiIHk9IjYwLjU0MDAwMSIgc3R5bGU9ImZpbGw6I2ZmZmZmZiIgd2lkdGg9IjM5LjI3IiBoZWlnaHQ9IjI2LjE4Ii8+JiN4YTsmI3hhOzxyZWN0IGlkPSJyZWN0NDg1NDUiIHg9IjY1LjQ0OTk5NyIgeT0iMjEuMjciIHN0eWxlPSJmaWxsOiMzOTk5YzYiIHdpZHRoPSI0NS44MiIgaGVpZ2h0PSIzNiIvPiYjeGE7JiN4YTs8cmVjdCBpZD0icmVjdDQ4NTUzIiB4PSI2OC43MjAwMDEiIHk9IjI3LjgyIiBzdHlsZT0iZmlsbDojZmZmZmZmIiB3aWR0aD0iMzkuMjciIGhlaWdodD0iMjYuMTgiLz4mI3hhOyYjeGE7PHBhdGggaWQ9InBhdGg0ODU2MiIgaW5rc2NhcGU6Y29ubmVjdG9yLWN1cnZhdHVyZT0iMCIgc3R5bGU9ImZpbGw6bm9uZTtzdHJva2U6IzM5OTlDNjtzdHJva2Utd2lkdGg6MztzdHJva2UtbGluZWNhcDpzcXVhcmU7c3Ryb2tlLW1pdGVybGltaXQ6MzsiIGQ9IiAgTTMzLjIyLDczLjk2TDIyLjkxLDE5LjY0bDY1LjQ1LDIxLjI3TDMzLjIyLDczLjk2eiIvPiYjeGE7JiN4YTs8Y2lyY2xlIGlkPSJlbGxpcHNlNDg1NzAiIHN0eWxlPSJmaWxsOiMzOTk5QzY7IiBjeD0iMjMuNCIgY3k9IjE5LjYzIiByPSI0LjkxIi8+JiN4YTsmI3hhOzxjaXJjbGUgaWQ9ImVsbGlwc2U0ODU3OCIgc3R5bGU9ImZpbGw6IzM5OTlDNjsiIGN4PSIzMy4yMiIgY3k9IjczLjYzIiByPSI0LjkxIi8+JiN4YTsmI3hhOzxjaXJjbGUgaWQ9ImVsbGlwc2U0ODU4NiIgc3R5bGU9ImZpbGw6IzM5OTlDNjsiIGN4PSI4OC44NSIgY3k9IjQwLjkxIiByPSI0LjkxIi8+JiN4YTs8L3N2Zz4=;" vertex="1" parent="1">
          <mxGeometry x="56.800000000000004" y="275" width="49.33" height="40" as="geometry" />
        </mxCell>
        <mxCell id="UGVQ1dfHeVU3jZcF55VB-45" style="edgeStyle=orthogonalEdgeStyle;rounded=0;orthogonalLoop=1;jettySize=auto;html=1;entryX=1;entryY=0.5;entryDx=0;entryDy=0;" edge="1" parent="1" source="UGVQ1dfHeVU3jZcF55VB-7" target="UGVQ1dfHeVU3jZcF55VB-2">
          <mxGeometry relative="1" as="geometry">
            <Array as="points">
              <mxPoint x="362" y="495" />
            </Array>
          </mxGeometry>
        </mxCell>
        <mxCell id="UGVQ1dfHeVU3jZcF55VB-70" style="edgeStyle=orthogonalEdgeStyle;rounded=0;orthogonalLoop=1;jettySize=auto;html=1;entryX=0;entryY=0.5;entryDx=0;entryDy=0;" edge="1" parent="1" source="UGVQ1dfHeVU3jZcF55VB-7" target="UGVQ1dfHeVU3jZcF55VB-60">
          <mxGeometry relative="1" as="geometry">
            <Array as="points">
              <mxPoint x="362" y="495" />
            </Array>
          </mxGeometry>
        </mxCell>
        <mxCell id="UGVQ1dfHeVU3jZcF55VB-7" value="" style="shape=image;verticalLabelPosition=bottom;labelBackgroundColor=#ffffff;verticalAlign=top;aspect=fixed;imageAspect=0;image=data:image/svg+xml,PHN2ZyB4bWxuczpkYz0iaHR0cDovL3B1cmwub3JnL2RjL2VsZW1lbnRzLzEuMS8iIHhtbG5zOmNjPSJodHRwOi8vY3JlYXRpdmVjb21tb25zLm9yZy9ucyMiIHhtbG5zOnJkZj0iaHR0cDovL3d3dy53My5vcmcvMTk5OS8wMi8yMi1yZGYtc3ludGF4LW5zIyIgeG1sbnM6c3ZnPSJodHRwOi8vd3d3LnczLm9yZy8yMDAwL3N2ZyIgeG1sbnM9Imh0dHA6Ly93d3cudzMub3JnLzIwMDAvc3ZnIiB4bWxuczpzb2RpcG9kaT0iaHR0cDovL3NvZGlwb2RpLnNvdXJjZWZvcmdlLm5ldC9EVEQvc29kaXBvZGktMC5kdGQiIHhtbG5zOmlua3NjYXBlPSJodHRwOi8vd3d3Lmlua3NjYXBlLm9yZy9uYW1lc3BhY2VzL2lua3NjYXBlIiB2ZXJzaW9uPSIxLjEiIGlkPSJzdmc3NjkyMyIgaW5rc2NhcGU6dmVyc2lvbj0iMC45Mi4zICgyNDA1NTQ2LCAyMDE4LTAzLTExKSIgc29kaXBvZGk6ZG9jbmFtZT0iZGF0YV9sYWtlLnN2ZyIgeD0iMHB4IiB5PSIwcHgiIHZpZXdCb3g9IjAgMCA1My43OCA3MS4xMyIgeG1sOnNwYWNlPSJwcmVzZXJ2ZSIgd2lkdGg9IjUzLjc3OTk5OSIgaGVpZ2h0PSI3MS4xMjk5OTciPjxtZXRhZGF0YSBpZD0ibWV0YWRhdGEyMjgyMyI+PHJkZjpSREY+PGNjOldvcmsgcmRmOmFib3V0PSIiPjxkYzpmb3JtYXQ+aW1hZ2Uvc3ZnK3htbDwvZGM6Zm9ybWF0PjxkYzp0eXBlIHJkZjpyZXNvdXJjZT0iaHR0cDovL3B1cmwub3JnL2RjL2RjbWl0eXBlL1N0aWxsSW1hZ2UiLz48ZGM6dGl0bGUvPjwvY2M6V29yaz48L3JkZjpSREY+PC9tZXRhZGF0YT48ZGVmcyBpZD0iZGVmczIyODIxIi8+JiN4YTs8ZmlsdGVyIGlkPSJmaWx0ZXJfMiI+JiN4YTsJPGZlR2F1c3NpYW5CbHVyIGlkPSJmZUdhdXNzaWFuQmx1cjc2ODMwIiBzdGREZXZpYXRpb249IjIiLz4mI3hhOzwvZmlsdGVyPiYjeGE7PHNvZGlwb2RpOm5hbWVkdmlldyBib3JkZXJjb2xvcj0iIzY2NjY2NiIgYm9yZGVyb3BhY2l0eT0iMSIgZml0LW1hcmdpbi1ib3R0b209IjAiIGZpdC1tYXJnaW4tbGVmdD0iMCIgZml0LW1hcmdpbi1yaWdodD0iMCIgZml0LW1hcmdpbi10b3A9IjAiIGdyaWR0b2xlcmFuY2U9IjEwIiBndWlkZXRvbGVyYW5jZT0iMTAiIGlkPSJuYW1lZHZpZXc3NjkyNSIgaW5rc2NhcGU6Y3VycmVudC1sYXllcj0ic3ZnNzY5MjMiIGlua3NjYXBlOmN4PSItNTUuMzI3MzQ3IiBpbmtzY2FwZTpjeT0iNDcuNzkxMTMzIiBpbmtzY2FwZTpwYWdlb3BhY2l0eT0iMCIgaW5rc2NhcGU6cGFnZXNoYWRvdz0iMiIgaW5rc2NhcGU6d2luZG93LWhlaWdodD0iMTAxNyIgaW5rc2NhcGU6d2luZG93LW1heGltaXplZD0iMSIgaW5rc2NhcGU6d2luZG93LXdpZHRoPSIxOTIwIiBpbmtzY2FwZTp3aW5kb3cteD0iLTgiIGlua3NjYXBlOndpbmRvdy15PSItOCIgaW5rc2NhcGU6em9vbT0iNC44MDg5OTYiIG9iamVjdHRvbGVyYW5jZT0iMTAiIHBhZ2Vjb2xvcj0iI2ZmZmZmZiIgc2hvd2dyaWQ9ImZhbHNlIj4mI3hhOwk8L3NvZGlwb2RpOm5hbWVkdmlldz4mI3hhOyYjeGE7PHBhdGggaWQ9InBhdGg3Njg0NSIgaW5rc2NhcGU6Y29ubmVjdG9yLWN1cnZhdHVyZT0iMCIgc3R5bGU9ImZpbGw6IzNlM2UzZSIgZD0ibSAwLDkuNjggdiA1MS42NCBjIDAsNS40IDExLjk1LDkuNjcgMjYuODksOS42NyBWIDkuNjggWiIvPiYjeGE7JiN4YTs8cGF0aCBpZD0icGF0aDc2ODUzIiBpbmtzY2FwZTpjb25uZWN0b3ItY3VydmF0dXJlPSIwIiBzdHlsZT0iZmlsbDojYTBhMWEyIiBkPSJtIDI2LjQ2LDcxLjEzIGggMC40MyBjIDE0Ljc5LDAgMjYuODgsLTQuNDEgMjYuODgsLTkuNjcgViA5LjY3IEggMjYuNDYgWiIvPiYjeGE7JiN4YTs8cGF0aCBpZD0icGF0aDc2ODYxIiBpbmtzY2FwZTpjb25uZWN0b3ItY3VydmF0dXJlPSIwIiBzdHlsZT0iZmlsbDojZmZmZmZmIiBkPSJtIDUzLjc4LDkuNjggYyAwLDUuNCAtMTEuOTUsOS42NyAtMjYuODksOS42NyBDIDExLjk1LDE5LjM1IDAsMTUuMDggMCw5LjY4IDAsNC40MSAxMi4wOSwwIDI2Ljg5LDAgNDEuNjgsMCA1My43OCw0LjQxIDUzLjc4LDkuNjggWiIvPiYjeGE7JiN4YTs8cGF0aCBpZD0icGF0aDc2ODY5IiBpbmtzY2FwZTpjb25uZWN0b3ItY3VydmF0dXJlPSIwIiBzdHlsZT0iZmlsbDojN2ZiYTAwIiBkPSJtIDQ4LjIzLDkuMTEgYyAwLDMuNTYgLTkuNTMsNi40IC0yMS4zNCw2LjQgLTExLjgxLDAgLTIxLjM0LC0yLjg0IC0yMS4zNCwtNi40IDAsLTMuNTYgOS41MywtNi40IDIxLjM0LC02LjQgMTEuODEsMCAyMS4zNCwyLjg0IDIxLjM0LDYuNCB6Ii8+JiN4YTsmI3hhOzxwYXRoIGlkPSJwYXRoNzY4NzciIGlua3NjYXBlOmNvbm5lY3Rvci1jdXJ2YXR1cmU9IjAiIHN0eWxlPSJmaWxsOiNiOGQ0MzIiIGQ9Im0gNDMuODIsMTMuMDkgYyAyLjg0LC0xLjE0IDQuNDEsLTIuNDIgNC40MSwtMy45OCAwLC0zLjU2IC05LjUzLC02LjQgLTIxLjM0LC02LjQgLTExLjgxLDAgLTIxLjM0LDIuODQgLTIxLjM0LDYuNCAwLDEuNDIgMS43MSwyLjg0IDQuNDEsMy45OCAzLjg0LC0xLjU2IDkuOTYsLTIuNTYgMTYuOTMsLTIuNTYgNi44MywwIDEyLjk1LDEgMTYuOTMsMi41NiB6Ii8+JiN4YTsmI3hhOzxwYXRoIGlkPSJwYXRoNzY4ODgiIGlua3NjYXBlOmNvbm5lY3Rvci1jdXJ2YXR1cmU9IjAiIHN0eWxlPSJmaWxsOiMzOTk5YzYiIGQ9Ik0gMjYuNDYsNzEuMTMgViA0NS41MiBjIC0zLjk4LDAgLTcuNCwtMi4xMyAtOS4zOSwtNS4yNiAtMS45OSwzLjEzIC01LjI2LDUuMjYgLTkuMjUsNS4yNiAtMy4xMywwIC01LjgzLC0xLjI4IC03LjgyLC0zLjQxIHYgMTkuMzUgYyAwLDUuMjYgMTEuODEsOS41MyAyNi40Niw5LjY3IHoiLz4mI3hhOzxnIGlkPSJzaGFkb3c1MTA2LTM1IiB0cmFuc2Zvcm09InRyYW5zbGF0ZSgtNTIuNzY2OCwtMjIuNTAzNzU0KSI+JiN4YTs8L2c+JiN4YTsmI3hhOyYjeGE7JiN4YTs8cGF0aCBpZD0icGF0aDc2OTA4IiBpbmtzY2FwZTpjb25uZWN0b3ItY3VydmF0dXJlPSIwIiBzdHlsZT0iZmlsbDojNTliNGQ5IiBkPSJtIDQ1LjUzLDQ1LjUyIGMgLTMuOTgsMCAtNy41NCwtMi4xMyAtOS41MywtNS4yNiAtMS44NSwzLjEzIC01LjI3LDUuMTIgLTkuMjUsNS4yNiB2IDI1LjYxIGMgMTQuOCwwIDI2Ljg5LC00LjQxIDI2Ljg5LC05LjY3IFYgNDEuOTcgYyAtMS45OSwyLjEzIC00Ljg0LDMuNTUgLTguMTEsMy41NSB6Ii8+JiN4YTsmI3hhOyYjeGE7PC9zdmc+;" vertex="1" parent="1">
          <mxGeometry x="340" y="543.5" width="43" height="56" as="geometry" />
        </mxCell>
        <mxCell id="UGVQ1dfHeVU3jZcF55VB-9" value="" style="shape=image;verticalLabelPosition=bottom;labelBackgroundColor=#ffffff;verticalAlign=top;aspect=fixed;imageAspect=0;image=data:image/svg+xml,PHN2ZyB4bWxuczpkYz0iaHR0cDovL3B1cmwub3JnL2RjL2VsZW1lbnRzLzEuMS8iIHhtbG5zOmNjPSJodHRwOi8vY3JlYXRpdmVjb21tb25zLm9yZy9ucyMiIHhtbG5zOnJkZj0iaHR0cDovL3d3dy53My5vcmcvMTk5OS8wMi8yMi1yZGYtc3ludGF4LW5zIyIgeG1sbnM6c3ZnPSJodHRwOi8vd3d3LnczLm9yZy8yMDAwL3N2ZyIgeG1sbnM9Imh0dHA6Ly93d3cudzMub3JnLzIwMDAvc3ZnIiB4bWxuczpzb2RpcG9kaT0iaHR0cDovL3NvZGlwb2RpLnNvdXJjZWZvcmdlLm5ldC9EVEQvc29kaXBvZGktMC5kdGQiIHhtbG5zOmlua3NjYXBlPSJodHRwOi8vd3d3Lmlua3NjYXBlLm9yZy9uYW1lc3BhY2VzL2lua3NjYXBlIiB2ZXJzaW9uPSIxLjEiIGlkPSJzdmc5NTc5NiIgaW5rc2NhcGU6dmVyc2lvbj0iMC45Mi4zICgyNDA1NTQ2LCAyMDE4LTAzLTExKSIgc29kaXBvZGk6ZG9jbmFtZT0ic3FsX2RhdGFfd2FyZWhvdXNlLnN2ZyIgeD0iMHB4IiB5PSIwcHgiIHZpZXdCb3g9IjAgMCA5OC44MyA5Ni4xIiB4bWw6c3BhY2U9InByZXNlcnZlIiB3aWR0aD0iOTguODMwMDAyIiBoZWlnaHQ9Ijk2LjA5OTk5OCI+PG1ldGFkYXRhIGlkPSJtZXRhZGF0YTE0OTkiPjxyZGY6UkRGPjxjYzpXb3JrIHJkZjphYm91dD0iIj48ZGM6Zm9ybWF0PmltYWdlL3N2Zyt4bWw8L2RjOmZvcm1hdD48ZGM6dHlwZSByZGY6cmVzb3VyY2U9Imh0dHA6Ly9wdXJsLm9yZy9kYy9kY21pdHlwZS9TdGlsbEltYWdlIi8+PGRjOnRpdGxlLz48L2NjOldvcms+PC9yZGY6UkRGPjwvbWV0YWRhdGE+PGRlZnMgaWQ9ImRlZnMxNDk3Ij4mI3hhOwkmI3hhOyYjeGE7CSYjeGE7JiN4YTsJJiN4YTsmI3hhOwkmI3hhOyYjeGE7CSYjeGE7JiN4YTsJJiN4YTsmI3hhOwkmI3hhOyYjeGE7CSYjeGE7JiN4YTsJJiN4YTsmI3hhOwkmI3hhOyYjeGE7CSYjeGE7JiN4YTsJJiN4YTsmI3hhOwkmI3hhOyYjeGE7CSYjeGE7JiN4YTsJJiN4YTsmI3hhOwkmI3hhOyYjeGE7CSYjeGE7JiN4YTsJJiN4YTsmI3hhOwkmI3hhOyYjeGE7CSYjeGE7JiN4YTsJJiN4YTsmI3hhOwkmI3hhOyYjeGE7CSYjeGE7JiN4YTsJJiN4YTsmI3hhOwkmI3hhOyYjeGE7CSYjeGE7JiN4YTsJJiN4YTsmI3hhOwkmI3hhOyYjeGE7CSYjeGE7JiN4YTsJJiN4YTsmI3hhOwkmI3hhOwkmI3hhOwkmI3hhOyYjeGE7CSYjeGE7CSYjeGE7CSYjeGE7JiN4YTsJJiN4YTsJJiN4YTsJJiN4YTsmI3hhOwkJJiN4YTsJJiN4YTsJCSYjeGE7CSYjeGE7CQkmI3hhOwkmI3hhOwkJJiN4YTsJJiN4YTsJCSYjeGE7CSYjeGE7CQkmI3hhOwkmI3hhOwkJJiN4YTsJJiN4YTsJCSYjeGE7CSYjeGE7CQkJJiN4YTsJCSYjeGE7CQkJJiN4YTsJCTwvZGVmcz4mI3hhOzxmaWx0ZXIgaWQ9ImZpbHRlcl8yIj4mI3hhOwk8ZmVHYXVzc2lhbkJsdXIgaWQ9ImZlR2F1c3NpYW5CbHVyOTU1MTIiIHN0ZERldmlhdGlvbj0iMiIvPiYjeGE7PC9maWx0ZXI+JiN4YTs8c29kaXBvZGk6bmFtZWR2aWV3IGJvcmRlcmNvbG9yPSIjNjY2NjY2IiBib3JkZXJvcGFjaXR5PSIxIiBmaXQtbWFyZ2luLWJvdHRvbT0iMCIgZml0LW1hcmdpbi1sZWZ0PSIwIiBmaXQtbWFyZ2luLXJpZ2h0PSIwIiBmaXQtbWFyZ2luLXRvcD0iMCIgZ3JpZHRvbGVyYW5jZT0iMTAiIGd1aWRldG9sZXJhbmNlPSIxMCIgaWQ9Im5hbWVkdmlldzk1Nzk4IiBpbmtzY2FwZTpjdXJyZW50LWxheWVyPSJzdmc5NTc5NiIgaW5rc2NhcGU6Y3g9IjM2LjgzOTc1MiIgaW5rc2NhcGU6Y3k9IjQ1LjQzNTQ0NiIgaW5rc2NhcGU6cGFnZW9wYWNpdHk9IjAiIGlua3NjYXBlOnBhZ2VzaGFkb3c9IjIiIGlua3NjYXBlOndpbmRvdy1oZWlnaHQ9IjEwMTciIGlua3NjYXBlOndpbmRvdy1tYXhpbWl6ZWQ9IjEiIGlua3NjYXBlOndpbmRvdy13aWR0aD0iMTkyMCIgaW5rc2NhcGU6d2luZG93LXg9Ii04IiBpbmtzY2FwZTp3aW5kb3cteT0iLTgiIGlua3NjYXBlOnpvb209IjQuNDgxMzgxNSIgb2JqZWN0dG9sZXJhbmNlPSIxMCIgcGFnZWNvbG9yPSIjZmZmZmZmIiBzaG93Z3JpZD0iZmFsc2UiPiYjeGE7CTwvc29kaXBvZGk6bmFtZWR2aWV3PiYjeGE7JiN4YTs8cmVjdCBpZD0icmVjdDk1NTI3IiB4PSIyMy44MDAwMDMiIHk9IjMwLjEzOTk5OSIgc3R5bGU9ImZpbGw6IzdmYmI0MiIgd2lkdGg9IjkuNDYiIGhlaWdodD0iOS40NiIvPiYjeGE7JiN4YTs8cmVjdCBpZD0icmVjdDk1NTM1IiB4PSIxNi4zMDAwMDMiIHk9IjU1Ljc5MDAwMSIgc3R5bGU9ImZpbGw6IzdmYmI0MiIgd2lkdGg9IjkuNDYiIGhlaWdodD0iOS40NiIvPiYjeGE7JiN4YTs8cmVjdCBpZD0icmVjdDk1NTQzIiB4PSIyOS43NjAwMSIgeT0iNTUuNzkwMDAxIiBzdHlsZT0iZmlsbDojN2ZiYjQyIiB3aWR0aD0iOS40NiIgaGVpZ2h0PSI5LjQ2Ii8+JiN4YTsmI3hhOzxyZWN0IGlkPSJyZWN0OTU1NTEiIHg9IjQzLjA4OTk5NiIgeT0iNTUuNzkwMDAxIiBzdHlsZT0iZmlsbDojN2ZiYjQyIiB3aWR0aD0iOS40NiIgaGVpZ2h0PSI5LjQ2Ii8+JiN4YTsmI3hhOzxyZWN0IGlkPSJyZWN0OTU1NTkiIHg9IjE2LjMwMDAwMyIgeT0iNDIuOTU5OTk5IiBzdHlsZT0iZmlsbDojN2ZiYjQyIiB3aWR0aD0iOS40NiIgaGVpZ2h0PSI5LjQ2Ii8+JiN4YTsmI3hhOzxyZWN0IGlkPSJyZWN0OTU1NjciIHg9IjI5Ljc2MDAxIiB5PSI0Mi45NTk5OTkiIHN0eWxlPSJmaWxsOiM3ZmJiNDIiIHdpZHRoPSI5LjQ2IiBoZWlnaHQ9IjkuNDYiLz4mI3hhOyYjeGE7PHBhdGggaWQ9InBhdGg5NTU3NSIgaW5rc2NhcGU6Y29ubmVjdG9yLWN1cnZhdHVyZT0iMCIgc3R5bGU9ImZpbGw6IzM5OTljNiIgZD0iTSAzNy4yNiwwIDAsMTkuOCB2IDUuNzggaCA3LjYxIHYgMzkuOTkgaCA2LjM2IFYgMjUuNTggaCA0Ni4zMiB2IDM3LjQ1IGggNyBWIDI1LjU4IGggNi45NyBWIDE5LjggWiIvPiYjeGE7JiN4YTs8cGF0aCBpZD0icGF0aDk1NTgzIiBpbmtzY2FwZTpjb25uZWN0b3ItY3VydmF0dXJlPSIwIiBzdHlsZT0iZmlsbDojYjhkNDMzO2ZpbGwtb3BhY2l0eTowLjgiIGQ9Ik0gMzMuMjYsMzkuNiBIIDMyLjE3IFYgMzEuMzYgSCAyMy44IHYgLTEuMjIgaCA5LjQ2IHoiLz4mI3hhOyYjeGE7PHBhdGggaWQ9InBhdGg5NTU5MSIgaW5rc2NhcGU6Y29ubmVjdG9yLWN1cnZhdHVyZT0iMCIgc3R5bGU9ImZpbGw6I2I4ZDQzMztmaWxsLW9wYWNpdHk6MC41IiBkPSJtIDIzLjgsMzAuMTQgaCAxLjA5IHYgOC4yNyBoIDguMzcgViAzOS42IEggMjMuOCBaIi8+JiN4YTsmI3hhOzxwYXRoIGlkPSJwYXRoOTU1OTkiIGlua3NjYXBlOmNvbm5lY3Rvci1jdXJ2YXR1cmU9IjAiIHN0eWxlPSJmaWxsOiNiOGQ0MzM7ZmlsbC1vcGFjaXR5OjAuOCIgZD0iTSAyNS43Niw1Mi40MiBIIDI0LjcgdiAtOC4yNCBoIC04LjQgdiAtMS4yMiBoIDkuNDYgeiIvPiYjeGE7JiN4YTs8cGF0aCBpZD0icGF0aDk1NjA3IiBpbmtzY2FwZTpjb25uZWN0b3ItY3VydmF0dXJlPSIwIiBzdHlsZT0iZmlsbDojYjhkNDMzO2ZpbGwtb3BhY2l0eTowLjUiIGQ9Im0gMTYuMyw0Mi45NiBoIDEuMDkgdiA4LjI0IGggOC4zNyB2IDEuMjIgSCAxNi4zIFoiLz4mI3hhOyYjeGE7PHBhdGggaWQ9InBhdGg5NTYxNSIgaW5rc2NhcGU6Y29ubmVjdG9yLWN1cnZhdHVyZT0iMCIgc3R5bGU9ImZpbGw6I2I4ZDQzMztmaWxsLW9wYWNpdHk6MC44IiBkPSJtIDM5LjI3LDUyLjQyIGggLTEuMTQgdiAtOC4yNCBoIC04LjM3IHYgLTEuMjIgaCA5LjUxIHoiLz4mI3hhOyYjeGE7PHBhdGggaWQ9InBhdGg5NTYyMyIgaW5rc2NhcGU6Y29ubmVjdG9yLWN1cnZhdHVyZT0iMCIgc3R5bGU9ImZpbGw6I2I4ZDQzMztmaWxsLW9wYWNpdHk6MC41IiBkPSJtIDI5Ljc2LDQyLjk2IGggMS4xNCB2IDguMjQgaCA4LjM3IHYgMS4yMiBoIC05LjUxIHoiLz4mI3hhOyYjeGE7PHBhdGggaWQ9InBhdGg5NTYzMSIgaW5rc2NhcGU6Y29ubmVjdG9yLWN1cnZhdHVyZT0iMCIgc3R5bGU9ImZpbGw6I2I4ZDQzMztmaWxsLW9wYWNpdHk6MC44IiBkPSJNIDI1Ljc2LDY1LjI1IEggMjQuNyB2IC04LjI3IGggLTguNCB2IC0xLjE5IGggOS40NiB6Ii8+JiN4YTsmI3hhOzxwYXRoIGlkPSJwYXRoOTU2MzkiIGlua3NjYXBlOmNvbm5lY3Rvci1jdXJ2YXR1cmU9IjAiIHN0eWxlPSJmaWxsOiNiOGQ0MzM7ZmlsbC1vcGFjaXR5OjAuNSIgZD0ibSAxNi4zLDU1Ljc5IGggMS4wOSB2IDguMjQgaCA4LjM3IHYgMS4yMiBIIDE2LjMgWiIvPiYjeGE7JiN4YTs8cGF0aCBpZD0icGF0aDk1NjQ3IiBpbmtzY2FwZTpjb25uZWN0b3ItY3VydmF0dXJlPSIwIiBzdHlsZT0iZmlsbDojYjhkNDMzO2ZpbGwtb3BhY2l0eTowLjgiIGQ9Im0gMzkuMjcsNjUuMjUgaCAtMS4xNCB2IC04LjI3IGggLTguMzcgdiAtMS4xOSBoIDkuNTEgeiIvPiYjeGE7JiN4YTs8cGF0aCBpZD0icGF0aDk1NjU1IiBpbmtzY2FwZTpjb25uZWN0b3ItY3VydmF0dXJlPSIwIiBzdHlsZT0iZmlsbDojYjhkNDMzO2ZpbGwtb3BhY2l0eTowLjUiIGQ9Im0gMjkuNzYsNTUuNzkgaCAxLjE0IHYgOC4yNCBoIDguMzcgdiAxLjIyIGggLTkuNTEgeiIvPiYjeGE7JiN4YTs8cGF0aCBpZD0icGF0aDk1NjYzIiBpbmtzY2FwZTpjb25uZWN0b3ItY3VydmF0dXJlPSIwIiBzdHlsZT0iZmlsbDojYjhkNDMzO2ZpbGwtb3BhY2l0eTowLjgiIGQ9Im0gNTIuNTUsNjUuMjUgaCAtMS4wOSB2IC04LjI3IGggLTguMzcgdiAtMS4xOSBoIDkuNDYgeiIvPiYjeGE7JiN4YTs8cGF0aCBpZD0icGF0aDk1NjcxIiBpbmtzY2FwZTpjb25uZWN0b3ItY3VydmF0dXJlPSIwIiBzdHlsZT0iZmlsbDojYjhkNDMzO2ZpbGwtb3BhY2l0eTowLjUiIGQ9Im0gNDMuMDksNTUuNzkgaCAxLjA5IHYgOC4yNCBoIDguMzcgdiAxLjIyIGggLTkuNDYgeiIvPiYjeGE7JiN4YTs8cGF0aCBpZD0icGF0aDk1Njc5IiBpbmtzY2FwZTpjb25uZWN0b3ItY3VydmF0dXJlPSIwIiBzdHlsZT0iZmlsbDojYjhkNDMzO2ZpbGwtb3BhY2l0eTowLjgiIGQ9Im0gMjUuMiwzOS42IGggLTEuNCB2IC0xLjA4IGwgOC4xOSwtOC4zOCBoIDEuMjcgdiAwLjk1IHoiLz4mI3hhOyYjeGE7PHBhdGggaWQ9InBhdGg5NTY4NyIgaW5rc2NhcGU6Y29ubmVjdG9yLWN1cnZhdHVyZT0iMCIgc3R5bGU9ImZpbGw6I2I4ZDQzMztmaWxsLW9wYWNpdHk6MC44IiBkPSJtIDMxLjE2LDUyLjQyIGggLTEuNCB2IC0xLjA4IGwgOC4yNywtOC4zOCBoIDEuMjQgdiAwLjk1IHoiLz4mI3hhOyYjeGE7PHBhdGggaWQ9InBhdGg5NTY5NSIgaW5rc2NhcGU6Y29ubmVjdG9yLWN1cnZhdHVyZT0iMCIgc3R5bGU9ImZpbGw6I2I4ZDQzMztmaWxsLW9wYWNpdHk6MC44IiBkPSJtIDE3LjcsNTIuNDIgaCAtMS40IHYgLTEuMDggbCA4LjE5LC04LjM4IGggMS4yNyB2IDAuOTUgeiIvPiYjeGE7JiN4YTs8cGF0aCBpZD0icGF0aDk1NzAzIiBpbmtzY2FwZTpjb25uZWN0b3ItY3VydmF0dXJlPSIwIiBzdHlsZT0iZmlsbDojYjhkNDMzO2ZpbGwtb3BhY2l0eTowLjgiIGQ9Im0gMTcuNyw2NS4yNSBoIC0xLjQgdiAtMS4wOCBsIDguMTksLTguMzggaCAxLjI3IHYgMC45NSB6Ii8+JiN4YTsmI3hhOzxwYXRoIGlkPSJwYXRoOTU3MTEiIGlua3NjYXBlOmNvbm5lY3Rvci1jdXJ2YXR1cmU9IjAiIHN0eWxlPSJmaWxsOiNiOGQ0MzM7ZmlsbC1vcGFjaXR5OjAuOCIgZD0ibSAzMS4xNiw2NS4yNSBoIC0xLjQgdiAtMS4wOCBsIDguMjcsLTguMzggaCAxLjI0IHYgMC45NSB6Ii8+JiN4YTsmI3hhOzxwYXRoIGlkPSJwYXRoOTU3MTkiIGlua3NjYXBlOmNvbm5lY3Rvci1jdXJ2YXR1cmU9IjAiIHN0eWxlPSJmaWxsOiNiOGQ0MzM7ZmlsbC1vcGFjaXR5OjAuOCIgZD0ibSA0NC40OSw2NS4yNSBoIC0xLjQgdiAtMS4wOCBsIDguMTksLTguMzggaCAxLjI3IHYgMC45NSB6Ii8+JiN4YTsmI3hhOzxwYXRoIGlkPSJwYXRoOTU3MjkiIGlua3NjYXBlOmNvbm5lY3Rvci1jdXJ2YXR1cmU9IjAiIHN0eWxlPSJmaWxsOiMzOTk5YzYiIGQ9Im0gNTYuMDUsNDcuMTUgdiA0MS4xOCBjIDAsNC4yNCA5LjU5LDcuNzQgMjEuMzksNy43NCBWIDQ3LjE1IFoiLz4mI3hhOyYjeGE7PHBhdGggaWQ9InBhdGg5NTczNyIgaW5rc2NhcGU6Y29ubmVjdG9yLWN1cnZhdHVyZT0iMCIgc3R5bGU9ImZpbGw6IzVhYjRkOSIgZD0ibSA3Ny4xMiw5Ni4xIGggMC4zMiBjIDExLjgyLDAgMjEuMzksLTMuNSAyMS4zOSwtNy43NCBWIDQ3LjE1IEggNzcuMTIgWiIvPiYjeGE7JiN4YTs8cGF0aCBpZD0icGF0aDk1NzQ1IiBpbmtzY2FwZTpjb25uZWN0b3ItY3VydmF0dXJlPSIwIiBzdHlsZT0iZmlsbDojZmZmZmZmIiBkPSJtIDk4LjgzLDQ3LjE1IGMgMCw0LjI0IC05LjYsNy43NCAtMjEuMzksNy43NCAtMTEuOCwwIC0yMS4zOSwtMy40NyAtMjEuMzksLTcuNzQgMCwtNC4yNiA5LjU5LC03Ljc0IDIxLjM5LC03Ljc0IDExLjc5LDAgMjEuMzksMy40MiAyMS4zOSw3Ljc0IHoiLz4mI3hhOyYjeGE7PHBhdGggaWQ9InBhdGg5NTc1MyIgaW5rc2NhcGU6Y29ubmVjdG9yLWN1cnZhdHVyZT0iMCIgc3R5bGU9ImZpbGw6IzdmYmI0MiIgZD0ibSA5NC40Niw0Ni43IGMgMCwyLjc4IC03LjYxLDUuMTQgLTE3LjAyLDUuMTQgLTkuNCwwIC0xNy4wMSwtMi4yOCAtMTcuMDEsLTUuMTQgMCwtMi43OCA3LjYxLC01LjE0IDE3LjAxLC01LjE0IDkuNDEsMCAxNy4wMiwyLjMgMTcuMDIsNS4xNCB6Ii8+JiN4YTsmI3hhOzxwYXRoIGlkPSJwYXRoOTU3NjEiIGlua3NjYXBlOmNvbm5lY3Rvci1jdXJ2YXR1cmU9IjAiIHN0eWxlPSJmaWxsOiNiOGQ0MzMiIGQ9Im0gOTAuOTEsNDkuODMgYyAyLjIyLC0wLjkgMy41NSwtMS45NiAzLjU1LC0zLjEgMCwtMi43OCAtNy42MSwtNS4xNCAtMTcuMDIsLTUuMTQgLTkuNCwwIC0xNy4wMSwyLjI4IC0xNy4wMSw1LjE0IDAsMS4yMiAxLjMzLDIuMjggMy41NSwzLjEgMy4xLC0xLjIyIDguMDEsLTEuOTYgMTMuNDYsLTEuOTYgNS40NiwtMC4wOCAxMC4zNCwwLjc0IDEzLjQ3LDEuOTYgeiIvPiYjeGE7PHBhdGggZD0ibSA2MS4zODEyMyw3Ni42ODA3MiB2IC0yLjkyIGMgMC41LDAuNDUgMS4wOSwwLjc3IDEuNzIsMS4wMSAwLjY0LDAuMTggMS4yNywwLjMyIDEuODMsMC4zMiAwLjM3LDAgMC42OSwtMC4wNiAwLjk1LC0wLjE0IDAuMjcsLTAuMDUgMC41MSwtMC4xMyAwLjY5LC0wLjI2IDAuMTksLTAuMTMgMC4zMiwtMC4yNyAwLjM3LC0wLjQ1IDAuMDYsLTAuMTkgMC4xNCwtMC4zMiAwLjE0LC0wLjUxIDAsLTAuMjYgLTAuMDYsLTAuNSAtMC4xOSwtMC42OSAtMC4xMywtMC4xOCAtMC4zMiwtMC4zNyAtMC41OCwtMC41OCAtMC4yNywtMC4xOCAtMC41OCwtMC4zMiAtMC45LC0wLjUgLTAuMzIsLTAuMTMgLTAuNjksLTAuMzIgLTEuMTQsLTAuNTEgLTEuMDEsLTAuNDUgLTEuNzgsLTAuOTUgLTIuMjgsLTEuNTEgLTAuNSwtMC42MyAtMC43NywtMS4zMiAtMC43NywtMi4yMiAwLC0wLjY5IDAuMTMsLTEuMjcgMC4zNywtMS43MiAwLjI3LC0wLjUxIDAuNjQsLTAuOTEgMS4wOSwtMS4yMiAwLjQ1LC0wLjMyIDEsLTAuNTkgMS42NCwtMC42OSAwLjY0LC0wLjE0IDEuMjcsLTAuMTkgMS45NiwtMC4xOSAwLjY5LDAgMS4yNywwLjA1IDEuNzgsMC4xMyAwLjUsMC4wNiAxLDAuMTkgMS40NiwwLjM3IHYgMi43MyBjIC0wLjE5LC0wLjEzIC0wLjQ2LC0wLjI2IC0wLjY5LC0wLjM3IC0wLjI0LC0wLjEgLTAuNTEsLTAuMTggLTAuNzcsLTAuMjYgLTAuMjcsLTAuMDUgLTAuNTksLTAuMTMgLTAuODIsLTAuMTkgLTAuMjcsLTAuMDUgLTAuNTEsLTAuMDUgLTAuNzcsLTAuMDUgLTAuMzIsMCAtMC42NCwwIC0wLjksMC4wNSAtMC4yNywwLjA2IC0wLjUxLDAuMTQgLTAuNjksMC4yNyAtMC4xOSwwLjEzIC0wLjMyLDAuMjYgLTAuNDUsMC4zNyAtMC4xNCwwLjE4IC0wLjE0LDAuMzIgLTAuMTQsMC41IDAsMC4xOSAwLjA2LDAuMzcgMC4xOSwwLjU5IDAuMTMsMC4xOCAwLjI2LDAuMzEgMC41LDAuNSAwLjE5LDAuMTMgMC40NSwwLjMyIDAuNzcsMC40NSAwLjMyLDAuMTMgMC42NCwwLjMyIDEuMDEsMC40NSAwLjUsMC4xOSAxLjAxLDAuNDUgMS40LDAuNjkgMC40NSwwLjI2IDAuNzcsMC41IDEuMDksMC44MiAwLjMyLDAuMzIgMC41LDAuNjQgMC42OSwxLjA5IDAuMTMsMC4zNyAwLjI2LDAuODIgMC4yNiwxLjQgMCwwLjY5IC0wLjEzLDEuMzMgLTAuMzcsMS44MyAtMC4yNiwwLjUgLTAuNjMsMC45IC0xLjE0LDEuMjIgLTAuNDUsMC4zMiAtMSwwLjUgLTEuNjQsMC42NCAtMC42NCwwLjEzIC0xLjI3LDAuMTggLTEuOTYsMC4xOCAtMC42OSwwIC0xLjQxLC0wLjA1IC0yLjA0LC0wLjE4IC0wLjY2LDAgLTEuMjIsLTAuMjIgLTEuNjcsLTAuNDUgeiIgc3R5bGU9ImZpbGw6I2ZmZmZmZiIgaW5rc2NhcGU6Y29ubmVjdG9yLWN1cnZhdHVyZT0iMCIgaWQ9InBhdGg5NTc3MSIvPiYjeGE7PHBhdGggZD0ibSA3Ny44MDc4Myw3Ny40NDM0IGMgLTEuODIsMCAtMy4zNiwtMC42MyAtNC41NSwtMS44MyAtMS4xNCwtMS4yMiAtMS43OCwtMi43OCAtMS43OCwtNC43NyAwLC0yLjA0IDAuNTgsLTMuNjggMS43OCwtNC45NSAxLjIxLC0xLjI4IDIuNzMsLTEuOTEgNC42OSwtMS45MSAxLjgzLDAgMy4zNiwwLjYzIDQuNSwxLjgzIDEuMTQsMS4xOSAxLjcyLDIuNzggMS43Miw0LjgyIDAsMi4wNCAtMC41OCwzLjY4IC0xLjc3LDQuOTYgLTAuMDUsMC4wNSAtMC4wNSwwLjA1IC0wLjEzLDAuMTMgLTAuMDYsMC4wNSAtMC4wNiwwLjA1IC0wLjE0LDAuMTMgbCAzLjMyLDMuMTggaCAtNC4xNCBsIC0xLjcyLC0xLjc3IGMgLTAuNDIsMC4xIC0xLjA2LDAuMTggLTEuNzgsMC4xOCB6IG0gMC4xNCwtMTAuOTIgYyAtMS4wMSwwIC0xLjgzLDAuMzcgLTIuNDcsMS4xNCAtMC42MywwLjc3IC0wLjksMS43OCAtMC45LDMuMDUgMCwxLjI3IDAuMzIsMi4yOCAwLjksMy4wNSAwLjY0LDAuNzcgMS40MSwxLjE0IDIuMzYsMS4xNCAxLjAxLDAgMS43OCwtMC4zNyAyLjQxLC0xLjA5IDAuNTksLTAuNzcgMC45LC0xLjc4IDAuOSwtMy4wNSAwLC0xLjMyIC0wLjMxLC0yLjQxIC0wLjksLTMuMTggLTAuNTMsLTAuNjkgLTEuMywtMS4wNiAtMi4zLC0xLjA2IHoiIHN0eWxlPSJmaWxsOiNmZmZmZmYiIGlua3NjYXBlOmNvbm5lY3Rvci1jdXJ2YXR1cmU9IjAiIGlkPSJwYXRoOTU3NzkiLz4mI3hhOzxwYXRoIGQ9Im0gOTQuMTM4ODMsNzcuMTc4MjEgaCAtNy43NCB2IC0xMy4wMSBoIDIuOTIgdiAxMC42IGggNC44MiB6IiBzdHlsZT0iZmlsbDojZmZmZmZmIiBpbmtzY2FwZTpjb25uZWN0b3ItY3VydmF0dXJlPSIwIiBpZD0icGF0aDk1Nzg3Ii8+JiN4YTs8L3N2Zz4=;" vertex="1" parent="1">
          <mxGeometry x="84.06" y="382.5" width="62.91" height="61" as="geometry" />
        </mxCell>
        <mxCell id="UGVQ1dfHeVU3jZcF55VB-34" style="edgeStyle=orthogonalEdgeStyle;rounded=0;orthogonalLoop=1;jettySize=auto;html=1;entryX=0.5;entryY=1;entryDx=0;entryDy=0;" edge="1" parent="1" source="UGVQ1dfHeVU3jZcF55VB-11" target="UGVQ1dfHeVU3jZcF55VB-7">
          <mxGeometry relative="1" as="geometry" />
        </mxCell>
        <mxCell id="UGVQ1dfHeVU3jZcF55VB-11" value="" style="sketch=0;pointerEvents=1;shadow=0;dashed=0;html=1;strokeColor=none;labelPosition=center;verticalLabelPosition=bottom;verticalAlign=top;align=center;fillColor=#515151;shape=mxgraph.mscae.system_center.central_administration_site_sql" vertex="1" parent="1">
          <mxGeometry x="284" y="691.5" width="41.73" height="45" as="geometry" />
        </mxCell>
        <mxCell id="UGVQ1dfHeVU3jZcF55VB-14" value="" style="shape=image;verticalLabelPosition=bottom;labelBackgroundColor=#ffffff;verticalAlign=top;aspect=fixed;imageAspect=0;image=data:image/svg+xml,PHN2ZyB4bWxuczpjYz0iaHR0cDovL2NyZWF0aXZlY29tbW9ucy5vcmcvbnMjIiB4bWxuczpkYz0iaHR0cDovL3B1cmwub3JnL2RjL2VsZW1lbnRzLzEuMS8iIHhtbG5zOmlua3NjYXBlPSJodHRwOi8vd3d3Lmlua3NjYXBlLm9yZy9uYW1lc3BhY2VzL2lua3NjYXBlIiB4bWxuczpyZGY9Imh0dHA6Ly93d3cudzMub3JnLzE5OTkvMDIvMjItcmRmLXN5bnRheC1ucyMiIHhtbG5zOnNvZGlwb2RpPSJodHRwOi8vc29kaXBvZGkuc291cmNlZm9yZ2UubmV0L0RURC9zb2RpcG9kaS0wLmR0ZCIgeG1sbnM6c3ZnPSJodHRwOi8vd3d3LnczLm9yZy8yMDAwL3N2ZyIgeG1sbnM9Imh0dHA6Ly93d3cudzMub3JnLzIwMDAvc3ZnIiB4bWxuczp4bGluaz0iaHR0cDovL3d3dy53My5vcmcvMTk5OS94bGluayIgdmVyc2lvbj0iMS4xIiBpZD0ic3ZnNTk2OTUiIGlua3NjYXBlOnZlcnNpb249IjAuOTIuMyAoMjQwNTU0NiwgMjAxOC0wMy0xMSkiIHNvZGlwb2RpOmRvY25hbWU9ImF6dXJlX3BvbGljeS5zdmciIHg9IjBweCIgeT0iMHB4IiB2aWV3Qm94PSIwIDAgNDEuODggNDYuNSIgc3R5bGU9ImVuYWJsZS1iYWNrZ3JvdW5kOm5ldyAwIDAgNDEuODggNDYuNTsiIHhtbDpzcGFjZT0icHJlc2VydmUiPiYjeGE7PHNvZGlwb2RpOm5hbWVkdmlldyBib3JkZXJjb2xvcj0iIzY2NjY2NiIgYm9yZGVyb3BhY2l0eT0iMSIgZml0LW1hcmdpbi1ib3R0b209IjAiIGZpdC1tYXJnaW4tbGVmdD0iMCIgZml0LW1hcmdpbi1yaWdodD0iMCIgZml0LW1hcmdpbi10b3A9IjAiIGdyaWR0b2xlcmFuY2U9IjEwIiBndWlkZXRvbGVyYW5jZT0iMTAiIGlkPSJuYW1lZHZpZXc1OTY5NyIgaW5rc2NhcGU6Y3VycmVudC1sYXllcj0ic3ZnNTk2OTUiIGlua3NjYXBlOmN4PSIyNS44NjIzMTciIGlua3NjYXBlOmN5PSIyOC43OTU0MTEiIGlua3NjYXBlOnBhZ2VvcGFjaXR5PSIwIiBpbmtzY2FwZTpwYWdlc2hhZG93PSIyIiBpbmtzY2FwZTp3aW5kb3ctaGVpZ2h0PSIxMDE3IiBpbmtzY2FwZTp3aW5kb3ctbWF4aW1pemVkPSIxIiBpbmtzY2FwZTp3aW5kb3ctd2lkdGg9IjE5MjAiIGlua3NjYXBlOndpbmRvdy14PSItOCIgaW5rc2NhcGU6d2luZG93LXk9Ii04IiBpbmtzY2FwZTp6b29tPSI5Ljg4ODAxODIiIG9iamVjdHRvbGVyYW5jZT0iMTAiIHBhZ2Vjb2xvcj0iI2ZmZmZmZiIgc2hvd2dyaWQ9ImZhbHNlIj4mI3hhOwk8L3NvZGlwb2RpOm5hbWVkdmlldz4mI3hhOzxnIGlkPSJnNTk2OTMiPiYjeGE7CTx0aXRsZSBpZD0idGl0bGU1OTY1MyI+UGFnZS0xPC90aXRsZT4mI3hhOwk8ZyBpZD0iZ3JvdXA1OTA3LTEiPiYjeGE7CQk8dGl0bGUgaWQ9InRpdGxlNTk2NTUiPkF6dXJlIFBvbGljeTwvdGl0bGU+JiN4YTsJCTxnIGlkPSJzaGFwZTU5MDgtMiIgdHJhbnNmb3JtPSJ0cmFuc2xhdGUoMTQuMTU5NiwtMTUuNDIwMSkiPiYjeGE7CQkJPHRpdGxlIGlkPSJ0aXRsZTU5NjU3Ij5TaGVldC41OTA4PC90aXRsZT4mI3hhOwkJCTxwYXRoIGlkPSJwYXRoNTk2NTkiIGlua3NjYXBlOmNvbm5lY3Rvci1jdXJ2YXR1cmU9IjAiIHN0eWxlPSJmaWxsOiM1OUI0RDk7IiBkPSJNMTMuNSwzOS43MmMwLDMuNzItMyw2Ljc4LTYuNzIsNi43OCAgICAgUzAsNDMuNDQsMCwzOS43MkMwLDM2LDMuMDYsMzMsNi43OCwzM1MxMy41LDM2LDEzLjUsMzkuNzJ6Ii8+JiN4YTsJCTwvZz4mI3hhOwkJPGcgaWQ9InNoYXBlNTkwOS00IiB0cmFuc2Zvcm09InRyYW5zbGF0ZSgyOC40MzkyLC0yNC45NjAyKSI+JiN4YTsJCQk8dGl0bGUgaWQ9InRpdGxlNTk2NjIiPlNoZWV0LjU5MDk8L3RpdGxlPiYjeGE7CQkJPHBhdGggaWQ9InBhdGg1OTY2NCIgaW5rc2NhcGU6Y29ubmVjdG9yLWN1cnZhdHVyZT0iMCIgc3R5bGU9ImZpbGw6IzU5QjREOTsiIGQ9Ik02Ljc4LDQzLjE0YzAsMS44Ni0xLjU2LDMuMzYtMy40MiwzLjM2ICAgICBTMCw0NSwwLDQzLjE0czEuNS0zLjM2LDMuMzYtMy4zNlM2Ljc4LDQxLjI4LDYuNzgsNDMuMTR6Ii8+JiN4YTsJCTwvZz4mI3hhOwkJPGcgaWQ9InNoYXBlNTkxMC02IiB0cmFuc2Zvcm09InRyYW5zbGF0ZSgyOC40MzkyLC0xMi42NjAxKSI+JiN4YTsJCQk8dGl0bGUgaWQ9InRpdGxlNTk2NjciPlNoZWV0LjU5MTA8L3RpdGxlPiYjeGE7CQkJPHBhdGggaWQ9InBhdGg1OTY2OSIgaW5rc2NhcGU6Y29ubmVjdG9yLWN1cnZhdHVyZT0iMCIgc3R5bGU9ImZpbGw6IzU5QjREOTsiIGQ9Ik02Ljc4LDQzLjA4YzAsMS44Ni0xLjU2LDMuNDItMy40MiwzLjQyICAgICBTMCw0NC45NCwwLDQzLjA4YzAtMS44NiwxLjUtMy4zNiwzLjM2LTMuMzZTNi43OCw0MS4yMiw2Ljc4LDQzLjA4eiIvPiYjeGE7CQk8L2c+JiN4YTsJCTxnIGlkPSJzaGFwZTU5MTEtOCIgdHJhbnNmb3JtPSJ0cmFuc2xhdGUoMzYuNTk5LC05LjA2MDA3KSI+JiN4YTsJCQk8dGl0bGUgaWQ9InRpdGxlNTk2NzIiPlNoZWV0LjU5MTE8L3RpdGxlPiYjeGE7CQkJPHBhdGggaWQ9InBhdGg1OTY3NCIgaW5rc2NhcGU6Y29ubmVjdG9yLWN1cnZhdHVyZT0iMCIgc3R5bGU9ImZpbGw6IzU5QjREOTsiIGQ9Ik01LjI4LDQzLjg2YzAsMS40NC0xLjIsMi42NC0yLjY0LDIuNjQgICAgIFMwLDQ1LjMsMCw0My44NnMxLjItMi42NCwyLjY0LTIuNjRTNS4yOCw0Mi40Miw1LjI4LDQzLjg2eiIvPiYjeGE7CQk8L2c+JiN4YTsJCTxnIGlkPSJzaGFwZTU5MTItMTAiIHRyYW5zZm9ybT0idHJhbnNsYXRlKDM2LjU5OSwtMzAuMDAwMikiPiYjeGE7CQkJPHRpdGxlIGlkPSJ0aXRsZTU5Njc3Ij5TaGVldC41OTEyPC90aXRsZT4mI3hhOwkJCTxwYXRoIGlkPSJwYXRoNTk2NzkiIGlua3NjYXBlOmNvbm5lY3Rvci1jdXJ2YXR1cmU9IjAiIHN0eWxlPSJmaWxsOiM1OUI0RDk7IiBkPSJNNS4yOCw0My44NmMwLDEuNDQtMS4yLDIuNjQtMi42NCwyLjY0ICAgICBTMCw0NS4zLDAsNDMuODZzMS4yLTIuNjQsMi42NC0yLjY0UzUuMjgsNDIuNDIsNS4yOCw0My44NnoiLz4mI3hhOwkJPC9nPiYjeGE7CQk8ZyBpZD0ic2hhcGU1OTEzLTEyIiB0cmFuc2Zvcm09InRyYW5zbGF0ZSgzNi41OTksLTE5LjU2MDIpIj4mI3hhOwkJCTx0aXRsZSBpZD0idGl0bGU1OTY4MiI+U2hlZXQuNTkxMzwvdGl0bGU+JiN4YTsJCQk8cGF0aCBpZD0icGF0aDU5Njg0IiBpbmtzY2FwZTpjb25uZWN0b3ItY3VydmF0dXJlPSIwIiBzdHlsZT0iZmlsbDojNTlCNEQ5OyIgZD0iTTUuMjgsNDMuODZjMCwxLjQ0LTEuMiwyLjY0LTIuNjQsMi42NCAgICAgUzAsNDUuMywwLDQzLjg2czEuMi0yLjY0LDIuNjQtMi42NFM1LjI4LDQyLjQyLDUuMjgsNDMuODZ6Ii8+JiN4YTsJCTwvZz4mI3hhOwkJPGcgaWQ9InNoYXBlNTkxNC0xNCI+JiN4YTsJCQk8dGl0bGUgaWQ9InRpdGxlNTk2ODciPlNoZWV0LjU5MTQ8L3RpdGxlPiYjeGE7CQkJPHBhdGggaWQ9InBhdGg1OTY4OSIgaW5rc2NhcGU6Y29ubmVjdG9yLWN1cnZhdHVyZT0iMCIgc3R5bGU9ImZpbGw6IzM5OTlDNjsiIGQ9Ik0zMC42LDM3Ljc0Yy0wLjM2LDAtMC43MiwwLjA2LTEuMDIsMC4yNGwwLDAgICAgIEwyMSw0Mi43OGwtMTcuMzQtOS42di0xOS4yTDIxLDQuMzhsOC41OCw0LjhsMCwwbDAsMGMyLjE2LDEuMjYsNC4wMi0xLjk4LDEuODYtMy4yNGwwLDBMMjEsMEwwLDExLjgydjIzLjUyTDIwLjk0LDQ2LjUgICAgIGwxMC41Ni01LjIybDAsMGwwLDBDMzMuMTgsNDAuMzgsMzIuNTIsMzcuNzQsMzAuNiwzNy43NHoiLz4mI3hhOwkJPC9nPiYjeGE7CTwvZz4mI3hhOzwvZz4mI3hhOzwvc3ZnPg==;" vertex="1" parent="1">
          <mxGeometry x="699.99" y="527" width="29.49" height="33" as="geometry" />
        </mxCell>
        <mxCell id="UGVQ1dfHeVU3jZcF55VB-27" value="" style="edgeStyle=orthogonalEdgeStyle;rounded=0;orthogonalLoop=1;jettySize=auto;html=1;" edge="1" parent="1" source="UGVQ1dfHeVU3jZcF55VB-15" target="UGVQ1dfHeVU3jZcF55VB-16">
          <mxGeometry relative="1" as="geometry" />
        </mxCell>
        <mxCell id="UGVQ1dfHeVU3jZcF55VB-15" value="" style="shape=image;verticalLabelPosition=bottom;labelBackgroundColor=#ffffff;verticalAlign=top;aspect=fixed;imageAspect=0;image=data:image/svg+xml,PHN2ZyB4bWxuczpjYz0iaHR0cDovL2NyZWF0aXZlY29tbW9ucy5vcmcvbnMjIiB4bWxuczpkYz0iaHR0cDovL3B1cmwub3JnL2RjL2VsZW1lbnRzLzEuMS8iIHhtbG5zOmlua3NjYXBlPSJodHRwOi8vd3d3Lmlua3NjYXBlLm9yZy9uYW1lc3BhY2VzL2lua3NjYXBlIiB4bWxuczpyZGY9Imh0dHA6Ly93d3cudzMub3JnLzE5OTkvMDIvMjItcmRmLXN5bnRheC1ucyMiIHhtbG5zOnNvZGlwb2RpPSJodHRwOi8vc29kaXBvZGkuc291cmNlZm9yZ2UubmV0L0RURC9zb2RpcG9kaS0wLmR0ZCIgeG1sbnM6c3ZnPSJodHRwOi8vd3d3LnczLm9yZy8yMDAwL3N2ZyIgeG1sbnM9Imh0dHA6Ly93d3cudzMub3JnLzIwMDAvc3ZnIiB4bWxuczp4bGluaz0iaHR0cDovL3d3dy53My5vcmcvMTk5OS94bGluayIgdmVyc2lvbj0iMS4xIiBpZD0ic3ZnODAxNTgiIGlua3NjYXBlOnZlcnNpb249IjAuOTIuMyAoMjQwNTU0NiwgMjAxOC0wMy0xMSkiIHNvZGlwb2RpOmRvY25hbWU9ImV2ZW50X2h1YnMuc3ZnIiB4PSIwcHgiIHk9IjBweCIgdmlld0JveD0iMCAwIDIzLjQgMjQuMDQiIHN0eWxlPSJlbmFibGUtYmFja2dyb3VuZDpuZXcgMCAwIDIzLjQgMjQuMDQ7IiB4bWw6c3BhY2U9InByZXNlcnZlIj4mI3hhOzxzb2RpcG9kaTpuYW1lZHZpZXcgYm9yZGVyY29sb3I9IiM2NjY2NjYiIGJvcmRlcm9wYWNpdHk9IjEiIGZpdC1tYXJnaW4tYm90dG9tPSIwIiBmaXQtbWFyZ2luLWxlZnQ9IjAiIGZpdC1tYXJnaW4tcmlnaHQ9IjAiIGZpdC1tYXJnaW4tdG9wPSIwIiBncmlkdG9sZXJhbmNlPSIxMCIgZ3VpZGV0b2xlcmFuY2U9IjEwIiBpZD0ibmFtZWR2aWV3ODAxNjAiIGlua3NjYXBlOmN1cnJlbnQtbGF5ZXI9InN2ZzgwMTU4IiBpbmtzY2FwZTpjeD0iMTIuMjIxNzY5IiBpbmtzY2FwZTpjeT0iMTUuMjI5NTkiIGlua3NjYXBlOnBhZ2VvcGFjaXR5PSIwIiBpbmtzY2FwZTpwYWdlc2hhZG93PSIyIiBpbmtzY2FwZTp3aW5kb3ctaGVpZ2h0PSIxMDE3IiBpbmtzY2FwZTp3aW5kb3ctbWF4aW1pemVkPSIxIiBpbmtzY2FwZTp3aW5kb3ctd2lkdGg9IjE5MjAiIGlua3NjYXBlOndpbmRvdy14PSItOCIgaW5rc2NhcGU6d2luZG93LXk9Ii04IiBpbmtzY2FwZTp6b29tPSIxNy45Njc2ODkiIG9iamVjdHRvbGVyYW5jZT0iMTAiIHBhZ2Vjb2xvcj0iI2ZmZmZmZiIgc2hvd2dyaWQ9ImZhbHNlIj4mI3hhOwk8L3NvZGlwb2RpOm5hbWVkdmlldz4mI3hhOzxnIGlkPSJnODAxNTYiIHRyYW5zZm9ybT0idHJhbnNsYXRlKC0wLjc3Mjc3NTk3LC0wLjc3NDk3MykiPiYjeGE7CTx0aXRsZSBpZD0idGl0bGU4MDExMSI+UGFnZS0xPC90aXRsZT4mI3hhOwk8ZyBpZD0iZ3JvdXA0NDYxLTEiIHRyYW5zZm9ybT0idHJhbnNsYXRlKDAuNzcyNzI3LC0wLjc3MjcyNykiPiYjeGE7CQk8dGl0bGUgaWQ9InRpdGxlODAxMTMiPkV2ZW50IGh1YnMuNDQwPC90aXRsZT4mI3hhOwkJPGcgaWQ9InNoYXBlNDQ2Mi0yIiB0cmFuc2Zvcm09InRyYW5zbGF0ZSgxMC41MTU5LC0xMi44MTk5KSI+JiN4YTsJCQk8dGl0bGUgaWQ9InRpdGxlODAxMTUiPlNoZWV0LjQ0NjI8L3RpdGxlPiYjeGE7CQkJPHBhdGggaWQ9InBhdGg4MDExNyIgaW5rc2NhcGU6Y29ubmVjdG9yLWN1cnZhdHVyZT0iMCIgc3R5bGU9ImZpbGw6I0I4RDQzMjsiIGQ9Ik0zLjk2LDI1LjE4YzAsMC4yMy0wLjE4LDAuNDEtMC40MiwwLjQxSDAuNDEgICAgIEMwLjE4LDI1LjU5LDAsMjUuNDEsMCwyNS4xOHYtMi4zMWMwLTAuMjMsMC4xOC0wLjQxLDAuNDEtMC40MWgzLjEzYzAuMjQsMCwwLjQyLDAuMTgsMC40MiwwLjQxTDMuOTYsMjUuMTh6Ii8+JiN4YTsJCTwvZz4mI3hhOwkJPGcgaWQ9InNoYXBlNDQ2My00IiB0cmFuc2Zvcm09InRyYW5zbGF0ZSgxNi4xODc0LC0xMC4zOTc3KSI+JiN4YTsJCQk8dGl0bGUgaWQ9InRpdGxlODAxMjAiPlNoZWV0LjQ0NjM8L3RpdGxlPiYjeGE7CQkJPHBhdGggaWQ9InBhdGg4MDEyMiIgaW5rc2NhcGU6Y29ubmVjdG9yLWN1cnZhdHVyZT0iMCIgc3R5bGU9ImZpbGw6I0I4RDQzMjsiIGQ9Ik0zLjksMjUuMThjMCwwLjIzLTAuMTgsMC40MS0wLjQxLDAuNDFIMC40MSAgICAgQzAuMTgsMjUuNTksMCwyNS40MSwwLDI1LjE4di0yLjMxYzAtMC4yMywwLjE4LTAuNDEsMC40MS0wLjQxaDMuMTNjMC4yNCwwLDAuNDIsMC4xOCwwLjQyLDAuNDF2Mi4zMUgzLjl6Ii8+JiN4YTsJCTwvZz4mI3hhOwkJPGcgaWQ9InNoYXBlNDQ2NC02IiB0cmFuc2Zvcm09InRyYW5zbGF0ZSgxMC41MTU5LC03Ljk3NTUzKSI+JiN4YTsJCQk8dGl0bGUgaWQ9InRpdGxlODAxMjUiPlNoZWV0LjQ0NjQ8L3RpdGxlPiYjeGE7CQkJPHBhdGggaWQ9InBhdGg4MDEyNyIgaW5rc2NhcGU6Y29ubmVjdG9yLWN1cnZhdHVyZT0iMCIgc3R5bGU9ImZpbGw6I0I4RDQzMjsiIGQ9Ik0zLjk2LDI1LjE4YzAsMC4yMy0wLjE4LDAuNDEtMC40MiwwLjQxSDAuNDEgICAgIEMwLjE4LDI1LjU5LDAsMjUuNDEsMCwyNS4xOHYtMi4zMWMwLTAuMjMsMC4xOC0wLjQxLDAuNDEtMC40MWgzLjEzYzAuMjQsMCwwLjQyLDAuMTgsMC40MiwwLjQxTDMuOTYsMjUuMTh6Ii8+JiN4YTsJCTwvZz4mI3hhOwkJPGcgaWQ9InNoYXBlNDQ2NS04IiB0cmFuc2Zvcm09InRyYW5zbGF0ZSg0Ljg0NDQsLTE1LjI0MjEpIj4mI3hhOwkJCTx0aXRsZSBpZD0idGl0bGU4MDEzMCI+U2hlZXQuNDQ2NTwvdGl0bGU+JiN4YTsJCQk8cGF0aCBpZD0icGF0aDgwMTMyIiBpbmtzY2FwZTpjb25uZWN0b3ItY3VydmF0dXJlPSIwIiBzdHlsZT0iZmlsbDojQjhENDMyOyIgZD0iTTQuMDIsMjUuMThjMCwwLjIzLTAuMTgsMC40MS0wLjQyLDAuNDFIMC40MSAgICAgQzAuMTgsMjUuNTksMCwyNS40MSwwLDI1LjE4di0yLjQzYzAtMC4yMywwLjE4LTAuNDEsMC40MS0wLjQxaDMuMTNjMC4zLDAsMC40OCwwLjE4LDAuNDgsMC40MVYyNS4xOHoiLz4mI3hhOwkJPC9nPiYjeGE7CQk8ZyBpZD0ic2hhcGU0NDY2LTEwIiB0cmFuc2Zvcm09InRyYW5zbGF0ZSgwLC0xOC40MzIzKSI+JiN4YTsJCQk8dGl0bGUgaWQ9InRpdGxlODAxMzUiPlNoZWV0LjQ0NjY8L3RpdGxlPiYjeGE7CQkJPHBhdGggaWQ9InBhdGg4MDEzNyIgaW5rc2NhcGU6Y29ubmVjdG9yLWN1cnZhdHVyZT0iMCIgc3R5bGU9ImZpbGw6IzAwNzJDNjsiIGQ9Ik0yMi45MiwxOS45OGgtMC4wNmgtMi4zSDIuODRoLTEuNkgwLjQxICAgICBDMC4xOCwxOS45OCwwLDIwLjE2LDAsMjAuMzl2NC43OWMwLDAuMjMsMC4xOCwwLjQxLDAuNDEsMC40MWgyLjQzYzAuMjMsMCwwLjQxLTAuMTgsMC40MS0wLjQxdi0yLjAxaDE2Ljg0djIuMDEgICAgIGMwLDAuMjMsMC4xNywwLjQxLDAuNDcsMC40MWgyLjNjMC4yNCwwLDAuNDItMC4xOCwwLjQyLTAuNDF2LTIuNDN2LTIuMzZDMjMuMzQsMjAuMTYsMjMuMTYsMTkuOTgsMjIuOTIsMTkuOTh6Ii8+JiN4YTsJCTwvZz4mI3hhOwkJPGcgaWQ9InNoYXBlNDQ2Ny0xMiIgdHJhbnNmb3JtPSJ0cmFuc2xhdGUoMC4xMTgxNTYpIj4mI3hhOwkJCTx0aXRsZSBpZD0idGl0bGU4MDE0MCI+U2hlZXQuNDQ2NzwvdGl0bGU+JiN4YTsJCQk8cGF0aCBpZD0icGF0aDgwMTQyIiBpbmtzY2FwZTpjb25uZWN0b3ItY3VydmF0dXJlPSIwIiBzdHlsZT0iZmlsbDojMDA3MkM2OyIgZD0iTTIyLjgsMjAuMDRoLTIuM2MtMC4yNCwwLTAuNDEsMC4xNy0wLjQxLDAuNDEgICAgIHYxLjk1SDMuMTl2LTIuMDFjMC0wLjIzLTAuMTgtMC40MS0wLjQ3LTAuNDFIMC40MUMwLjE4LDE5Ljk4LDAsMjAuMTYsMCwyMC40NXY0LjczYzAsMC4yMywwLjE4LDAuNDEsMC40MSwwLjQxaDAuODNoMS42aDE3LjcyICAgICBoMi4yNGgwLjA2YzAuMjQsMCwwLjQyLTAuMTgsMC40Mi0wLjQxdi00LjczQzIzLjIyLDIwLjIxLDIzLjA0LDIwLjA0LDIyLjgsMjAuMDR6Ii8+JiN4YTsJCTwvZz4mI3hhOwkJPGcgaWQ9InNoYXBlNDQ2OC0xNCIgdHJhbnNmb3JtPSJ0cmFuc2xhdGUoNC45MDM0NywtMTAuNDU2OCkiPiYjeGE7CQkJPHRpdGxlIGlkPSJ0aXRsZTgwMTQ1Ij5TaGVldC40NDY4PC90aXRsZT4mI3hhOwkJCTxwYXRoIGlkPSJwYXRoODAxNDciIGlua3NjYXBlOmNvbm5lY3Rvci1jdXJ2YXR1cmU9IjAiIHN0eWxlPSJmaWxsOiNCOEQ0MzI7IiBkPSJNMy45NiwyNS4xOGMwLDAuMjMtMC4xOCwwLjQxLTAuNDIsMC40MUgwLjQxICAgICBDMC4xOCwyNS41OSwwLDI1LjQxLDAsMjUuMTh2LTIuMzFjMC0wLjIzLDAuMTgtMC40MSwwLjQxLTAuNDFoMy4xM2MwLjI0LDAsMC40MiwwLjE4LDAuNDIsMC40MUwzLjk2LDI1LjE4eiIvPiYjeGE7CQk8L2c+JiN4YTsJCTxnIGlkPSJzaGFwZTQ0NjktMTYiIHRyYW5zZm9ybT0idHJhbnNsYXRlKDQuODQ0NCwtNS42MTI0MSkiPiYjeGE7CQkJPHRpdGxlIGlkPSJ0aXRsZTgwMTUwIj5TaGVldC40NDY5PC90aXRsZT4mI3hhOwkJCTxwYXRoIGlkPSJwYXRoODAxNTIiIGlua3NjYXBlOmNvbm5lY3Rvci1jdXJ2YXR1cmU9IjAiIHN0eWxlPSJmaWxsOiNCOEQ0MzI7IiBkPSJNMy45NiwyNS4xOGMwLDAuMjMtMC4xOCwwLjQxLTAuNDIsMC40MUgwLjQxICAgICBDMC4xOCwyNS41OSwwLDI1LjQxLDAsMjUuMTh2LTIuMzFjMC0wLjIzLDAuMTgtMC40MSwwLjQxLTAuNDFoMy4xM2MwLjI0LDAsMC40MiwwLjE4LDAuNDIsMC40MUwzLjk2LDI1LjE4eiIvPiYjeGE7CQk8L2c+JiN4YTsJPC9nPiYjeGE7PC9nPiYjeGE7PC9zdmc+;" vertex="1" parent="1">
          <mxGeometry x="70.99999999999999" y="546.5" width="47.92" height="50" as="geometry" />
        </mxCell>
        <mxCell id="UGVQ1dfHeVU3jZcF55VB-16" value="" style="shape=image;verticalLabelPosition=bottom;labelBackgroundColor=#ffffff;verticalAlign=top;aspect=fixed;imageAspect=0;image=data:image/svg+xml,PHN2ZyB4bWxuczpjYz0iaHR0cDovL2NyZWF0aXZlY29tbW9ucy5vcmcvbnMjIiB4bWxuczpkYz0iaHR0cDovL3B1cmwub3JnL2RjL2VsZW1lbnRzLzEuMS8iIHhtbG5zOmlua3NjYXBlPSJodHRwOi8vd3d3Lmlua3NjYXBlLm9yZy9uYW1lc3BhY2VzL2lua3NjYXBlIiB4bWxuczpyZGY9Imh0dHA6Ly93d3cudzMub3JnLzE5OTkvMDIvMjItcmRmLXN5bnRheC1ucyMiIHhtbG5zOnNvZGlwb2RpPSJodHRwOi8vc29kaXBvZGkuc291cmNlZm9yZ2UubmV0L0RURC9zb2RpcG9kaS0wLmR0ZCIgeG1sbnM6c3ZnPSJodHRwOi8vd3d3LnczLm9yZy8yMDAwL3N2ZyIgeG1sbnM9Imh0dHA6Ly93d3cudzMub3JnLzIwMDAvc3ZnIiB4bWxuczp4bGluaz0iaHR0cDovL3d3dy53My5vcmcvMTk5OS94bGluayIgdmVyc2lvbj0iMS4xIiBpZD0ic3ZnNzQzMTIiIGlua3NjYXBlOnZlcnNpb249IjAuOTIuMyAoMjQwNTU0NiwgMjAxOC0wMy0xMSkiIHNvZGlwb2RpOmRvY25hbWU9ImNvc21vZGIuc3ZnIiB4PSIwcHgiIHk9IjBweCIgdmlld0JveD0iMCAwIDM3LjQ3IDM0LjUxIiBzdHlsZT0iZW5hYmxlLWJhY2tncm91bmQ6bmV3IDAgMCAzNy40NyAzNC41MTsiIHhtbDpzcGFjZT0icHJlc2VydmUiPiYjeGE7PHNvZGlwb2RpOm5hbWVkdmlldyBib3JkZXJjb2xvcj0iIzY2NjY2NiIgYm9yZGVyb3BhY2l0eT0iMSIgZml0LW1hcmdpbi1ib3R0b209IjAiIGZpdC1tYXJnaW4tbGVmdD0iMCIgZml0LW1hcmdpbi1yaWdodD0iMCIgZml0LW1hcmdpbi10b3A9IjAiIGdyaWR0b2xlcmFuY2U9IjEwIiBndWlkZXRvbGVyYW5jZT0iMTAiIGlkPSJuYW1lZHZpZXc3NDMxNCIgaW5rc2NhcGU6Y3VycmVudC1sYXllcj0ic3ZnNzQzMTIiIGlua3NjYXBlOmN4PSIzNi4xMzQwNTciIGlua3NjYXBlOmN5PSIyMS44MTg5OSIgaW5rc2NhcGU6cGFnZW9wYWNpdHk9IjAiIGlua3NjYXBlOnBhZ2VzaGFkb3c9IjIiIGlua3NjYXBlOndpbmRvdy1oZWlnaHQ9IjEwMTciIGlua3NjYXBlOndpbmRvdy1tYXhpbWl6ZWQ9IjEiIGlua3NjYXBlOndpbmRvdy13aWR0aD0iMTkyMCIgaW5rc2NhcGU6d2luZG93LXg9Ii04IiBpbmtzY2FwZTp3aW5kb3cteT0iLTgiIGlua3NjYXBlOnpvb209IjEyLjc3MjExNiIgb2JqZWN0dG9sZXJhbmNlPSIxMCIgcGFnZWNvbG9yPSIjZmZmZmZmIiBzaG93Z3JpZD0iZmFsc2UiPiYjeGE7CTwvc29kaXBvZGk6bmFtZWR2aWV3PiYjeGE7PGcgaWQ9Imc3NDMxMCIgdHJhbnNmb3JtPSJ0cmFuc2xhdGUoLTAuNzUwMDMzMjMsLTAuNzQ1KSI+JiN4YTsJPHRpdGxlIGlkPSJ0aXRsZTc0MjcwIj5QYWdlLTE8L3RpdGxlPiYjeGE7CTxnIGlkPSJncm91cDQ4ODUtMSIgdHJhbnNmb3JtPSJ0cmFuc2xhdGUoMC4yMjUsLTAuNzUpIj4mI3hhOwkJPHRpdGxlIGlkPSJ0aXRsZTc0MjcyIj5Db3NtbyBEQjwvdGl0bGU+JiN4YTsJCTxnIGlkPSJzaGFwZTQ4ODYtMiIgdHJhbnNmb3JtPSJ0cmFuc2xhdGUoNS43NzUsLTIuNTUpIj4mI3hhOwkJCTx0aXRsZSBpZD0idGl0bGU3NDI3NCI+U2hlZXQuNDg4NjwvdGl0bGU+JiN4YTsJCQk8cGF0aCBpZD0icGF0aDc0Mjc2IiBpbmtzY2FwZTpjb25uZWN0b3ItY3VydmF0dXJlPSIwIiBzdHlsZT0iZmlsbDojNTlCNEQ5OyIgZD0iTTI1LjczLDE5LjVjMS41Nyw2LjY4LTIuNDgsMTMuMzUtOS4xNSwxNC45MyAgICAgQzkuOSwzNiwzLjMsMzIuMDMsMS42NSwyNS4zNUMwLDE4LjY4LDQuMTMsMTIsMTAuOCwxMC40M2wwLDBDMTcuNCw4Ljc4LDI0LjA4LDEyLjgzLDI1LjczLDE5LjVMMjUuNzMsMTkuNXoiLz4mI3hhOwkJPC9nPiYjeGE7CQk8ZyBpZD0ic2hhcGU0ODg3LTQiIHRyYW5zZm9ybT0idHJhbnNsYXRlKDYuNiwtNy44NzUpIj4mI3hhOwkJCTx0aXRsZSBpZD0idGl0bGU3NDI3OSI+U2hlZXQuNDg4NzwvdGl0bGU+JiN4YTsJCQk8cGF0aCBpZD0icGF0aDc0MjgxIiBpbmtzY2FwZTpjb25uZWN0b3ItY3VydmF0dXJlPSIwIiBzdHlsZT0iZmlsbDojRkZGRkZGO2ZpbGwtb3BhY2l0eTowLjU7IiBkPSJNMTEuMSwzMi43ICAgICBjMC0xLjgtMS41LTMuMy0zLjMtMy4zbDAsMEg3LjI4YzAuNDUtMS43Mi0wLjY4LTMuNTItMi40LTMuOTdjLTAuMjMtMC4wOC0wLjUzLTAuMDgtMC44My0wLjA4aC0zLjMgICAgIGMtMC43NSwzLjgzLDAuMzgsNy43MywzLDEwLjU4aDQuMTNDOS42OCwzNiwxMS4xLDM0LjU4LDExLjEsMzIuN0wxMS4xLDMyLjd6Ii8+JiN4YTsJCTwvZz4mI3hhOwkJPGcgaWQ9InNoYXBlNDg4OC02IiB0cmFuc2Zvcm09InRyYW5zbGF0ZSgxNy4wMjUsLTE3LjI1KSI+JiN4YTsJCQk8dGl0bGUgaWQ9InRpdGxlNzQyODQiPlNoZWV0LjQ4ODg8L3RpdGxlPiYjeGE7CQkJPHBhdGggaWQ9InBhdGg3NDI4NiIgaW5rc2NhcGU6Y29ubmVjdG9yLWN1cnZhdHVyZT0iMCIgc3R5bGU9ImZpbGw6I0ZGRkZGRjtmaWxsLW9wYWNpdHk6MC41OyIgZD0iTTQuOCwyOC41ICAgICBjMCwwLjIzLDAsMC4zOCwwLjA3LDAuNkgzLjQ1QzEuNTcsMjkuMSwwLDMwLjYsMCwzMi41NVMxLjUsMzYsMy40NSwzNmgxMS4zMkMxNC40LDMxLjgsMTIsMjguMiw4LjQsMjYuMjVINy4wNSAgICAgQzUuNzcsMjYuMjUsNC44LDI3LjIzLDQuOCwyOC41eiIvPiYjeGE7CQk8L2c+JiN4YTsJCTxnIGlkPSJzaGFwZTQ4ODktOCIgdHJhbnNmb3JtPSJ0cmFuc2xhdGUoMjAuMzI1LC01LjMyNSkiPiYjeGE7CQkJPHRpdGxlIGlkPSJ0aXRsZTc0Mjg5Ij5TaGVldC40ODg5PC90aXRsZT4mI3hhOwkJCTxwYXRoIGlkPSJwYXRoNzQyOTEiIGlua3NjYXBlOmNvbm5lY3Rvci1jdXJ2YXR1cmU9IjAiIHN0eWxlPSJmaWxsOiNGRkZGRkY7ZmlsbC1vcGFjaXR5OjAuNTsiIGQ9Ik0xMS40OCwyNi40OEg0LjczICAgICBjLTEuNSwwLTIuNzgsMS4yLTIuNzgsMi43N2MwLDAuNDUsMC4xNSwwLjksMC4zLDEuMzVjLTEuNSwwLjQ1LTIuMjUsMi4wMy0xLjgsMy40NUMwLjgzLDM1LjI1LDEuODgsMzYsMy4xNSwzNmgxLjggICAgIEM4LjU1LDM0LjEzLDExLjAzLDMwLjUzLDExLjQ4LDI2LjQ4eiIvPiYjeGE7CQk8L2c+JiN4YTsJCTxnIGlkPSJzaGFwZTQ4OTAtMTAiIHRyYW5zZm9ybT0idHJhbnNsYXRlKDAuNTI1LC0yNC4zNzUpIj4mI3hhOwkJCTx0aXRsZSBpZD0idGl0bGU3NDI5NCI+U2hlZXQuNDg5MDwvdGl0bGU+JiN4YTsJCQk8cGF0aCBpZD0icGF0aDc0Mjk2IiBpbmtzY2FwZTpjb25uZWN0b3ItY3VydmF0dXJlPSIwIiBzdHlsZT0iZmlsbDojQjhENDMyOyIgZD0iTTUuMSwzNmMtMC4yMiwwLTAuMzctMC4xNS0wLjM3LTAuMzcgICAgIGMwLTIuNC0xLjk1LTQuMzUtNC4zNS00LjM1QzAuMTUsMzEuMzUsMCwzMS4xMywwLDMwLjk4czAuMTUtMC4zOCwwLjM4LTAuMzhjMi40LDAsNC4zNS0xLjk1LDQuMzUtNC4zNSAgICAgYzAtMC4yMywwLjE1LTAuMzgsMC4zNy0wLjM4YzAuMjMsMCwwLjM4LDAuMTUsMC4zOCwwLjM4YzAsMi40LDEuOTUsNC4zNSw0LjM1LDQuMzVjMC4yMiwwLDAuMzcsMC4xNSwwLjM3LDAuMzggICAgIGMwLDAuMjItMC4xNSwwLjM3LTAuMzcsMC4zN2MtMi40LDAtNC4zNSwxLjk1LTQuMzUsNC4zNUM1LjQ4LDM1Ljg1LDUuMzMsMzYsNS4xLDM2eiIvPiYjeGE7CQk8L2c+JiN4YTsJCTxnIGlkPSJzaGFwZTQ4OTEtMTIiIHRyYW5zZm9ybT0idHJhbnNsYXRlKDI5LjI1KSI+JiN4YTsJCQk8dGl0bGUgaWQ9InRpdGxlNzQyOTkiPlNoZWV0LjQ4OTE8L3RpdGxlPiYjeGE7CQkJPHBhdGggaWQ9InBhdGg3NDMwMSIgaW5rc2NhcGU6Y29ubmVjdG9yLWN1cnZhdHVyZT0iMCIgc3R5bGU9ImZpbGw6IzI2QkNFRTsiIGQ9Ik0zLjA3LDM2Yy0wLjE1LDAtMC4yMi0wLjA3LTAuMjItMC4yMiAgICAgYzAtMS40My0xLjItMi41NS0yLjYzLTIuNTVDMC4wNywzMy4yMywwLDMzLjE1LDAsMzNzMC4wNy0wLjIyLDAuMjItMC4yMmwwLDBjMS40MywwLDIuNTUtMS4xMywyLjYzLTIuNTUgICAgIGMwLTAuMTUsMC4wNy0wLjIzLDAuMjItMC4yM3MwLjIzLDAuMDgsMC4yMywwLjIzYzAsMS40MiwxLjIsMi41NSwyLjYyLDIuNTVjMC4xNSwwLDAuMjMsMC4wNywwLjIzLDAuMjJzLTAuMDgsMC4yMy0wLjIzLDAuMjMgICAgIGwwLDBjLTEuNDIsMC0yLjU1LDEuMTItMi42MiwyLjU1QzMuMywzNS44NSwzLjIyLDM2LDMuMDcsMzZDMy4wNywzNiwzLjA3LDM2LDMuMDcsMzZ6Ii8+JiN4YTsJCTwvZz4mI3hhOwkJPGcgaWQ9InNoYXBlNDg5Mi0xNCIgdHJhbnNmb3JtPSJ0cmFuc2xhdGUoMCwtMy4zNzUpIj4mI3hhOwkJCTx0aXRsZSBpZD0idGl0bGU3NDMwNCI+U2hlZXQuNDg5MjwvdGl0bGU+JiN4YTsJCQk8cGF0aCBpZD0icGF0aDc0MzA2IiBpbmtzY2FwZTpjb25uZWN0b3ItY3VydmF0dXJlPSIwIiBzdHlsZT0iZmlsbDojMEYwRjBGOyIgZD0iTTM3LjUsMTIuMTVjLTEuMi0xLjk1LTQuMTMtMi40LTguNjMtMS4yNyAgICAgYy0xLjM1LDAuMzctMi43NywwLjc1LTQuMDUsMS4yN2MwLjgzLDAuNDUsMS42NSwwLjksMi40LDEuNWMwLjc1LTAuMjIsMS41LTAuNDUsMi4xOC0wLjY3YzEuMi0wLjMsMi40LTAuNDUsMy42LTAuNTMgICAgIGMxLjQyLDAsMi4yNSwwLjM4LDIuNTUsMC44M2MwLjQ1LDAuNzUsMCwyLjYyLTIuNTUsNS42MmMtMC40NSwwLjUzLTAuOTgsMS4wNS0xLjUsMS41OGMtMi44NSwyLjctNS45Myw1LjEtOS4zLDcuMTIgICAgIGMtMy4zNywyLjEtNi45LDMuODMtMTAuNjUsNS4wM2MtNC41LDEuNDItNy41NywxLjQyLTguMjUsMC4zYy0wLjY4LTEuMTMsMC42OC0zLjksNC4wNS03LjJjLTAuMjMtMC45OC0wLjMtMS45NS0wLjMtMi44NSAgICAgYy01LjMyLDQuOC03LjA1LDktNS43LDExLjI1QzIuMSwzNS4zMywzLjY3LDM2LDUuOTIsMzZjMi43LTAuMTUsNS40LTAuNjcsNy45NS0xLjcyYzMuMy0xLjI4LDYuNDUtMi44NSw5LjM4LTQuNzMgICAgIGMzLTEuOCw1Ljg1LTMuOSw4LjQ3LTYuM2MxLjA1LTAuOSwyLjAzLTEuODcsMi45My0yLjkyQzM3LjcyLDE2Ljg4LDM4LjcsMTQuMDMsMzcuNSwxMi4xNXoiLz4mI3hhOwkJPC9nPiYjeGE7CTwvZz4mI3hhOzwvZz4mI3hhOzwvc3ZnPg==;" vertex="1" parent="1">
          <mxGeometry x="175.0000000000001" y="554" width="37" height="35" as="geometry" />
        </mxCell>
        <mxCell id="UGVQ1dfHeVU3jZcF55VB-19" value="Real-Time data" style="text;html=1;strokeColor=none;fillColor=none;align=center;verticalAlign=middle;whiteSpace=wrap;rounded=0;" vertex="1" parent="1">
          <mxGeometry x="71.00000000000001" y="738.5" width="83.96" height="30" as="geometry" />
        </mxCell>
        <mxCell id="UGVQ1dfHeVU3jZcF55VB-20" value="Source System Data" style="text;html=1;strokeColor=none;fillColor=none;align=center;verticalAlign=middle;whiteSpace=wrap;rounded=0;" vertex="1" parent="1">
          <mxGeometry x="219.87" y="736.5" width="170" height="30" as="geometry" />
        </mxCell>
        <mxCell id="UGVQ1dfHeVU3jZcF55VB-112" style="edgeStyle=orthogonalEdgeStyle;rounded=0;orthogonalLoop=1;jettySize=auto;html=1;entryX=0;entryY=0.5;entryDx=0;entryDy=0;" edge="1" parent="1" source="UGVQ1dfHeVU3jZcF55VB-24" target="UGVQ1dfHeVU3jZcF55VB-25">
          <mxGeometry relative="1" as="geometry" />
        </mxCell>
        <mxCell id="UGVQ1dfHeVU3jZcF55VB-113" value="Consumed By" style="edgeLabel;html=1;align=center;verticalAlign=middle;resizable=0;points=[];" vertex="1" connectable="0" parent="UGVQ1dfHeVU3jZcF55VB-112">
          <mxGeometry x="-0.1242" y="3" relative="1" as="geometry">
            <mxPoint x="2" y="3" as="offset" />
          </mxGeometry>
        </mxCell>
        <mxCell id="UGVQ1dfHeVU3jZcF55VB-24" value="" style="outlineConnect=0;dashed=0;verticalLabelPosition=bottom;verticalAlign=top;align=center;html=1;shape=mxgraph.aws3.users;fillColor=#D2D3D3;gradientColor=none;" vertex="1" parent="1">
          <mxGeometry x="46.09" y="40" width="50" height="50" as="geometry" />
        </mxCell>
        <mxCell id="UGVQ1dfHeVU3jZcF55VB-25" value="" style="shape=image;verticalLabelPosition=bottom;labelBackgroundColor=#ffffff;verticalAlign=top;aspect=fixed;imageAspect=0;image=data:image/svg+xml,PHN2ZyB4bWxuczpkYz0iaHR0cDovL3B1cmwub3JnL2RjL2VsZW1lbnRzLzEuMS8iIHhtbG5zOmNjPSJodHRwOi8vY3JlYXRpdmVjb21tb25zLm9yZy9ucyMiIHhtbG5zOnJkZj0iaHR0cDovL3d3dy53My5vcmcvMTk5OS8wMi8yMi1yZGYtc3ludGF4LW5zIyIgeG1sbnM6c3ZnPSJodHRwOi8vd3d3LnczLm9yZy8yMDAwL3N2ZyIgeG1sbnM9Imh0dHA6Ly93d3cudzMub3JnLzIwMDAvc3ZnIiB4bWxuczpzb2RpcG9kaT0iaHR0cDovL3NvZGlwb2RpLnNvdXJjZWZvcmdlLm5ldC9EVEQvc29kaXBvZGktMC5kdGQiIHhtbG5zOmlua3NjYXBlPSJodHRwOi8vd3d3Lmlua3NjYXBlLm9yZy9uYW1lc3BhY2VzL2lua3NjYXBlIiB2ZXJzaW9uPSIxLjEiIGlkPSJzdmc5MTUxMCIgaW5rc2NhcGU6dmVyc2lvbj0iMC45Mi4zICgyNDA1NTQ2LCAyMDE4LTAzLTExKSIgc29kaXBvZGk6ZG9jbmFtZT0icG93ZXJfYmlfZW1iZWRkZWQuc3ZnIiB4PSIwcHgiIHk9IjBweCIgdmlld0JveD0iMCAwIDg0LjI2IDg4LjcwMjAzNyIgeG1sOnNwYWNlPSJwcmVzZXJ2ZSIgd2lkdGg9Ijg0LjI2MDAwMiIgaGVpZ2h0PSI4OC43MDIwMzQiPjxtZXRhZGF0YSBpZD0ibWV0YWRhdGEyODkiPjxyZGY6UkRGPjxjYzpXb3JrIHJkZjphYm91dD0iIj48ZGM6Zm9ybWF0PmltYWdlL3N2Zyt4bWw8L2RjOmZvcm1hdD48ZGM6dHlwZSByZGY6cmVzb3VyY2U9Imh0dHA6Ly9wdXJsLm9yZy9kYy9kY21pdHlwZS9TdGlsbEltYWdlIi8+PGRjOnRpdGxlLz48L2NjOldvcms+PC9yZGY6UkRGPjwvbWV0YWRhdGE+PGRlZnMgaWQ9ImRlZnMyODciPiYjeGE7CSYjeGE7JiN4YTsJJiN4YTsmI3hhOwkmI3hhOyYjeGE7CSYjeGE7JiN4YTsJJiN4YTs8L2RlZnM+JiN4YTs8ZmlsdGVyIGlkPSJmaWx0ZXJfMiI+JiN4YTsJPGZlR2F1c3NpYW5CbHVyIGlkPSJmZUdhdXNzaWFuQmx1cjkxNDUzIiBzdGREZXZpYXRpb249IjIiLz4mI3hhOzwvZmlsdGVyPiYjeGE7PHNvZGlwb2RpOm5hbWVkdmlldyBib3JkZXJjb2xvcj0iIzY2NjY2NiIgYm9yZGVyb3BhY2l0eT0iMSIgZml0LW1hcmdpbi1ib3R0b209IjAiIGZpdC1tYXJnaW4tbGVmdD0iMCIgZml0LW1hcmdpbi1yaWdodD0iMCIgZml0LW1hcmdpbi10b3A9IjAiIGdyaWR0b2xlcmFuY2U9IjEwIiBndWlkZXRvbGVyYW5jZT0iMTAiIGlkPSJuYW1lZHZpZXc5MTUxMiIgaW5rc2NhcGU6Y3VycmVudC1sYXllcj0ic3ZnOTE1MTAiIGlua3NjYXBlOmN4PSItNTAuNTM4Nzk5IiBpbmtzY2FwZTpjeT0iMzcuMDA2NjM2IiBpbmtzY2FwZTpwYWdlb3BhY2l0eT0iMCIgaW5rc2NhcGU6cGFnZXNoYWRvdz0iMiIgaW5rc2NhcGU6d2luZG93LWhlaWdodD0iMTAxNyIgaW5rc2NhcGU6d2luZG93LW1heGltaXplZD0iMSIgaW5rc2NhcGU6d2luZG93LXdpZHRoPSIxOTIwIiBpbmtzY2FwZTp3aW5kb3cteD0iLTgiIGlua3NjYXBlOndpbmRvdy15PSItOCIgaW5rc2NhcGU6em9vbT0iNC4wOTY1OTQ1IiBvYmplY3R0b2xlcmFuY2U9IjEwIiBwYWdlY29sb3I9IiNmZmZmZmYiIHNob3dncmlkPSJmYWxzZSI+JiN4YTsJPC9zb2RpcG9kaTpuYW1lZHZpZXc+JiN4YTsmI3hhOzxwYXRoIGlkPSJwYXRoOTE0NzAiIGlua3NjYXBlOmNvbm5lY3Rvci1jdXJ2YXR1cmU9IjAiIGQ9Im0gMjYuNDYsNzEuMzQyMDMzIGMgMCwzLjA1IC0yLjM3LDUuNCAtNS40LDUuNCAtMy4wNCwwIC01LjM5LC0yLjM1IC01LjM5LC01LjQgdiAtMjMuNDEgYyAwLC0zLjA0IDIuMzUsLTUuNCA1LjM5LC01LjQgMy4wMywwIDUuNCwyLjM2IDUuNCw1LjQgeiIvPiYjeGE7JiN4YTs8cGF0aCBpZD0icGF0aDkxNDc4IiBpbmtzY2FwZTpjb25uZWN0b3ItY3VydmF0dXJlPSIwIiBkPSJtIDQyLjMsNzcuNzQyMDMzIGMgMCwzLjA1IC0yLjM3LDUuNCAtNS40LDUuNCAtMy4wNCwwIC01LjM5LC0yLjM1IC01LjM5LC01LjQgdiAtMzUuODggYyAwLC0zLjA0IDIuMzUsLTUuNCA1LjM5LC01LjQgMy4wMywwIDUuNCwyLjM2IDUuNCw1LjQgeiIvPiYjeGE7JiN4YTs8cGF0aCBpZD0icGF0aDkxNDg2IiBpbmtzY2FwZTpjb25uZWN0b3ItY3VydmF0dXJlPSIwIiBkPSJtIDEwLjc5LDY2LjExMjAzMyBjIDAsMy4wNSAtMi4zNyw1LjQgLTUuNCw1LjQgLTMuMDQsMCAtNS4zOSwtMi4zNSAtNS4zOSwtNS40IHYgLTEyLjYyIGMgMCwtMy4wNSAyLjM1LC01LjQgNS4zOSwtNS40IDMuMDMsMCA1LjQsMi4zNSA1LjQsNS40IHoiLz4mI3hhOyYjeGE7PHBhdGggaWQ9InBhdGg5MTQ5NCIgaW5rc2NhcGU6Y29ubmVjdG9yLWN1cnZhdHVyZT0iMCIgZD0ibSA1OC4xNCw4My4zMDIwMzMgYyAwLDMuMDUgLTIuMzcsNS40IC01LjQsNS40IC0zLjA0LDAgLTUuMzksLTIuMzUgLTUuMzksLTUuNCB2IC00Ny41MiBjIDAsLTMuMDIgMi4zNSwtNS4zOCA1LjM5LC01LjM4IDMuMDMsMCA1LjQsMi4zNiA1LjQsNS4zOCB6Ii8+JiN4YTsmI3hhOzxwYXRoIGlkPSJwYXRoOTE1MDIiIGlua3NjYXBlOmNvbm5lY3Rvci1jdXJ2YXR1cmU9IjAiIGQ9Im0gNzUuMzMsODAuOTUyMDMzIGMgLTAuODMsMCAtMS44NiwtMC4xNiAtMi42OSwtMC41IGwgLTYuNzQsLTIuMTkgYyAtMS4xOCwtMC4zNCAtMS43LC0xLjUyIC0xLjM2LC0yLjcxIDAuMzQsLTEuMTYgMS41MiwtMS42OCAyLjcxLC0xLjM0IGwgNi43MywyLjE5IGMgMS4zNSwwLjUyIDIuODcsMC4xOCA0LjA1LC0wLjY3IDEuMTcsLTAuODUgMS44NCwtMi4xOSAxLjg0LC0zLjcxIHYgLTQzLjY0IGMgMCwtMi4wMyAtMS4zNCwtMy44OSAtMy4yLC00LjM4IEwgMTIuODEsNC42MTIwMzM0IGMgLTEuMzUsLTAuNTEgLTIuODcsLTAuMTYgLTQuMDQsMC42OCAtMS4xOCwwLjg0IC0xLjg1LDIuMTkgLTEuODUsMy43MSBWIDM5LjAwMjAzMyBjIDAsMS4xOCAtMS4wMSwyLjE5IC0yLjIsMi4xOSAtMS4xOCwwIC0yLjE5LC0xLjAxIC0yLjE5LC0yLjE5IFYgOS4wMDIwMzM0IGMgMCwtMi44NyAxLjM0LC01LjQgMy41NCwtNy4yNSAyLjM1LC0xLjY3OTk5OTk4IDUuMjIsLTIuMTk5OTk5OTggNy45MiwtMS4zNDk5OTk5OCBMIDc3Ljg2LDE5Ljc5MjAzMyBjIDMuNzEsMS4xNyA2LjQsNC41NCA2LjQsOC41OSB2IDQzLjY0IGMgMCwyLjg2IC0xLjM0LDUuNTcgLTMuNyw3LjI1IC0xLjY5LDEuMTggLTMuMzcsMS42OCAtNS4yMywxLjY4IHoiLz4mI3hhOzwvc3ZnPg==;fillColor=#D4E1F5;" vertex="1" parent="1">
          <mxGeometry x="580" y="40" width="47.19" height="50" as="geometry" />
        </mxCell>
        <mxCell id="UGVQ1dfHeVU3jZcF55VB-32" style="edgeStyle=orthogonalEdgeStyle;rounded=0;orthogonalLoop=1;jettySize=auto;html=1;exitX=0.5;exitY=0;exitDx=0;exitDy=0;" edge="1" parent="1" source="UGVQ1dfHeVU3jZcF55VB-26" target="UGVQ1dfHeVU3jZcF55VB-29">
          <mxGeometry relative="1" as="geometry" />
        </mxCell>
        <mxCell id="UGVQ1dfHeVU3jZcF55VB-26" value="" style="shape=image;verticalLabelPosition=bottom;labelBackgroundColor=#ffffff;verticalAlign=top;aspect=fixed;imageAspect=0;image=data:image/svg+xml,PHN2ZyB4bWxuczpkYz0iaHR0cDovL3B1cmwub3JnL2RjL2VsZW1lbnRzLzEuMS8iIHhtbG5zOmNjPSJodHRwOi8vY3JlYXRpdmVjb21tb25zLm9yZy9ucyMiIHhtbG5zOnJkZj0iaHR0cDovL3d3dy53My5vcmcvMTk5OS8wMi8yMi1yZGYtc3ludGF4LW5zIyIgeG1sbnM6c3ZnPSJodHRwOi8vd3d3LnczLm9yZy8yMDAwL3N2ZyIgeG1sbnM9Imh0dHA6Ly93d3cudzMub3JnLzIwMDAvc3ZnIiB4bWxuczpzb2RpcG9kaT0iaHR0cDovL3NvZGlwb2RpLnNvdXJjZWZvcmdlLm5ldC9EVEQvc29kaXBvZGktMC5kdGQiIHhtbG5zOmlua3NjYXBlPSJodHRwOi8vd3d3Lmlua3NjYXBlLm9yZy9uYW1lc3BhY2VzL2lua3NjYXBlIiB2ZXJzaW9uPSIxLjEiIGlkPSJzdmc5ODUyMCIgaW5rc2NhcGU6dmVyc2lvbj0iMC45Mi4zICgyNDA1NTQ2LCAyMDE4LTAzLTExKSIgc29kaXBvZGk6ZG9jbmFtZT0ic3RyZWFtX2FuYWx5dGljcy5zdmciIHg9IjBweCIgeT0iMHB4IiB2aWV3Qm94PSIwIDAgMTIxLjYxIDk0LjM3MDA2OSIgeG1sOnNwYWNlPSJwcmVzZXJ2ZSIgd2lkdGg9IjEyMS42MSIgaGVpZ2h0PSI5NC4zNzAwNzEiPjxtZXRhZGF0YSBpZD0ibWV0YWRhdGEzMDk4Ij48cmRmOlJERj48Y2M6V29yayByZGY6YWJvdXQ9IiI+PGRjOmZvcm1hdD5pbWFnZS9zdmcreG1sPC9kYzpmb3JtYXQ+PGRjOnR5cGUgcmRmOnJlc291cmNlPSJodHRwOi8vcHVybC5vcmcvZGMvZGNtaXR5cGUvU3RpbGxJbWFnZSIvPjxkYzp0aXRsZS8+PC9jYzpXb3JrPjwvcmRmOlJERj48L21ldGFkYXRhPjxkZWZzIGlkPSJkZWZzMzA5NiI+JiN4YTsJJiN4YTsmI3hhOwkmI3hhOyYjeGE7CSYjeGE7JiN4YTsJJiN4YTsmI3hhOwkmI3hhOwkmI3hhOwkmI3hhOyYjeGE7CSYjeGE7CSYjeGE7CSYjeGE7JiN4YTsJCSYjeGE7CSYjeGE7CQkmI3hhOwkmI3hhOwkJJiN4YTsJJiN4YTsJCSYjeGE7CSYjeGE7CQkmI3hhOwkmI3hhOwkJJiN4YTsJJiN4YTsJCQkmI3hhOwkJJiN4YTsJCQkmI3hhOwkJPC9kZWZzPiYjeGE7PGZpbHRlciBpZD0iZmlsdGVyXzIiPiYjeGE7CTxmZUdhdXNzaWFuQmx1ciBpZD0iZmVHYXVzc2lhbkJsdXI5ODQ1OCIgc3RkRGV2aWF0aW9uPSIyIi8+JiN4YTs8L2ZpbHRlcj4mI3hhOzxzb2RpcG9kaTpuYW1lZHZpZXcgYm9yZGVyY29sb3I9IiM2NjY2NjYiIGJvcmRlcm9wYWNpdHk9IjEiIGZpdC1tYXJnaW4tYm90dG9tPSIwIiBmaXQtbWFyZ2luLWxlZnQ9IjAiIGZpdC1tYXJnaW4tcmlnaHQ9IjAiIGZpdC1tYXJnaW4tdG9wPSIwIiBncmlkdG9sZXJhbmNlPSIxMCIgZ3VpZGV0b2xlcmFuY2U9IjEwIiBpZD0ibmFtZWR2aWV3OTg1MjIiIGlua3NjYXBlOmN1cnJlbnQtbGF5ZXI9InN2Zzk4NTIwIiBpbmtzY2FwZTpjeD0iOC40ODMzMDc2IiBpbmtzY2FwZTpjeT0iMzkuNzI2NTgiIGlua3NjYXBlOnBhZ2VvcGFjaXR5PSIwIiBpbmtzY2FwZTpwYWdlc2hhZG93PSIyIiBpbmtzY2FwZTp3aW5kb3ctaGVpZ2h0PSIxMDE3IiBpbmtzY2FwZTp3aW5kb3ctbWF4aW1pemVkPSIxIiBpbmtzY2FwZTp3aW5kb3ctd2lkdGg9IjE5MjAiIGlua3NjYXBlOndpbmRvdy14PSItOCIgaW5rc2NhcGU6d2luZG93LXk9Ii04IiBpbmtzY2FwZTp6b29tPSIzLjg2ODgxNDEiIG9iamVjdHRvbGVyYW5jZT0iMTAiIHBhZ2Vjb2xvcj0iI2ZmZmZmZiIgc2hvd2dyaWQ9ImZhbHNlIj4mI3hhOwk8L3NvZGlwb2RpOm5hbWVkdmlldz4mI3hhOyYjeGE7PHBhdGggaWQ9InBhdGg5ODQ3MSIgaW5rc2NhcGU6Y29ubmVjdG9yLWN1cnZhdHVyZT0iMCIgc3R5bGU9ImZpbGw6IzdhN2E3YSIgZD0ibSAxMDUuMzEsNjMuOTYwMDc1IDIuOTIsLTcuNTMgMTMuMzgsLTQuNjMgdiAtMTAuNyBsIC0xLjQ2LC0wLjQ4IC0xMS45MiwtMy40MSAtMi45MiwtNy41NCA2LjA4LC0xMi40IC03LjU0LC03LjU0IC0xLjQ2LDAuNzMgLTEwLjk0LDUuNTkgLTcuNzgsLTMuMTYgLTQuODcsLTEyLjg5IEggNjcuODYgbCAtMC40OSwxLjQ2IC0zLjY1LDExLjQzIC03LjU0LDIuOTIgLTEyLjg5LC01LjYgLTcuNzgsNy41NCAwLjczLDEuNDYgMy40LDYuMzMgYyA2LjA4LC0zLjQxIDEyLjQxLC00Ljg3IDE5LjIyLC00Ljg3IDkuNDgsMC40OSAxOC4yNCwzLjg5IDI1LjA1LDEwLjIyIDEuNDYsMS4yMSAyLjkyLDIuMTkgNC42MiwzLjg5IDAuNzMsMC43MyAxLjQ2LDEuOTUgMS45NSwyLjY3IDQuNjIsOC4wMyAyLjY3LDE4LjI1IC00Ljg3LDI0LjMzIC01LjU5LDQuNjIgLTEzLjM3LDUuMzUgLTE5LjIxLDIuNjcgLTAuNzMsLTAuNDkgLTEuMjIsLTAuNDkgLTEuNDYsLTAuNzMgLTEuNDYsLTAuNzMgLTIuOTIsLTEuOTQgLTQuMTQsLTIuOTIgLTAuNDgsMCAtMC43MywtMC40OCAtMS40NiwtMC40OCAtMS40NSwwIC0yLjkxLDAuNzMgLTQuMTMsMS45NCBsIC0wLjQ5LDAuNDkgYyAtNC42Miw0LjYyIC05LjcyLDguMDIgLTE1LjU2LDkuNzMgbCAtMi4xOSw0LjYyIDcuMyw3LjI5IDAuNDgsMC40OSAxLjQ2LC0wLjczIDEwLjk1LC01LjU5IDcuNTQsMi45MiA0LjEzLDEyLjg5IGggMTAuOTQgbCAwLjQ5LC0xLjQ2IDMuODksLTExLjQzIDcuNTQsLTIuOTIgMTIuODksNS41OSA3LjMsLTguMDIgLTAuNzMsLTEuNDYgeiIvPiYjeGE7JiN4YTs8cGF0aCBpZD0icGF0aDk4NDc5IiBpbmtzY2FwZTpjb25uZWN0b3ItY3VydmF0dXJlPSIwIiBzdHlsZT0iZmlsbDojNDhjOGVmIiBkPSJtIDQwLjEzLDQ0Ljk5MDA3NSBjIC04LjI3LDguNzYgLTIxLjY0LDguNzYgLTI5LjQzLC0wLjQ4IC0wLjczLC0xLjIyIC0yLjY3LC0xLjIyIC0zLjQsMCAtMC40OSwwLjQ4IC0wLjczLDEuMjEgLTAuNzMsMS45NCAwLDAuNzMgMC40OSwxLjQ2IDAuNzMsMS45NSA5LjczLDEwLjk0IDI2LjAyLDExLjE5IDM2LjQ4LDAuNDkgOC4yNywtOC4yNyAyMS4xNiwtOC41MiAyOS4xOSwwLjcyIDEuMjEsMS4yMiAyLjY3LDEuMjIgMy40LDAgMC40OSwtMC40OCAwLjczLC0xLjIxIDAuNzMsLTEuOTQgMCwtMC43MyAtMC40OCwtMS40NiAtMC43MywtMS45NSAtOS43MywtMTAuOTQgLTI2LjAyLC0xMS4xOCAtMzYuMjQsLTAuNzMgeiIvPiYjeGE7JiN4YTs8cGF0aCBpZD0icGF0aDk4NDg3IiBpbmtzY2FwZTpjb25uZWN0b3ItY3VydmF0dXJlPSIwIiBzdHlsZT0iZmlsbDojMDBhYmVjIiBkPSJtIDU4LjM3LDQ5LjYyMDA3NSBjIC00LjYyLDAgLTguMjcsMS40NiAtMTEuNjcsNC44NiBsIC0wLjQ5LDAuNDkgLTAuNDksMC40OSBjIC01LjU5LDYuMDggLTEzLjM3LDkgLTIxLjE2LDguNzUgLTguMDIsMCAtMTUuMDcsLTMuODkgLTIwLjkxLC05LjczIC0xLjIyLC0xLjIxIC0yLjY4LC0xLjIxIC0zLjQxLDAgLTAuMjQsMCAtMC4yNCwwLjQ5IC0wLjI0LDEuMjIgMCwwLjczIDAuNzMsMS45NSAxLjIyLDIuMTkgNi4zMiw3LjMgMTUuMDgsMTEuNDMgMjQuMzIsMTEuNDMgOSwwLjQ5IDE3Ljc1LC0zLjQgMjQuNTYsLTEwLjcgbCAwLjQ5LC0wLjQ5IDAuNDgsLTAuNDggYyAyLjE5LC0yLjE5IDQuODcsLTMuNDEgOC4wMywtMy40MSAyLjkyLDAgNS41OSwxLjQ2IDguMDMsMy44OSAxLjIxLDEuMjIgMi42NywxLjIyIDMuNCwwIDAuNDksLTAuNDggMC43MywtMS4yMSAwLjczLC0xLjk0IDAsLTAuNzMgLTAuNDksLTEuNDYgLTAuNzMsLTEuOTUgLTMuNCwtMi42NyAtNy41NCwtNC42MiAtMTIuMTYsLTQuNjIgeiIvPiYjeGE7JiN4YTs8cGF0aCBpZD0icGF0aDk4NDk1IiBpbmtzY2FwZTpjb25uZWN0b3ItY3VydmF0dXJlPSIwIiBzdHlsZT0iZmlsbDojODRkNmVmIiBkPSJtIDM3Ljk0LDM5LjY0MDA3NSBjIDUuNTksLTYuMDggMTMuMzgsLTkgMjEuMTYsLTkgNy43OCwwIDE1LjA4LDMuODkgMjAuNDMsOS43MyAxLjIyLDEuMjIgMi42OCwxLjIyIDMuNDEsMCAwLjQ4LC0wLjQ5IDAuNzIsLTEuMjIgMC43MiwtMS45NSAwLC0wLjczIC0wLjQ4LC0xLjQ2IC0wLjcyLC0xLjk0IC02LjMzLC03LjMgLTE1LjA4LC0xMS40MyAtMjQuMzMsLTExLjQzIC05LjI0LDAgLTE3Ljc1LDMuNCAtMjQuNTYsMTAuNyBsIC0wLjQ5LDAuNDggLTAuNDgsMC40OSBjIC0yLjE5LDIuMTkgLTQuODcsMy40MSAtOC4wMywzLjQxIC0zLjE2LDAgLTUuNTksLTEuNDYgLTguMDMsLTMuOSAtMS4yMSwtMS4yMSAtMi42NywtMS4yMSAtMy40LDAgLTAuNDksMC40OSAtMC43MywxLjIyIC0wLjczLDEuOTUgMCwwLjczIDAuNDksMS40NiAwLjczLDEuOTUgMi45MiwzLjQgNy4zLDUuMzUgMTEuNDMsNS4zNSA0LjYyLDAgOC4yNywtMS40NiAxMS42NywtNC44NyBsIDAuNDksLTAuNDggeiIvPiYjeGE7JiN4YTs8cGF0aCBkPSJtIDM5Ljg4OTY2LDI1Ljc4IGMgNi4wOCwtMy40IDEyLjQsLTQuODYgMTkuMjEsLTQuODYgOS40OSwwLjQ4IDE4LjI0LDMuODkgMjUuMDUsMTAuMjEgMS4yMiwwLjk3IDIuMTksMS43IDMuNDEsMi42OCBsIDIwLjE4LC0yMC4xOSAtNC4xMywtNC4xMyAtMS40NiwwLjcyIC0xMC45NCw1LjYgLTcuNTQsLTIuOTIgLTQuODcsLTEyLjg5IGggLTEwLjk0IGwgLTAuNDksMS40NiAtMy42NSwxMS40MyAtNy41NCwyLjkyIC0xMi44OSwtNS42IC03Ljc4LDcuNTQgMC43MywxLjQ2IHoiIHN0eWxlPSJmaWxsOiNmMWYxZjE7ZmlsbC1vcGFjaXR5OjAuMiIgaW5rc2NhcGU6Y29ubmVjdG9yLWN1cnZhdHVyZT0iMCIgaWQ9InBhdGg5ODUxMyIvPiYjeGE7PC9zdmc+;fillColor=#D4E1F5;" vertex="1" parent="1">
          <mxGeometry x="61.58" y="691.5" width="61" height="47" as="geometry" />
        </mxCell>
        <mxCell id="UGVQ1dfHeVU3jZcF55VB-29" value="Event -Hub" style="text;html=1;strokeColor=none;fillColor=none;align=center;verticalAlign=middle;whiteSpace=wrap;rounded=0;" vertex="1" parent="1">
          <mxGeometry x="50.100000000000016" y="595" width="83.96" height="30" as="geometry" />
        </mxCell>
        <mxCell id="UGVQ1dfHeVU3jZcF55VB-30" value="Cosmos DB" style="text;html=1;strokeColor=none;fillColor=none;align=center;verticalAlign=middle;whiteSpace=wrap;rounded=0;" vertex="1" parent="1">
          <mxGeometry x="151.52" y="595" width="83.96" height="30" as="geometry" />
        </mxCell>
        <mxCell id="UGVQ1dfHeVU3jZcF55VB-36" style="edgeStyle=orthogonalEdgeStyle;rounded=0;orthogonalLoop=1;jettySize=auto;html=1;entryX=1;entryY=0.5;entryDx=0;entryDy=0;" edge="1" parent="1" source="UGVQ1dfHeVU3jZcF55VB-35" target="UGVQ1dfHeVU3jZcF55VB-7">
          <mxGeometry relative="1" as="geometry">
            <Array as="points">
              <mxPoint x="455" y="572" />
            </Array>
          </mxGeometry>
        </mxCell>
        <mxCell id="UGVQ1dfHeVU3jZcF55VB-35" value="" style="sketch=0;aspect=fixed;html=1;points=[];align=center;image;fontSize=12;image=img/lib/mscae/Storage_sync_service.svg;fillColor=#D4E1F5;" vertex="1" parent="1">
          <mxGeometry x="480" y="690" width="50" height="50" as="geometry" />
        </mxCell>
        <mxCell id="UGVQ1dfHeVU3jZcF55VB-37" value="AWS Cargo Sync" style="text;html=1;strokeColor=none;fillColor=none;align=center;verticalAlign=middle;whiteSpace=wrap;rounded=0;" vertex="1" parent="1">
          <mxGeometry x="440" y="736.5" width="170" height="30" as="geometry" />
        </mxCell>
        <mxCell id="UGVQ1dfHeVU3jZcF55VB-39" value="Azure Policies" style="text;html=1;strokeColor=none;fillColor=none;align=center;verticalAlign=middle;whiteSpace=wrap;rounded=0;" vertex="1" parent="1">
          <mxGeometry x="636.94" y="554" width="170" height="25" as="geometry" />
        </mxCell>
        <mxCell id="UGVQ1dfHeVU3jZcF55VB-47" value="ADW- GT" style="text;html=1;strokeColor=none;fillColor=none;align=center;verticalAlign=middle;whiteSpace=wrap;rounded=0;" vertex="1" parent="1">
          <mxGeometry x="50.1" y="428" width="57" height="30" as="geometry" />
        </mxCell>
        <mxCell id="UGVQ1dfHeVU3jZcF55VB-58" value="Synapse Workgroup" style="text;html=1;strokeColor=none;fillColor=none;align=center;verticalAlign=middle;whiteSpace=wrap;rounded=0;" vertex="1" parent="1">
          <mxGeometry x="20" y="360" width="122.94" height="30" as="geometry" />
        </mxCell>
        <mxCell id="UGVQ1dfHeVU3jZcF55VB-59" style="edgeStyle=orthogonalEdgeStyle;rounded=0;orthogonalLoop=1;jettySize=auto;html=1;" edge="1" parent="1" source="UGVQ1dfHeVU3jZcF55VB-60" target="UGVQ1dfHeVU3jZcF55VB-61">
          <mxGeometry relative="1" as="geometry" />
        </mxCell>
        <mxCell id="UGVQ1dfHeVU3jZcF55VB-60" value="" style="shape=image;verticalLabelPosition=bottom;labelBackgroundColor=#ffffff;verticalAlign=top;aspect=fixed;imageAspect=0;image=data:image/svg+xml,PHN2ZyB4bWxuczpkYz0iaHR0cDovL3B1cmwub3JnL2RjL2VsZW1lbnRzLzEuMS8iIHhtbG5zOmNjPSJodHRwOi8vY3JlYXRpdmVjb21tb25zLm9yZy9ucyMiIHhtbG5zOnJkZj0iaHR0cDovL3d3dy53My5vcmcvMTk5OS8wMi8yMi1yZGYtc3ludGF4LW5zIyIgeG1sbnM6c3ZnPSJodHRwOi8vd3d3LnczLm9yZy8yMDAwL3N2ZyIgeG1sbnM9Imh0dHA6Ly93d3cudzMub3JnLzIwMDAvc3ZnIiB4bWxuczp4bGluaz0iaHR0cDovL3d3dy53My5vcmcvMTk5OS94bGluayIgeG1sbnM6c29kaXBvZGk9Imh0dHA6Ly9zb2RpcG9kaS5zb3VyY2Vmb3JnZS5uZXQvRFREL3NvZGlwb2RpLTAuZHRkIiB4bWxuczppbmtzY2FwZT0iaHR0cDovL3d3dy5pbmtzY2FwZS5vcmcvbmFtZXNwYWNlcy9pbmtzY2FwZSIgdmVyc2lvbj0iMS4xIiBpZD0iTGF5ZXJfMSIgeD0iMHB4IiB5PSIwcHgiIHZpZXdCb3g9IjAgMCA0NC4yMTk5OTcgNDUuNzc5OTk5IiB4bWw6c3BhY2U9InByZXNlcnZlIiBzb2RpcG9kaTpkb2NuYW1lPSJhenVyZV9kYXRhYnJpY2tzLnN2ZyIgd2lkdGg9IjQ0LjIxOTk5NyIgaGVpZ2h0PSI0NS43Nzk5OTkiIGlua3NjYXBlOnZlcnNpb249IjAuOTIuMyAoMjQwNTU0NiwgMjAxOC0wMy0xMSkiPjxtZXRhZGF0YSBpZD0ibWV0YWRhdGEzMDcwMyI+PHJkZjpSREY+PGNjOldvcmsgcmRmOmFib3V0PSIiPjxkYzpmb3JtYXQ+aW1hZ2Uvc3ZnK3htbDwvZGM6Zm9ybWF0PjxkYzp0eXBlIHJkZjpyZXNvdXJjZT0iaHR0cDovL3B1cmwub3JnL2RjL2RjbWl0eXBlL1N0aWxsSW1hZ2UiLz48ZGM6dGl0bGUvPjwvY2M6V29yaz48L3JkZjpSREY+PC9tZXRhZGF0YT48ZGVmcyBpZD0iZGVmczMwNzAxIi8+PHNvZGlwb2RpOm5hbWVkdmlldyBwYWdlY29sb3I9IiNmZmZmZmYiIGJvcmRlcmNvbG9yPSIjNjY2NjY2IiBib3JkZXJvcGFjaXR5PSIxIiBvYmplY3R0b2xlcmFuY2U9IjEwIiBncmlkdG9sZXJhbmNlPSIxMCIgZ3VpZGV0b2xlcmFuY2U9IjEwIiBpbmtzY2FwZTpwYWdlb3BhY2l0eT0iMCIgaW5rc2NhcGU6cGFnZXNoYWRvdz0iMiIgaW5rc2NhcGU6d2luZG93LXdpZHRoPSIxOTIwIiBpbmtzY2FwZTp3aW5kb3ctaGVpZ2h0PSIxMDE3IiBpZD0ibmFtZWR2aWV3MzA2OTkiIHNob3dncmlkPSJmYWxzZSIgZml0LW1hcmdpbi10b3A9IjAiIGZpdC1tYXJnaW4tbGVmdD0iMCIgZml0LW1hcmdpbi1yaWdodD0iMCIgZml0LW1hcmdpbi1ib3R0b209IjAiIGlua3NjYXBlOnpvb209IjEuMDMwMzAzIiBpbmtzY2FwZTpjeD0iMjQwLjA4NSIgaW5rc2NhcGU6Y3k9Ii0xNzcuMzkiIGlua3NjYXBlOndpbmRvdy14PSItOCIgaW5rc2NhcGU6d2luZG93LXk9Ii04IiBpbmtzY2FwZTp3aW5kb3ctbWF4aW1pemVkPSIxIiBpbmtzY2FwZTpjdXJyZW50LWxheWVyPSJMYXllcl8xIi8+JiN4YTsmI3hhOzxnIGlkPSJnMzA2OTYiIHRyYW5zZm9ybT0idHJhbnNsYXRlKC01Ny4yOTAwMDEsLTE5Ny41OCkiPiYjeGE7CTxkZWZzIGlkPSJkZWZzMzA2NzUiPiYjeGE7CQk8cmVjdCBpZD0iU1ZHSURfM18iIHg9IjU3LjI5MDAwMSIgeT0iMTk3LjU4IiB3aWR0aD0iNDUuMzMwMDAyIiBoZWlnaHQ9IjQ4LjE2Ii8+JiN4YTsJPC9kZWZzPiYjeGE7CTxjbGlwUGF0aCBpZD0iU1ZHSURfNF8iPiYjeGE7CQk8dXNlIHhsaW5rOmhyZWY9IiNTVkdJRF8zXyIgc3R5bGU9Im92ZXJmbG93OnZpc2libGUiIGlkPSJ1c2UzMDY3NyIgeD0iMCIgeT0iMCIgd2lkdGg9IjEwMCUiIGhlaWdodD0iMTAwJSIvPiYjeGE7CTwvY2xpcFBhdGg+JiN4YTsJPGcgY2xpcC1wYXRoPSJ1cmwoI1NWR0lEXzRfKSIgaWQ9ImczMDY5NCI+JiN4YTsJCTxkZWZzIGlkPSJkZWZzMzA2ODEiPiYjeGE7CQkJPHJlY3QgaWQ9IlNWR0lEXzVfIiB4PSI1Ny4yOTAwMDEiIHk9IjE5Ny41OCIgd2lkdGg9IjQ1LjMzMDAwMiIgaGVpZ2h0PSI0OC4xNiIvPiYjeGE7CQk8L2RlZnM+JiN4YTsJCTxjbGlwUGF0aCBpZD0iU1ZHSURfNl8iPiYjeGE7CQkJPHVzZSB4bGluazpocmVmPSIjU1ZHSURfNV8iIHN0eWxlPSJvdmVyZmxvdzp2aXNpYmxlIiBpZD0idXNlMzA2ODMiIHg9IjAiIHk9IjAiIHdpZHRoPSIxMDAlIiBoZWlnaHQ9IjEwMCUiLz4mI3hhOwkJPC9jbGlwUGF0aD4mI3hhOwkJPHBvbHlnb24gc3R5bGU9ImZpbGw6I2RjMjEyNiIgcG9pbnRzPSI3OS40NiwyNDMuMzYgNTcuMjksMjMxLjMyIDU3LjI5LDIyNC4wMSA3OS40LDIxMi42MiAxMDEuNDUsMjI0LjAxIDEwMS40NSwyMzEuMzIgIiBjbGlwLXBhdGg9InVybCgjU1ZHSURfNl8pIiBpZD0icG9seWdvbjMwNjg2Ii8+JiN4YTsJCTxwb2x5Z29uIHN0eWxlPSJmaWxsOiNmMDU0MmQiIHBvaW50cz0iNzkuNCwyMzUuNTcgNTcuMjksMjI0LjAxIDc5LjQsMjEyLjYyIDEwMS41MSwyMjQuMDEgIiBjbGlwLXBhdGg9InVybCgjU1ZHSURfNl8pIiBpZD0icG9seWdvbjMwNjg4Ii8+JiN4YTsJCTxwb2x5Z29uIHN0eWxlPSJmaWxsOiNkYzIxMjYiIHBvaW50cz0iNzkuNDYsMjI4LjMyIDU3LjI5LDIxNi4yOCA1Ny4yOSwyMDguOTYgNzkuNCwxOTcuNTggMTAxLjQ1LDIwOC45NiAxMDEuNDUsMjE2LjI4ICIgY2xpcC1wYXRoPSJ1cmwoI1NWR0lEXzZfKSIgaWQ9InBvbHlnb24zMDY5MCIvPiYjeGE7CQk8cG9seWdvbiBzdHlsZT0iZmlsbDojZjA1NDJkIiBwb2ludHM9Ijc5LjQsMjIwLjUzIDU3LjI5LDIwOC45NiA3OS40LDE5Ny41OCAxMDEuNTEsMjA4Ljk2ICIgY2xpcC1wYXRoPSJ1cmwoI1NWR0lEXzZfKSIgaWQ9InBvbHlnb24zMDY5MiIvPiYjeGE7CTwvZz4mI3hhOzwvZz4mI3hhOzwvc3ZnPg==;" vertex="1" parent="1">
          <mxGeometry x="296.32" y="475" width="38.26" height="40" as="geometry" />
        </mxCell>
        <mxCell id="UGVQ1dfHeVU3jZcF55VB-61" value="" style="shape=image;verticalLabelPosition=bottom;labelBackgroundColor=#ffffff;verticalAlign=top;aspect=fixed;imageAspect=0;image=data:image/svg+xml,PHN2ZyB4bWxuczpkYz0iaHR0cDovL3B1cmwub3JnL2RjL2VsZW1lbnRzLzEuMS8iIHhtbG5zOmNjPSJodHRwOi8vY3JlYXRpdmVjb21tb25zLm9yZy9ucyMiIHhtbG5zOnJkZj0iaHR0cDovL3d3dy53My5vcmcvMTk5OS8wMi8yMi1yZGYtc3ludGF4LW5zIyIgeG1sbnM6c3ZnPSJodHRwOi8vd3d3LnczLm9yZy8yMDAwL3N2ZyIgeG1sbnM9Imh0dHA6Ly93d3cudzMub3JnLzIwMDAvc3ZnIiB4bWxuczpzb2RpcG9kaT0iaHR0cDovL3NvZGlwb2RpLnNvdXJjZWZvcmdlLm5ldC9EVEQvc29kaXBvZGktMC5kdGQiIHhtbG5zOmlua3NjYXBlPSJodHRwOi8vd3d3Lmlua3NjYXBlLm9yZy9uYW1lc3BhY2VzL2lua3NjYXBlIiB2ZXJzaW9uPSIxLjEiIGlkPSJzdmc5NTc5NiIgaW5rc2NhcGU6dmVyc2lvbj0iMC45Mi4zICgyNDA1NTQ2LCAyMDE4LTAzLTExKSIgc29kaXBvZGk6ZG9jbmFtZT0ic3FsX2RhdGFfd2FyZWhvdXNlLnN2ZyIgeD0iMHB4IiB5PSIwcHgiIHZpZXdCb3g9IjAgMCA5OC44MyA5Ni4xIiB4bWw6c3BhY2U9InByZXNlcnZlIiB3aWR0aD0iOTguODMwMDAyIiBoZWlnaHQ9Ijk2LjA5OTk5OCI+PG1ldGFkYXRhIGlkPSJtZXRhZGF0YTE0OTkiPjxyZGY6UkRGPjxjYzpXb3JrIHJkZjphYm91dD0iIj48ZGM6Zm9ybWF0PmltYWdlL3N2Zyt4bWw8L2RjOmZvcm1hdD48ZGM6dHlwZSByZGY6cmVzb3VyY2U9Imh0dHA6Ly9wdXJsLm9yZy9kYy9kY21pdHlwZS9TdGlsbEltYWdlIi8+PGRjOnRpdGxlLz48L2NjOldvcms+PC9yZGY6UkRGPjwvbWV0YWRhdGE+PGRlZnMgaWQ9ImRlZnMxNDk3Ij4mI3hhOwkmI3hhOyYjeGE7CSYjeGE7JiN4YTsJJiN4YTsmI3hhOwkmI3hhOyYjeGE7CSYjeGE7JiN4YTsJJiN4YTsmI3hhOwkmI3hhOyYjeGE7CSYjeGE7JiN4YTsJJiN4YTsmI3hhOwkmI3hhOyYjeGE7CSYjeGE7JiN4YTsJJiN4YTsmI3hhOwkmI3hhOyYjeGE7CSYjeGE7JiN4YTsJJiN4YTsmI3hhOwkmI3hhOyYjeGE7CSYjeGE7JiN4YTsJJiN4YTsmI3hhOwkmI3hhOyYjeGE7CSYjeGE7JiN4YTsJJiN4YTsmI3hhOwkmI3hhOyYjeGE7CSYjeGE7JiN4YTsJJiN4YTsmI3hhOwkmI3hhOyYjeGE7CSYjeGE7JiN4YTsJJiN4YTsmI3hhOwkmI3hhOyYjeGE7CSYjeGE7JiN4YTsJJiN4YTsmI3hhOwkmI3hhOwkmI3hhOwkmI3hhOyYjeGE7CSYjeGE7CSYjeGE7CSYjeGE7JiN4YTsJJiN4YTsJJiN4YTsJJiN4YTsmI3hhOwkJJiN4YTsJJiN4YTsJCSYjeGE7CSYjeGE7CQkmI3hhOwkmI3hhOwkJJiN4YTsJJiN4YTsJCSYjeGE7CSYjeGE7CQkmI3hhOwkmI3hhOwkJJiN4YTsJJiN4YTsJCSYjeGE7CSYjeGE7CQkJJiN4YTsJCSYjeGE7CQkJJiN4YTsJCTwvZGVmcz4mI3hhOzxmaWx0ZXIgaWQ9ImZpbHRlcl8yIj4mI3hhOwk8ZmVHYXVzc2lhbkJsdXIgaWQ9ImZlR2F1c3NpYW5CbHVyOTU1MTIiIHN0ZERldmlhdGlvbj0iMiIvPiYjeGE7PC9maWx0ZXI+JiN4YTs8c29kaXBvZGk6bmFtZWR2aWV3IGJvcmRlcmNvbG9yPSIjNjY2NjY2IiBib3JkZXJvcGFjaXR5PSIxIiBmaXQtbWFyZ2luLWJvdHRvbT0iMCIgZml0LW1hcmdpbi1sZWZ0PSIwIiBmaXQtbWFyZ2luLXJpZ2h0PSIwIiBmaXQtbWFyZ2luLXRvcD0iMCIgZ3JpZHRvbGVyYW5jZT0iMTAiIGd1aWRldG9sZXJhbmNlPSIxMCIgaWQ9Im5hbWVkdmlldzk1Nzk4IiBpbmtzY2FwZTpjdXJyZW50LWxheWVyPSJzdmc5NTc5NiIgaW5rc2NhcGU6Y3g9IjM2LjgzOTc1MiIgaW5rc2NhcGU6Y3k9IjQ1LjQzNTQ0NiIgaW5rc2NhcGU6cGFnZW9wYWNpdHk9IjAiIGlua3NjYXBlOnBhZ2VzaGFkb3c9IjIiIGlua3NjYXBlOndpbmRvdy1oZWlnaHQ9IjEwMTciIGlua3NjYXBlOndpbmRvdy1tYXhpbWl6ZWQ9IjEiIGlua3NjYXBlOndpbmRvdy13aWR0aD0iMTkyMCIgaW5rc2NhcGU6d2luZG93LXg9Ii04IiBpbmtzY2FwZTp3aW5kb3cteT0iLTgiIGlua3NjYXBlOnpvb209IjQuNDgxMzgxNSIgb2JqZWN0dG9sZXJhbmNlPSIxMCIgcGFnZWNvbG9yPSIjZmZmZmZmIiBzaG93Z3JpZD0iZmFsc2UiPiYjeGE7CTwvc29kaXBvZGk6bmFtZWR2aWV3PiYjeGE7JiN4YTs8cmVjdCBpZD0icmVjdDk1NTI3IiB4PSIyMy44MDAwMDMiIHk9IjMwLjEzOTk5OSIgc3R5bGU9ImZpbGw6IzdmYmI0MiIgd2lkdGg9IjkuNDYiIGhlaWdodD0iOS40NiIvPiYjeGE7JiN4YTs8cmVjdCBpZD0icmVjdDk1NTM1IiB4PSIxNi4zMDAwMDMiIHk9IjU1Ljc5MDAwMSIgc3R5bGU9ImZpbGw6IzdmYmI0MiIgd2lkdGg9IjkuNDYiIGhlaWdodD0iOS40NiIvPiYjeGE7JiN4YTs8cmVjdCBpZD0icmVjdDk1NTQzIiB4PSIyOS43NjAwMSIgeT0iNTUuNzkwMDAxIiBzdHlsZT0iZmlsbDojN2ZiYjQyIiB3aWR0aD0iOS40NiIgaGVpZ2h0PSI5LjQ2Ii8+JiN4YTsmI3hhOzxyZWN0IGlkPSJyZWN0OTU1NTEiIHg9IjQzLjA4OTk5NiIgeT0iNTUuNzkwMDAxIiBzdHlsZT0iZmlsbDojN2ZiYjQyIiB3aWR0aD0iOS40NiIgaGVpZ2h0PSI5LjQ2Ii8+JiN4YTsmI3hhOzxyZWN0IGlkPSJyZWN0OTU1NTkiIHg9IjE2LjMwMDAwMyIgeT0iNDIuOTU5OTk5IiBzdHlsZT0iZmlsbDojN2ZiYjQyIiB3aWR0aD0iOS40NiIgaGVpZ2h0PSI5LjQ2Ii8+JiN4YTsmI3hhOzxyZWN0IGlkPSJyZWN0OTU1NjciIHg9IjI5Ljc2MDAxIiB5PSI0Mi45NTk5OTkiIHN0eWxlPSJmaWxsOiM3ZmJiNDIiIHdpZHRoPSI5LjQ2IiBoZWlnaHQ9IjkuNDYiLz4mI3hhOyYjeGE7PHBhdGggaWQ9InBhdGg5NTU3NSIgaW5rc2NhcGU6Y29ubmVjdG9yLWN1cnZhdHVyZT0iMCIgc3R5bGU9ImZpbGw6IzM5OTljNiIgZD0iTSAzNy4yNiwwIDAsMTkuOCB2IDUuNzggaCA3LjYxIHYgMzkuOTkgaCA2LjM2IFYgMjUuNTggaCA0Ni4zMiB2IDM3LjQ1IGggNyBWIDI1LjU4IGggNi45NyBWIDE5LjggWiIvPiYjeGE7JiN4YTs8cGF0aCBpZD0icGF0aDk1NTgzIiBpbmtzY2FwZTpjb25uZWN0b3ItY3VydmF0dXJlPSIwIiBzdHlsZT0iZmlsbDojYjhkNDMzO2ZpbGwtb3BhY2l0eTowLjgiIGQ9Ik0gMzMuMjYsMzkuNiBIIDMyLjE3IFYgMzEuMzYgSCAyMy44IHYgLTEuMjIgaCA5LjQ2IHoiLz4mI3hhOyYjeGE7PHBhdGggaWQ9InBhdGg5NTU5MSIgaW5rc2NhcGU6Y29ubmVjdG9yLWN1cnZhdHVyZT0iMCIgc3R5bGU9ImZpbGw6I2I4ZDQzMztmaWxsLW9wYWNpdHk6MC41IiBkPSJtIDIzLjgsMzAuMTQgaCAxLjA5IHYgOC4yNyBoIDguMzcgViAzOS42IEggMjMuOCBaIi8+JiN4YTsmI3hhOzxwYXRoIGlkPSJwYXRoOTU1OTkiIGlua3NjYXBlOmNvbm5lY3Rvci1jdXJ2YXR1cmU9IjAiIHN0eWxlPSJmaWxsOiNiOGQ0MzM7ZmlsbC1vcGFjaXR5OjAuOCIgZD0iTSAyNS43Niw1Mi40MiBIIDI0LjcgdiAtOC4yNCBoIC04LjQgdiAtMS4yMiBoIDkuNDYgeiIvPiYjeGE7JiN4YTs8cGF0aCBpZD0icGF0aDk1NjA3IiBpbmtzY2FwZTpjb25uZWN0b3ItY3VydmF0dXJlPSIwIiBzdHlsZT0iZmlsbDojYjhkNDMzO2ZpbGwtb3BhY2l0eTowLjUiIGQ9Im0gMTYuMyw0Mi45NiBoIDEuMDkgdiA4LjI0IGggOC4zNyB2IDEuMjIgSCAxNi4zIFoiLz4mI3hhOyYjeGE7PHBhdGggaWQ9InBhdGg5NTYxNSIgaW5rc2NhcGU6Y29ubmVjdG9yLWN1cnZhdHVyZT0iMCIgc3R5bGU9ImZpbGw6I2I4ZDQzMztmaWxsLW9wYWNpdHk6MC44IiBkPSJtIDM5LjI3LDUyLjQyIGggLTEuMTQgdiAtOC4yNCBoIC04LjM3IHYgLTEuMjIgaCA5LjUxIHoiLz4mI3hhOyYjeGE7PHBhdGggaWQ9InBhdGg5NTYyMyIgaW5rc2NhcGU6Y29ubmVjdG9yLWN1cnZhdHVyZT0iMCIgc3R5bGU9ImZpbGw6I2I4ZDQzMztmaWxsLW9wYWNpdHk6MC41IiBkPSJtIDI5Ljc2LDQyLjk2IGggMS4xNCB2IDguMjQgaCA4LjM3IHYgMS4yMiBoIC05LjUxIHoiLz4mI3hhOyYjeGE7PHBhdGggaWQ9InBhdGg5NTYzMSIgaW5rc2NhcGU6Y29ubmVjdG9yLWN1cnZhdHVyZT0iMCIgc3R5bGU9ImZpbGw6I2I4ZDQzMztmaWxsLW9wYWNpdHk6MC44IiBkPSJNIDI1Ljc2LDY1LjI1IEggMjQuNyB2IC04LjI3IGggLTguNCB2IC0xLjE5IGggOS40NiB6Ii8+JiN4YTsmI3hhOzxwYXRoIGlkPSJwYXRoOTU2MzkiIGlua3NjYXBlOmNvbm5lY3Rvci1jdXJ2YXR1cmU9IjAiIHN0eWxlPSJmaWxsOiNiOGQ0MzM7ZmlsbC1vcGFjaXR5OjAuNSIgZD0ibSAxNi4zLDU1Ljc5IGggMS4wOSB2IDguMjQgaCA4LjM3IHYgMS4yMiBIIDE2LjMgWiIvPiYjeGE7JiN4YTs8cGF0aCBpZD0icGF0aDk1NjQ3IiBpbmtzY2FwZTpjb25uZWN0b3ItY3VydmF0dXJlPSIwIiBzdHlsZT0iZmlsbDojYjhkNDMzO2ZpbGwtb3BhY2l0eTowLjgiIGQ9Im0gMzkuMjcsNjUuMjUgaCAtMS4xNCB2IC04LjI3IGggLTguMzcgdiAtMS4xOSBoIDkuNTEgeiIvPiYjeGE7JiN4YTs8cGF0aCBpZD0icGF0aDk1NjU1IiBpbmtzY2FwZTpjb25uZWN0b3ItY3VydmF0dXJlPSIwIiBzdHlsZT0iZmlsbDojYjhkNDMzO2ZpbGwtb3BhY2l0eTowLjUiIGQ9Im0gMjkuNzYsNTUuNzkgaCAxLjE0IHYgOC4yNCBoIDguMzcgdiAxLjIyIGggLTkuNTEgeiIvPiYjeGE7JiN4YTs8cGF0aCBpZD0icGF0aDk1NjYzIiBpbmtzY2FwZTpjb25uZWN0b3ItY3VydmF0dXJlPSIwIiBzdHlsZT0iZmlsbDojYjhkNDMzO2ZpbGwtb3BhY2l0eTowLjgiIGQ9Im0gNTIuNTUsNjUuMjUgaCAtMS4wOSB2IC04LjI3IGggLTguMzcgdiAtMS4xOSBoIDkuNDYgeiIvPiYjeGE7JiN4YTs8cGF0aCBpZD0icGF0aDk1NjcxIiBpbmtzY2FwZTpjb25uZWN0b3ItY3VydmF0dXJlPSIwIiBzdHlsZT0iZmlsbDojYjhkNDMzO2ZpbGwtb3BhY2l0eTowLjUiIGQ9Im0gNDMuMDksNTUuNzkgaCAxLjA5IHYgOC4yNCBoIDguMzcgdiAxLjIyIGggLTkuNDYgeiIvPiYjeGE7JiN4YTs8cGF0aCBpZD0icGF0aDk1Njc5IiBpbmtzY2FwZTpjb25uZWN0b3ItY3VydmF0dXJlPSIwIiBzdHlsZT0iZmlsbDojYjhkNDMzO2ZpbGwtb3BhY2l0eTowLjgiIGQ9Im0gMjUuMiwzOS42IGggLTEuNCB2IC0xLjA4IGwgOC4xOSwtOC4zOCBoIDEuMjcgdiAwLjk1IHoiLz4mI3hhOyYjeGE7PHBhdGggaWQ9InBhdGg5NTY4NyIgaW5rc2NhcGU6Y29ubmVjdG9yLWN1cnZhdHVyZT0iMCIgc3R5bGU9ImZpbGw6I2I4ZDQzMztmaWxsLW9wYWNpdHk6MC44IiBkPSJtIDMxLjE2LDUyLjQyIGggLTEuNCB2IC0xLjA4IGwgOC4yNywtOC4zOCBoIDEuMjQgdiAwLjk1IHoiLz4mI3hhOyYjeGE7PHBhdGggaWQ9InBhdGg5NTY5NSIgaW5rc2NhcGU6Y29ubmVjdG9yLWN1cnZhdHVyZT0iMCIgc3R5bGU9ImZpbGw6I2I4ZDQzMztmaWxsLW9wYWNpdHk6MC44IiBkPSJtIDE3LjcsNTIuNDIgaCAtMS40IHYgLTEuMDggbCA4LjE5LC04LjM4IGggMS4yNyB2IDAuOTUgeiIvPiYjeGE7JiN4YTs8cGF0aCBpZD0icGF0aDk1NzAzIiBpbmtzY2FwZTpjb25uZWN0b3ItY3VydmF0dXJlPSIwIiBzdHlsZT0iZmlsbDojYjhkNDMzO2ZpbGwtb3BhY2l0eTowLjgiIGQ9Im0gMTcuNyw2NS4yNSBoIC0xLjQgdiAtMS4wOCBsIDguMTksLTguMzggaCAxLjI3IHYgMC45NSB6Ii8+JiN4YTsmI3hhOzxwYXRoIGlkPSJwYXRoOTU3MTEiIGlua3NjYXBlOmNvbm5lY3Rvci1jdXJ2YXR1cmU9IjAiIHN0eWxlPSJmaWxsOiNiOGQ0MzM7ZmlsbC1vcGFjaXR5OjAuOCIgZD0ibSAzMS4xNiw2NS4yNSBoIC0xLjQgdiAtMS4wOCBsIDguMjcsLTguMzggaCAxLjI0IHYgMC45NSB6Ii8+JiN4YTsmI3hhOzxwYXRoIGlkPSJwYXRoOTU3MTkiIGlua3NjYXBlOmNvbm5lY3Rvci1jdXJ2YXR1cmU9IjAiIHN0eWxlPSJmaWxsOiNiOGQ0MzM7ZmlsbC1vcGFjaXR5OjAuOCIgZD0ibSA0NC40OSw2NS4yNSBoIC0xLjQgdiAtMS4wOCBsIDguMTksLTguMzggaCAxLjI3IHYgMC45NSB6Ii8+JiN4YTsmI3hhOzxwYXRoIGlkPSJwYXRoOTU3MjkiIGlua3NjYXBlOmNvbm5lY3Rvci1jdXJ2YXR1cmU9IjAiIHN0eWxlPSJmaWxsOiMzOTk5YzYiIGQ9Im0gNTYuMDUsNDcuMTUgdiA0MS4xOCBjIDAsNC4yNCA5LjU5LDcuNzQgMjEuMzksNy43NCBWIDQ3LjE1IFoiLz4mI3hhOyYjeGE7PHBhdGggaWQ9InBhdGg5NTczNyIgaW5rc2NhcGU6Y29ubmVjdG9yLWN1cnZhdHVyZT0iMCIgc3R5bGU9ImZpbGw6IzVhYjRkOSIgZD0ibSA3Ny4xMiw5Ni4xIGggMC4zMiBjIDExLjgyLDAgMjEuMzksLTMuNSAyMS4zOSwtNy43NCBWIDQ3LjE1IEggNzcuMTIgWiIvPiYjeGE7JiN4YTs8cGF0aCBpZD0icGF0aDk1NzQ1IiBpbmtzY2FwZTpjb25uZWN0b3ItY3VydmF0dXJlPSIwIiBzdHlsZT0iZmlsbDojZmZmZmZmIiBkPSJtIDk4LjgzLDQ3LjE1IGMgMCw0LjI0IC05LjYsNy43NCAtMjEuMzksNy43NCAtMTEuOCwwIC0yMS4zOSwtMy40NyAtMjEuMzksLTcuNzQgMCwtNC4yNiA5LjU5LC03Ljc0IDIxLjM5LC03Ljc0IDExLjc5LDAgMjEuMzksMy40MiAyMS4zOSw3Ljc0IHoiLz4mI3hhOyYjeGE7PHBhdGggaWQ9InBhdGg5NTc1MyIgaW5rc2NhcGU6Y29ubmVjdG9yLWN1cnZhdHVyZT0iMCIgc3R5bGU9ImZpbGw6IzdmYmI0MiIgZD0ibSA5NC40Niw0Ni43IGMgMCwyLjc4IC03LjYxLDUuMTQgLTE3LjAyLDUuMTQgLTkuNCwwIC0xNy4wMSwtMi4yOCAtMTcuMDEsLTUuMTQgMCwtMi43OCA3LjYxLC01LjE0IDE3LjAxLC01LjE0IDkuNDEsMCAxNy4wMiwyLjMgMTcuMDIsNS4xNCB6Ii8+JiN4YTsmI3hhOzxwYXRoIGlkPSJwYXRoOTU3NjEiIGlua3NjYXBlOmNvbm5lY3Rvci1jdXJ2YXR1cmU9IjAiIHN0eWxlPSJmaWxsOiNiOGQ0MzMiIGQ9Im0gOTAuOTEsNDkuODMgYyAyLjIyLC0wLjkgMy41NSwtMS45NiAzLjU1LC0zLjEgMCwtMi43OCAtNy42MSwtNS4xNCAtMTcuMDIsLTUuMTQgLTkuNCwwIC0xNy4wMSwyLjI4IC0xNy4wMSw1LjE0IDAsMS4yMiAxLjMzLDIuMjggMy41NSwzLjEgMy4xLC0xLjIyIDguMDEsLTEuOTYgMTMuNDYsLTEuOTYgNS40NiwtMC4wOCAxMC4zNCwwLjc0IDEzLjQ3LDEuOTYgeiIvPiYjeGE7PHBhdGggZD0ibSA2MS4zODEyMyw3Ni42ODA3MiB2IC0yLjkyIGMgMC41LDAuNDUgMS4wOSwwLjc3IDEuNzIsMS4wMSAwLjY0LDAuMTggMS4yNywwLjMyIDEuODMsMC4zMiAwLjM3LDAgMC42OSwtMC4wNiAwLjk1LC0wLjE0IDAuMjcsLTAuMDUgMC41MSwtMC4xMyAwLjY5LC0wLjI2IDAuMTksLTAuMTMgMC4zMiwtMC4yNyAwLjM3LC0wLjQ1IDAuMDYsLTAuMTkgMC4xNCwtMC4zMiAwLjE0LC0wLjUxIDAsLTAuMjYgLTAuMDYsLTAuNSAtMC4xOSwtMC42OSAtMC4xMywtMC4xOCAtMC4zMiwtMC4zNyAtMC41OCwtMC41OCAtMC4yNywtMC4xOCAtMC41OCwtMC4zMiAtMC45LC0wLjUgLTAuMzIsLTAuMTMgLTAuNjksLTAuMzIgLTEuMTQsLTAuNTEgLTEuMDEsLTAuNDUgLTEuNzgsLTAuOTUgLTIuMjgsLTEuNTEgLTAuNSwtMC42MyAtMC43NywtMS4zMiAtMC43NywtMi4yMiAwLC0wLjY5IDAuMTMsLTEuMjcgMC4zNywtMS43MiAwLjI3LC0wLjUxIDAuNjQsLTAuOTEgMS4wOSwtMS4yMiAwLjQ1LC0wLjMyIDEsLTAuNTkgMS42NCwtMC42OSAwLjY0LC0wLjE0IDEuMjcsLTAuMTkgMS45NiwtMC4xOSAwLjY5LDAgMS4yNywwLjA1IDEuNzgsMC4xMyAwLjUsMC4wNiAxLDAuMTkgMS40NiwwLjM3IHYgMi43MyBjIC0wLjE5LC0wLjEzIC0wLjQ2LC0wLjI2IC0wLjY5LC0wLjM3IC0wLjI0LC0wLjEgLTAuNTEsLTAuMTggLTAuNzcsLTAuMjYgLTAuMjcsLTAuMDUgLTAuNTksLTAuMTMgLTAuODIsLTAuMTkgLTAuMjcsLTAuMDUgLTAuNTEsLTAuMDUgLTAuNzcsLTAuMDUgLTAuMzIsMCAtMC42NCwwIC0wLjksMC4wNSAtMC4yNywwLjA2IC0wLjUxLDAuMTQgLTAuNjksMC4yNyAtMC4xOSwwLjEzIC0wLjMyLDAuMjYgLTAuNDUsMC4zNyAtMC4xNCwwLjE4IC0wLjE0LDAuMzIgLTAuMTQsMC41IDAsMC4xOSAwLjA2LDAuMzcgMC4xOSwwLjU5IDAuMTMsMC4xOCAwLjI2LDAuMzEgMC41LDAuNSAwLjE5LDAuMTMgMC40NSwwLjMyIDAuNzcsMC40NSAwLjMyLDAuMTMgMC42NCwwLjMyIDEuMDEsMC40NSAwLjUsMC4xOSAxLjAxLDAuNDUgMS40LDAuNjkgMC40NSwwLjI2IDAuNzcsMC41IDEuMDksMC44MiAwLjMyLDAuMzIgMC41LDAuNjQgMC42OSwxLjA5IDAuMTMsMC4zNyAwLjI2LDAuODIgMC4yNiwxLjQgMCwwLjY5IC0wLjEzLDEuMzMgLTAuMzcsMS44MyAtMC4yNiwwLjUgLTAuNjMsMC45IC0xLjE0LDEuMjIgLTAuNDUsMC4zMiAtMSwwLjUgLTEuNjQsMC42NCAtMC42NCwwLjEzIC0xLjI3LDAuMTggLTEuOTYsMC4xOCAtMC42OSwwIC0xLjQxLC0wLjA1IC0yLjA0LC0wLjE4IC0wLjY2LDAgLTEuMjIsLTAuMjIgLTEuNjcsLTAuNDUgeiIgc3R5bGU9ImZpbGw6I2ZmZmZmZiIgaW5rc2NhcGU6Y29ubmVjdG9yLWN1cnZhdHVyZT0iMCIgaWQ9InBhdGg5NTc3MSIvPiYjeGE7PHBhdGggZD0ibSA3Ny44MDc4Myw3Ny40NDM0IGMgLTEuODIsMCAtMy4zNiwtMC42MyAtNC41NSwtMS44MyAtMS4xNCwtMS4yMiAtMS43OCwtMi43OCAtMS43OCwtNC43NyAwLC0yLjA0IDAuNTgsLTMuNjggMS43OCwtNC45NSAxLjIxLC0xLjI4IDIuNzMsLTEuOTEgNC42OSwtMS45MSAxLjgzLDAgMy4zNiwwLjYzIDQuNSwxLjgzIDEuMTQsMS4xOSAxLjcyLDIuNzggMS43Miw0LjgyIDAsMi4wNCAtMC41OCwzLjY4IC0xLjc3LDQuOTYgLTAuMDUsMC4wNSAtMC4wNSwwLjA1IC0wLjEzLDAuMTMgLTAuMDYsMC4wNSAtMC4wNiwwLjA1IC0wLjE0LDAuMTMgbCAzLjMyLDMuMTggaCAtNC4xNCBsIC0xLjcyLC0xLjc3IGMgLTAuNDIsMC4xIC0xLjA2LDAuMTggLTEuNzgsMC4xOCB6IG0gMC4xNCwtMTAuOTIgYyAtMS4wMSwwIC0xLjgzLDAuMzcgLTIuNDcsMS4xNCAtMC42MywwLjc3IC0wLjksMS43OCAtMC45LDMuMDUgMCwxLjI3IDAuMzIsMi4yOCAwLjksMy4wNSAwLjY0LDAuNzcgMS40MSwxLjE0IDIuMzYsMS4xNCAxLjAxLDAgMS43OCwtMC4zNyAyLjQxLC0xLjA5IDAuNTksLTAuNzcgMC45LC0xLjc4IDAuOSwtMy4wNSAwLC0xLjMyIC0wLjMxLC0yLjQxIC0wLjksLTMuMTggLTAuNTMsLTAuNjkgLTEuMywtMS4wNiAtMi4zLC0xLjA2IHoiIHN0eWxlPSJmaWxsOiNmZmZmZmYiIGlua3NjYXBlOmNvbm5lY3Rvci1jdXJ2YXR1cmU9IjAiIGlkPSJwYXRoOTU3NzkiLz4mI3hhOzxwYXRoIGQ9Im0gOTQuMTM4ODMsNzcuMTc4MjEgaCAtNy43NCB2IC0xMy4wMSBoIDIuOTIgdiAxMC42IGggNC44MiB6IiBzdHlsZT0iZmlsbDojZmZmZmZmIiBpbmtzY2FwZTpjb25uZWN0b3ItY3VydmF0dXJlPSIwIiBpZD0icGF0aDk1Nzg3Ii8+JiN4YTs8L3N2Zz4=;" vertex="1" parent="1">
          <mxGeometry x="283.99999999999994" y="387.5" width="62.91" height="61" as="geometry" />
        </mxCell>
        <mxCell id="UGVQ1dfHeVU3jZcF55VB-66" value="DWH-GFG" style="text;html=1;strokeColor=none;fillColor=none;align=center;verticalAlign=middle;whiteSpace=wrap;rounded=0;" vertex="1" parent="1">
          <mxGeometry x="383" y="378" width="82.39" height="30" as="geometry" />
        </mxCell>
        <mxCell id="UGVQ1dfHeVU3jZcF55VB-71" value="" style="group" vertex="1" connectable="0" parent="1">
          <mxGeometry x="181.13" y="365" width="66.75" height="89" as="geometry" />
        </mxCell>
        <mxCell id="UGVQ1dfHeVU3jZcF55VB-41" value="" style="shape=image;verticalLabelPosition=bottom;labelBackgroundColor=#ffffff;verticalAlign=top;aspect=fixed;imageAspect=0;image=data:image/svg+xml,PHN2ZyB4bWxuczpkYz0iaHR0cDovL3B1cmwub3JnL2RjL2VsZW1lbnRzLzEuMS8iIHhtbG5zOmNjPSJodHRwOi8vY3JlYXRpdmVjb21tb25zLm9yZy9ucyMiIHhtbG5zOnJkZj0iaHR0cDovL3d3dy53My5vcmcvMTk5OS8wMi8yMi1yZGYtc3ludGF4LW5zIyIgeG1sbnM6c3ZnPSJodHRwOi8vd3d3LnczLm9yZy8yMDAwL3N2ZyIgeG1sbnM9Imh0dHA6Ly93d3cudzMub3JnLzIwMDAvc3ZnIiB4bWxuczp4bGluaz0iaHR0cDovL3d3dy53My5vcmcvMTk5OS94bGluayIgeG1sbnM6c29kaXBvZGk9Imh0dHA6Ly9zb2RpcG9kaS5zb3VyY2Vmb3JnZS5uZXQvRFREL3NvZGlwb2RpLTAuZHRkIiB4bWxuczppbmtzY2FwZT0iaHR0cDovL3d3dy5pbmtzY2FwZS5vcmcvbmFtZXNwYWNlcy9pbmtzY2FwZSIgdmVyc2lvbj0iMS4xIiBpZD0iTGF5ZXJfMSIgeD0iMHB4IiB5PSIwcHgiIHZpZXdCb3g9IjAgMCAyNi45NDAwMDEgMzUuOTY2MzYyIiB4bWw6c3BhY2U9InByZXNlcnZlIiBzb2RpcG9kaTpkb2NuYW1lPSJzYXBfc2VfbW9uZ29kYi5zdmciIHdpZHRoPSIyNi45NDAwMDEiIGhlaWdodD0iMzUuOTY2MzYyIiBpbmtzY2FwZTp2ZXJzaW9uPSIwLjkyLjMgKDI0MDU1NDYsIDIwMTgtMDMtMTEpIj48bWV0YWRhdGEgaWQ9Im1ldGFkYXRhNTg2ODgiPjxyZGY6UkRGPjxjYzpXb3JrIHJkZjphYm91dD0iIj48ZGM6Zm9ybWF0PmltYWdlL3N2Zyt4bWw8L2RjOmZvcm1hdD48ZGM6dHlwZSByZGY6cmVzb3VyY2U9Imh0dHA6Ly9wdXJsLm9yZy9kYy9kY21pdHlwZS9TdGlsbEltYWdlIi8+PGRjOnRpdGxlLz48L2NjOldvcms+PC9yZGY6UkRGPjwvbWV0YWRhdGE+PGRlZnMgaWQ9ImRlZnM1ODY4NiIvPjxzb2RpcG9kaTpuYW1lZHZpZXcgcGFnZWNvbG9yPSIjZmZmZmZmIiBib3JkZXJjb2xvcj0iIzY2NjY2NiIgYm9yZGVyb3BhY2l0eT0iMSIgb2JqZWN0dG9sZXJhbmNlPSIxMCIgZ3JpZHRvbGVyYW5jZT0iMTAiIGd1aWRldG9sZXJhbmNlPSIxMCIgaW5rc2NhcGU6cGFnZW9wYWNpdHk9IjAiIGlua3NjYXBlOnBhZ2VzaGFkb3c9IjIiIGlua3NjYXBlOndpbmRvdy13aWR0aD0iMTkyMCIgaW5rc2NhcGU6d2luZG93LWhlaWdodD0iMTAxNyIgaWQ9Im5hbWVkdmlldzU4Njg0IiBzaG93Z3JpZD0iZmFsc2UiIGZpdC1tYXJnaW4tdG9wPSIwIiBmaXQtbWFyZ2luLWxlZnQ9IjAiIGZpdC1tYXJnaW4tcmlnaHQ9IjAiIGZpdC1tYXJnaW4tYm90dG9tPSIwIiBpbmtzY2FwZTp6b29tPSIxLjAzMDMwMyIgaW5rc2NhcGU6Y3g9Ii0yNi42NTUiIGlua3NjYXBlOmN5PSItMTc2LjQyMzY0IiBpbmtzY2FwZTp3aW5kb3cteD0iLTgiIGlua3NjYXBlOndpbmRvdy15PSItOCIgaW5rc2NhcGU6d2luZG93LW1heGltaXplZD0iMSIgaW5rc2NhcGU6Y3VycmVudC1sYXllcj0iTGF5ZXJfMSIvPiYjeGE7JiN4YTs8ZyBpZD0iZzU4NjgxIiB0cmFuc2Zvcm09InRyYW5zbGF0ZSgtMzI0LjAzLC0yMDguMzYpIj4mI3hhOwk8ZGVmcyBpZD0iZGVmczU4NjY0Ij4mI3hhOwkJPHJlY3QgaWQ9IlNWR0lEXzNfIiB4PSIzMjQuMDMiIHk9IjIwOC4zNiIgd2lkdGg9IjI4LjMyIiBoZWlnaHQ9IjM2LjgyIi8+JiN4YTsJPC9kZWZzPiYjeGE7CTxjbGlwUGF0aCBpZD0iU1ZHSURfNF8iPiYjeGE7CQk8dXNlIHhsaW5rOmhyZWY9IiNTVkdJRF8zXyIgc3R5bGU9Im92ZXJmbG93OnZpc2libGUiIGlkPSJ1c2U1ODY2NiIgeD0iMCIgeT0iMCIgd2lkdGg9IjEwMCUiIGhlaWdodD0iMTAwJSIvPiYjeGE7CTwvY2xpcFBhdGg+JiN4YTsJPGcgY2xpcC1wYXRoPSJ1cmwoI1NWR0lEXzRfKSIgaWQ9Imc1ODY3OSI+JiN4YTsJCTxkZWZzIGlkPSJkZWZzNTg2NzAiPiYjeGE7CQkJPHJlY3QgaWQ9IlNWR0lEXzVfIiB4PSIzMjQuMDMiIHk9IjIwOC4zNiIgd2lkdGg9IjI4LjMyIiBoZWlnaHQ9IjM2LjgyIi8+JiN4YTsJCTwvZGVmcz4mI3hhOwkJPGNsaXBQYXRoIGlkPSJTVkdJRF82XyI+JiN4YTsJCQk8dXNlIHhsaW5rOmhyZWY9IiNTVkdJRF81XyIgc3R5bGU9Im92ZXJmbG93OnZpc2libGUiIGlkPSJ1c2U1ODY3MiIgeD0iMCIgeT0iMCIgd2lkdGg9IjEwMCUiIGhlaWdodD0iMTAwJSIvPiYjeGE7CQk8L2NsaXBQYXRoPiYjeGE7CQk8cGF0aCBzdHlsZT0iZmlsbDojNWE3YTk0IiBkPSJtIDM0NS44OCwyMTcuMSBjIC0yLjY5LDAuOTYgLTUuNTEsMS4zOCAtOC4zOCwxLjMyIC0yLjg3LDAuMDYgLTUuNjksLTAuMzYgLTguMzgsLTEuMzIgLTEuNzQsLTAuNzIgLTIuODEsLTEuNjIgLTIuODEsLTIuNTIgMCwtMS41NiAzLjk1LC0zLjc3IDExLjIsLTMuNzcgNy4zLDAgMTEuMjYsMi4yMiAxMS4yNiwzLjc3IC0wLjAxLDAuOTEgLTEuMDksMS44MSAtMi44OSwyLjUyIHogbSAyLjg4LDEzLjEyIGMgMCwwLjkgLTEuMDgsMS44IC0yLjg3LDIuNDYgLTIuNjksMC45NiAtNS41MSwxLjM4IC04LjM4LDEuMzIgLTIuODcsMC4wNiAtNS42OSwtMC4zNiAtOC4zOCwtMS4zMiAtMS43NCwtMC42NiAtMi44MSwtMS42MiAtMi44MSwtMi40NiB2IC00LjAxIGMgMS4zMiwwLjc4IDIuNjksMS4zOCA0LjEzLDEuNjggMi4zMywwLjU0IDQuNjcsMC44NCA3LjA2LDAuNzggNC45MSwwIDguOTIsLTAuOSAxMS4yNiwtMi41OCB2IDQuMTMgeiBtIDAsNy44NSBjIDAsMC45IC0xLjA4LDEuOCAtMi44NywyLjUyIC0yLjY5LDAuOSAtNS41MSwxLjMyIC04LjM4LDEuMjYgLTIuODcsMC4wNiAtNS42OSwtMC4zNiAtOC4zOCwtMS4yNiAtMS43NCwtMC43MiAtMi44MSwtMS42OCAtMi44MSwtMi41MiBWIDIzNCBjIDEuMjYsMC44NCAyLjY5LDEuNDQgNC4xMywxLjggMi4zMywwLjU0IDQuNjcsMC44NCA3LjA2LDAuNzggMi4zOSwwLjA2IDQuNzksLTAuMjQgNy4xMiwtMC43OCAxLjUsLTAuMzYgMi45MywtMC45NiA0LjE5LC0xLjggdiA0LjA3IHogbSAxLjE5LC0yNi4xMiBjIC0wLjc4LC0wLjg0IC0xLjc0LC0xLjUgLTIuODEsLTEuOTIgLTMuMDUsLTEuMiAtNi4zNSwtMS43NCAtOS42NCwtMS42OCAtMy4yOSwtMC4wNiAtNi41OSwwLjQ4IC05LjY0LDEuNjggLTEuMDgsMC40MiAtMi4wNCwxLjA4IC0yLjc1LDEuOTIgLTAuNzIsMC43MiAtMS4wOCwxLjY4IC0xLjA4LDIuNjQgdiAyMy40MiBjIDAsMC45NiAwLjM2LDEuOTIgMS4wOCwyLjY0IDAuNzIsMC44NCAxLjY4LDEuNSAyLjc1LDEuOTIgMi4zOSwxLjE0IDUuNzUsMS43NCA5LjY0LDEuNzQgMy4yOSwwLjEyIDYuNTksLTAuNDIgOS42NCwtMS42MiAxLjA4LC0wLjQ4IDIuMDQsLTEuMTQgMi44MSwtMS45OCAwLjYsLTAuNzIgMS4wMiwtMS42MiAxLjAyLC0yLjY0IHYgLTIzLjQ4IGMgMCwtMC45NiAtMC4zNiwtMS45MiAtMS4wMiwtMi42NCB6IiBjbGlwLXBhdGg9InVybCgjU1ZHSURfNl8pIiBpZD0icGF0aDU4Njc1IiBpbmtzY2FwZTpjb25uZWN0b3ItY3VydmF0dXJlPSIwIi8+JiN4YTsJCTxwYXRoIHN0eWxlPSJmaWxsOiMwMDkyZDEiIGQ9Im0gMzQ4LjcsMjE0LjU5IGMgMCwwLjkgLTEuMDIsMS44IC0yLjg3LDIuNTIgLTIuNjksMC45NiAtNS41MSwxLjM4IC04LjM4LDEuMzIgLTIuODEsMC4wNiAtNS42MywtMC4zNiAtOC4zMiwtMS4zMiAtMS44LC0wLjcyIC0yLjgxLC0xLjYyIC0yLjgxLC0yLjUyIHYgMTEuNjIgYyAxLjI2LDAuNzggMi42MywxLjM4IDQuMTMsMS42OCAyLjI4LDAuNTQgNC42NywwLjg0IDcuMDEsMC43OCA0LjkxLDAgOC45OCwtMC45IDExLjI2LC0yLjU4IHYgLTExLjUgeiIgY2xpcC1wYXRoPSJ1cmwoI1NWR0lEXzZfKSIgaWQ9InBhdGg1ODY3NyIgaW5rc2NhcGU6Y29ubmVjdG9yLWN1cnZhdHVyZT0iMCIvPiYjeGE7CTwvZz4mI3hhOzwvZz4mI3hhOzwvc3ZnPg==;fillColor=#D4E1F5;" vertex="1" parent="UGVQ1dfHeVU3jZcF55VB-71">
          <mxGeometry y="5" width="15" height="20" as="geometry" />
        </mxCell>
        <mxCell id="UGVQ1dfHeVU3jZcF55VB-43" value="" style="shape=image;verticalLabelPosition=bottom;labelBackgroundColor=#ffffff;verticalAlign=top;aspect=fixed;imageAspect=0;image=data:image/svg+xml,PHN2ZyB4bWxuczpkYz0iaHR0cDovL3B1cmwub3JnL2RjL2VsZW1lbnRzLzEuMS8iIHhtbG5zOmNjPSJodHRwOi8vY3JlYXRpdmVjb21tb25zLm9yZy9ucyMiIHhtbG5zOnJkZj0iaHR0cDovL3d3dy53My5vcmcvMTk5OS8wMi8yMi1yZGYtc3ludGF4LW5zIyIgeG1sbnM6c3ZnPSJodHRwOi8vd3d3LnczLm9yZy8yMDAwL3N2ZyIgeG1sbnM9Imh0dHA6Ly93d3cudzMub3JnLzIwMDAvc3ZnIiB4bWxuczp4bGluaz0iaHR0cDovL3d3dy53My5vcmcvMTk5OS94bGluayIgeG1sbnM6c29kaXBvZGk9Imh0dHA6Ly9zb2RpcG9kaS5zb3VyY2Vmb3JnZS5uZXQvRFREL3NvZGlwb2RpLTAuZHRkIiB4bWxuczppbmtzY2FwZT0iaHR0cDovL3d3dy5pbmtzY2FwZS5vcmcvbmFtZXNwYWNlcy9pbmtzY2FwZSIgdmVyc2lvbj0iMS4xIiBpZD0iTGF5ZXJfMSIgeD0iMHB4IiB5PSIwcHgiIHZpZXdCb3g9IjAgMCAyNi45NDAwMDEgMzUuOTY2MzYyIiB4bWw6c3BhY2U9InByZXNlcnZlIiBzb2RpcG9kaTpkb2NuYW1lPSJzYXBfc2VfbW9uZ29kYi5zdmciIHdpZHRoPSIyNi45NDAwMDEiIGhlaWdodD0iMzUuOTY2MzYyIiBpbmtzY2FwZTp2ZXJzaW9uPSIwLjkyLjMgKDI0MDU1NDYsIDIwMTgtMDMtMTEpIj48bWV0YWRhdGEgaWQ9Im1ldGFkYXRhNTg2ODgiPjxyZGY6UkRGPjxjYzpXb3JrIHJkZjphYm91dD0iIj48ZGM6Zm9ybWF0PmltYWdlL3N2Zyt4bWw8L2RjOmZvcm1hdD48ZGM6dHlwZSByZGY6cmVzb3VyY2U9Imh0dHA6Ly9wdXJsLm9yZy9kYy9kY21pdHlwZS9TdGlsbEltYWdlIi8+PGRjOnRpdGxlLz48L2NjOldvcms+PC9yZGY6UkRGPjwvbWV0YWRhdGE+PGRlZnMgaWQ9ImRlZnM1ODY4NiIvPjxzb2RpcG9kaTpuYW1lZHZpZXcgcGFnZWNvbG9yPSIjZmZmZmZmIiBib3JkZXJjb2xvcj0iIzY2NjY2NiIgYm9yZGVyb3BhY2l0eT0iMSIgb2JqZWN0dG9sZXJhbmNlPSIxMCIgZ3JpZHRvbGVyYW5jZT0iMTAiIGd1aWRldG9sZXJhbmNlPSIxMCIgaW5rc2NhcGU6cGFnZW9wYWNpdHk9IjAiIGlua3NjYXBlOnBhZ2VzaGFkb3c9IjIiIGlua3NjYXBlOndpbmRvdy13aWR0aD0iMTkyMCIgaW5rc2NhcGU6d2luZG93LWhlaWdodD0iMTAxNyIgaWQ9Im5hbWVkdmlldzU4Njg0IiBzaG93Z3JpZD0iZmFsc2UiIGZpdC1tYXJnaW4tdG9wPSIwIiBmaXQtbWFyZ2luLWxlZnQ9IjAiIGZpdC1tYXJnaW4tcmlnaHQ9IjAiIGZpdC1tYXJnaW4tYm90dG9tPSIwIiBpbmtzY2FwZTp6b29tPSIxLjAzMDMwMyIgaW5rc2NhcGU6Y3g9Ii0yNi42NTUiIGlua3NjYXBlOmN5PSItMTc2LjQyMzY0IiBpbmtzY2FwZTp3aW5kb3cteD0iLTgiIGlua3NjYXBlOndpbmRvdy15PSItOCIgaW5rc2NhcGU6d2luZG93LW1heGltaXplZD0iMSIgaW5rc2NhcGU6Y3VycmVudC1sYXllcj0iTGF5ZXJfMSIvPiYjeGE7JiN4YTs8ZyBpZD0iZzU4NjgxIiB0cmFuc2Zvcm09InRyYW5zbGF0ZSgtMzI0LjAzLC0yMDguMzYpIj4mI3hhOwk8ZGVmcyBpZD0iZGVmczU4NjY0Ij4mI3hhOwkJPHJlY3QgaWQ9IlNWR0lEXzNfIiB4PSIzMjQuMDMiIHk9IjIwOC4zNiIgd2lkdGg9IjI4LjMyIiBoZWlnaHQ9IjM2LjgyIi8+JiN4YTsJPC9kZWZzPiYjeGE7CTxjbGlwUGF0aCBpZD0iU1ZHSURfNF8iPiYjeGE7CQk8dXNlIHhsaW5rOmhyZWY9IiNTVkdJRF8zXyIgc3R5bGU9Im92ZXJmbG93OnZpc2libGUiIGlkPSJ1c2U1ODY2NiIgeD0iMCIgeT0iMCIgd2lkdGg9IjEwMCUiIGhlaWdodD0iMTAwJSIvPiYjeGE7CTwvY2xpcFBhdGg+JiN4YTsJPGcgY2xpcC1wYXRoPSJ1cmwoI1NWR0lEXzRfKSIgaWQ9Imc1ODY3OSI+JiN4YTsJCTxkZWZzIGlkPSJkZWZzNTg2NzAiPiYjeGE7CQkJPHJlY3QgaWQ9IlNWR0lEXzVfIiB4PSIzMjQuMDMiIHk9IjIwOC4zNiIgd2lkdGg9IjI4LjMyIiBoZWlnaHQ9IjM2LjgyIi8+JiN4YTsJCTwvZGVmcz4mI3hhOwkJPGNsaXBQYXRoIGlkPSJTVkdJRF82XyI+JiN4YTsJCQk8dXNlIHhsaW5rOmhyZWY9IiNTVkdJRF81XyIgc3R5bGU9Im92ZXJmbG93OnZpc2libGUiIGlkPSJ1c2U1ODY3MiIgeD0iMCIgeT0iMCIgd2lkdGg9IjEwMCUiIGhlaWdodD0iMTAwJSIvPiYjeGE7CQk8L2NsaXBQYXRoPiYjeGE7CQk8cGF0aCBzdHlsZT0iZmlsbDojNWE3YTk0IiBkPSJtIDM0NS44OCwyMTcuMSBjIC0yLjY5LDAuOTYgLTUuNTEsMS4zOCAtOC4zOCwxLjMyIC0yLjg3LDAuMDYgLTUuNjksLTAuMzYgLTguMzgsLTEuMzIgLTEuNzQsLTAuNzIgLTIuODEsLTEuNjIgLTIuODEsLTIuNTIgMCwtMS41NiAzLjk1LC0zLjc3IDExLjIsLTMuNzcgNy4zLDAgMTEuMjYsMi4yMiAxMS4yNiwzLjc3IC0wLjAxLDAuOTEgLTEuMDksMS44MSAtMi44OSwyLjUyIHogbSAyLjg4LDEzLjEyIGMgMCwwLjkgLTEuMDgsMS44IC0yLjg3LDIuNDYgLTIuNjksMC45NiAtNS41MSwxLjM4IC04LjM4LDEuMzIgLTIuODcsMC4wNiAtNS42OSwtMC4zNiAtOC4zOCwtMS4zMiAtMS43NCwtMC42NiAtMi44MSwtMS42MiAtMi44MSwtMi40NiB2IC00LjAxIGMgMS4zMiwwLjc4IDIuNjksMS4zOCA0LjEzLDEuNjggMi4zMywwLjU0IDQuNjcsMC44NCA3LjA2LDAuNzggNC45MSwwIDguOTIsLTAuOSAxMS4yNiwtMi41OCB2IDQuMTMgeiBtIDAsNy44NSBjIDAsMC45IC0xLjA4LDEuOCAtMi44NywyLjUyIC0yLjY5LDAuOSAtNS41MSwxLjMyIC04LjM4LDEuMjYgLTIuODcsMC4wNiAtNS42OSwtMC4zNiAtOC4zOCwtMS4yNiAtMS43NCwtMC43MiAtMi44MSwtMS42OCAtMi44MSwtMi41MiBWIDIzNCBjIDEuMjYsMC44NCAyLjY5LDEuNDQgNC4xMywxLjggMi4zMywwLjU0IDQuNjcsMC44NCA3LjA2LDAuNzggMi4zOSwwLjA2IDQuNzksLTAuMjQgNy4xMiwtMC43OCAxLjUsLTAuMzYgMi45MywtMC45NiA0LjE5LC0xLjggdiA0LjA3IHogbSAxLjE5LC0yNi4xMiBjIC0wLjc4LC0wLjg0IC0xLjc0LC0xLjUgLTIuODEsLTEuOTIgLTMuMDUsLTEuMiAtNi4zNSwtMS43NCAtOS42NCwtMS42OCAtMy4yOSwtMC4wNiAtNi41OSwwLjQ4IC05LjY0LDEuNjggLTEuMDgsMC40MiAtMi4wNCwxLjA4IC0yLjc1LDEuOTIgLTAuNzIsMC43MiAtMS4wOCwxLjY4IC0xLjA4LDIuNjQgdiAyMy40MiBjIDAsMC45NiAwLjM2LDEuOTIgMS4wOCwyLjY0IDAuNzIsMC44NCAxLjY4LDEuNSAyLjc1LDEuOTIgMi4zOSwxLjE0IDUuNzUsMS43NCA5LjY0LDEuNzQgMy4yOSwwLjEyIDYuNTksLTAuNDIgOS42NCwtMS42MiAxLjA4LC0wLjQ4IDIuMDQsLTEuMTQgMi44MSwtMS45OCAwLjYsLTAuNzIgMS4wMiwtMS42MiAxLjAyLC0yLjY0IHYgLTIzLjQ4IGMgMCwtMC45NiAtMC4zNiwtMS45MiAtMS4wMiwtMi42NCB6IiBjbGlwLXBhdGg9InVybCgjU1ZHSURfNl8pIiBpZD0icGF0aDU4Njc1IiBpbmtzY2FwZTpjb25uZWN0b3ItY3VydmF0dXJlPSIwIi8+JiN4YTsJCTxwYXRoIHN0eWxlPSJmaWxsOiMwMDkyZDEiIGQ9Im0gMzQ4LjcsMjE0LjU5IGMgMCwwLjkgLTEuMDIsMS44IC0yLjg3LDIuNTIgLTIuNjksMC45NiAtNS41MSwxLjM4IC04LjM4LDEuMzIgLTIuODEsMC4wNiAtNS42MywtMC4zNiAtOC4zMiwtMS4zMiAtMS44LC0wLjcyIC0yLjgxLC0xLjYyIC0yLjgxLC0yLjUyIHYgMTEuNjIgYyAxLjI2LDAuNzggMi42MywxLjM4IDQuMTMsMS42OCAyLjI4LDAuNTQgNC42NywwLjg0IDcuMDEsMC43OCA0LjkxLDAgOC45OCwtMC45IDExLjI2LC0yLjU4IHYgLTExLjUgeiIgY2xpcC1wYXRoPSJ1cmwoI1NWR0lEXzZfKSIgaWQ9InBhdGg1ODY3NyIgaW5rc2NhcGU6Y29ubmVjdG9yLWN1cnZhdHVyZT0iMCIvPiYjeGE7CTwvZz4mI3hhOzwvZz4mI3hhOzwvc3ZnPg==;fillColor=#D4E1F5;" vertex="1" parent="UGVQ1dfHeVU3jZcF55VB-71">
          <mxGeometry y="33" width="16.5" height="22" as="geometry" />
        </mxCell>
        <mxCell id="UGVQ1dfHeVU3jZcF55VB-44" value="" style="shape=image;verticalLabelPosition=bottom;labelBackgroundColor=#ffffff;verticalAlign=top;aspect=fixed;imageAspect=0;image=data:image/svg+xml,PHN2ZyB4bWxuczpkYz0iaHR0cDovL3B1cmwub3JnL2RjL2VsZW1lbnRzLzEuMS8iIHhtbG5zOmNjPSJodHRwOi8vY3JlYXRpdmVjb21tb25zLm9yZy9ucyMiIHhtbG5zOnJkZj0iaHR0cDovL3d3dy53My5vcmcvMTk5OS8wMi8yMi1yZGYtc3ludGF4LW5zIyIgeG1sbnM6c3ZnPSJodHRwOi8vd3d3LnczLm9yZy8yMDAwL3N2ZyIgeG1sbnM9Imh0dHA6Ly93d3cudzMub3JnLzIwMDAvc3ZnIiB4bWxuczp4bGluaz0iaHR0cDovL3d3dy53My5vcmcvMTk5OS94bGluayIgeG1sbnM6c29kaXBvZGk9Imh0dHA6Ly9zb2RpcG9kaS5zb3VyY2Vmb3JnZS5uZXQvRFREL3NvZGlwb2RpLTAuZHRkIiB4bWxuczppbmtzY2FwZT0iaHR0cDovL3d3dy5pbmtzY2FwZS5vcmcvbmFtZXNwYWNlcy9pbmtzY2FwZSIgdmVyc2lvbj0iMS4xIiBpZD0iTGF5ZXJfMSIgeD0iMHB4IiB5PSIwcHgiIHZpZXdCb3g9IjAgMCAyNi45NDAwMDEgMzUuOTY2MzYyIiB4bWw6c3BhY2U9InByZXNlcnZlIiBzb2RpcG9kaTpkb2NuYW1lPSJzYXBfc2VfbW9uZ29kYi5zdmciIHdpZHRoPSIyNi45NDAwMDEiIGhlaWdodD0iMzUuOTY2MzYyIiBpbmtzY2FwZTp2ZXJzaW9uPSIwLjkyLjMgKDI0MDU1NDYsIDIwMTgtMDMtMTEpIj48bWV0YWRhdGEgaWQ9Im1ldGFkYXRhNTg2ODgiPjxyZGY6UkRGPjxjYzpXb3JrIHJkZjphYm91dD0iIj48ZGM6Zm9ybWF0PmltYWdlL3N2Zyt4bWw8L2RjOmZvcm1hdD48ZGM6dHlwZSByZGY6cmVzb3VyY2U9Imh0dHA6Ly9wdXJsLm9yZy9kYy9kY21pdHlwZS9TdGlsbEltYWdlIi8+PGRjOnRpdGxlLz48L2NjOldvcms+PC9yZGY6UkRGPjwvbWV0YWRhdGE+PGRlZnMgaWQ9ImRlZnM1ODY4NiIvPjxzb2RpcG9kaTpuYW1lZHZpZXcgcGFnZWNvbG9yPSIjZmZmZmZmIiBib3JkZXJjb2xvcj0iIzY2NjY2NiIgYm9yZGVyb3BhY2l0eT0iMSIgb2JqZWN0dG9sZXJhbmNlPSIxMCIgZ3JpZHRvbGVyYW5jZT0iMTAiIGd1aWRldG9sZXJhbmNlPSIxMCIgaW5rc2NhcGU6cGFnZW9wYWNpdHk9IjAiIGlua3NjYXBlOnBhZ2VzaGFkb3c9IjIiIGlua3NjYXBlOndpbmRvdy13aWR0aD0iMTkyMCIgaW5rc2NhcGU6d2luZG93LWhlaWdodD0iMTAxNyIgaWQ9Im5hbWVkdmlldzU4Njg0IiBzaG93Z3JpZD0iZmFsc2UiIGZpdC1tYXJnaW4tdG9wPSIwIiBmaXQtbWFyZ2luLWxlZnQ9IjAiIGZpdC1tYXJnaW4tcmlnaHQ9IjAiIGZpdC1tYXJnaW4tYm90dG9tPSIwIiBpbmtzY2FwZTp6b29tPSIxLjAzMDMwMyIgaW5rc2NhcGU6Y3g9Ii0yNi42NTUiIGlua3NjYXBlOmN5PSItMTc2LjQyMzY0IiBpbmtzY2FwZTp3aW5kb3cteD0iLTgiIGlua3NjYXBlOndpbmRvdy15PSItOCIgaW5rc2NhcGU6d2luZG93LW1heGltaXplZD0iMSIgaW5rc2NhcGU6Y3VycmVudC1sYXllcj0iTGF5ZXJfMSIvPiYjeGE7JiN4YTs8ZyBpZD0iZzU4NjgxIiB0cmFuc2Zvcm09InRyYW5zbGF0ZSgtMzI0LjAzLC0yMDguMzYpIj4mI3hhOwk8ZGVmcyBpZD0iZGVmczU4NjY0Ij4mI3hhOwkJPHJlY3QgaWQ9IlNWR0lEXzNfIiB4PSIzMjQuMDMiIHk9IjIwOC4zNiIgd2lkdGg9IjI4LjMyIiBoZWlnaHQ9IjM2LjgyIi8+JiN4YTsJPC9kZWZzPiYjeGE7CTxjbGlwUGF0aCBpZD0iU1ZHSURfNF8iPiYjeGE7CQk8dXNlIHhsaW5rOmhyZWY9IiNTVkdJRF8zXyIgc3R5bGU9Im92ZXJmbG93OnZpc2libGUiIGlkPSJ1c2U1ODY2NiIgeD0iMCIgeT0iMCIgd2lkdGg9IjEwMCUiIGhlaWdodD0iMTAwJSIvPiYjeGE7CTwvY2xpcFBhdGg+JiN4YTsJPGcgY2xpcC1wYXRoPSJ1cmwoI1NWR0lEXzRfKSIgaWQ9Imc1ODY3OSI+JiN4YTsJCTxkZWZzIGlkPSJkZWZzNTg2NzAiPiYjeGE7CQkJPHJlY3QgaWQ9IlNWR0lEXzVfIiB4PSIzMjQuMDMiIHk9IjIwOC4zNiIgd2lkdGg9IjI4LjMyIiBoZWlnaHQ9IjM2LjgyIi8+JiN4YTsJCTwvZGVmcz4mI3hhOwkJPGNsaXBQYXRoIGlkPSJTVkdJRF82XyI+JiN4YTsJCQk8dXNlIHhsaW5rOmhyZWY9IiNTVkdJRF81XyIgc3R5bGU9Im92ZXJmbG93OnZpc2libGUiIGlkPSJ1c2U1ODY3MiIgeD0iMCIgeT0iMCIgd2lkdGg9IjEwMCUiIGhlaWdodD0iMTAwJSIvPiYjeGE7CQk8L2NsaXBQYXRoPiYjeGE7CQk8cGF0aCBzdHlsZT0iZmlsbDojNWE3YTk0IiBkPSJtIDM0NS44OCwyMTcuMSBjIC0yLjY5LDAuOTYgLTUuNTEsMS4zOCAtOC4zOCwxLjMyIC0yLjg3LDAuMDYgLTUuNjksLTAuMzYgLTguMzgsLTEuMzIgLTEuNzQsLTAuNzIgLTIuODEsLTEuNjIgLTIuODEsLTIuNTIgMCwtMS41NiAzLjk1LC0zLjc3IDExLjIsLTMuNzcgNy4zLDAgMTEuMjYsMi4yMiAxMS4yNiwzLjc3IC0wLjAxLDAuOTEgLTEuMDksMS44MSAtMi44OSwyLjUyIHogbSAyLjg4LDEzLjEyIGMgMCwwLjkgLTEuMDgsMS44IC0yLjg3LDIuNDYgLTIuNjksMC45NiAtNS41MSwxLjM4IC04LjM4LDEuMzIgLTIuODcsMC4wNiAtNS42OSwtMC4zNiAtOC4zOCwtMS4zMiAtMS43NCwtMC42NiAtMi44MSwtMS42MiAtMi44MSwtMi40NiB2IC00LjAxIGMgMS4zMiwwLjc4IDIuNjksMS4zOCA0LjEzLDEuNjggMi4zMywwLjU0IDQuNjcsMC44NCA3LjA2LDAuNzggNC45MSwwIDguOTIsLTAuOSAxMS4yNiwtMi41OCB2IDQuMTMgeiBtIDAsNy44NSBjIDAsMC45IC0xLjA4LDEuOCAtMi44NywyLjUyIC0yLjY5LDAuOSAtNS41MSwxLjMyIC04LjM4LDEuMjYgLTIuODcsMC4wNiAtNS42OSwtMC4zNiAtOC4zOCwtMS4yNiAtMS43NCwtMC43MiAtMi44MSwtMS42OCAtMi44MSwtMi41MiBWIDIzNCBjIDEuMjYsMC44NCAyLjY5LDEuNDQgNC4xMywxLjggMi4zMywwLjU0IDQuNjcsMC44NCA3LjA2LDAuNzggMi4zOSwwLjA2IDQuNzksLTAuMjQgNy4xMiwtMC43OCAxLjUsLTAuMzYgMi45MywtMC45NiA0LjE5LC0xLjggdiA0LjA3IHogbSAxLjE5LC0yNi4xMiBjIC0wLjc4LC0wLjg0IC0xLjc0LC0xLjUgLTIuODEsLTEuOTIgLTMuMDUsLTEuMiAtNi4zNSwtMS43NCAtOS42NCwtMS42OCAtMy4yOSwtMC4wNiAtNi41OSwwLjQ4IC05LjY0LDEuNjggLTEuMDgsMC40MiAtMi4wNCwxLjA4IC0yLjc1LDEuOTIgLTAuNzIsMC43MiAtMS4wOCwxLjY4IC0xLjA4LDIuNjQgdiAyMy40MiBjIDAsMC45NiAwLjM2LDEuOTIgMS4wOCwyLjY0IDAuNzIsMC44NCAxLjY4LDEuNSAyLjc1LDEuOTIgMi4zOSwxLjE0IDUuNzUsMS43NCA5LjY0LDEuNzQgMy4yOSwwLjEyIDYuNTksLTAuNDIgOS42NCwtMS42MiAxLjA4LC0wLjQ4IDIuMDQsLTEuMTQgMi44MSwtMS45OCAwLjYsLTAuNzIgMS4wMiwtMS42MiAxLjAyLC0yLjY0IHYgLTIzLjQ4IGMgMCwtMC45NiAtMC4zNiwtMS45MiAtMS4wMiwtMi42NCB6IiBjbGlwLXBhdGg9InVybCgjU1ZHSURfNl8pIiBpZD0icGF0aDU4Njc1IiBpbmtzY2FwZTpjb25uZWN0b3ItY3VydmF0dXJlPSIwIi8+JiN4YTsJCTxwYXRoIHN0eWxlPSJmaWxsOiMwMDkyZDEiIGQ9Im0gMzQ4LjcsMjE0LjU5IGMgMCwwLjkgLTEuMDIsMS44IC0yLjg3LDIuNTIgLTIuNjksMC45NiAtNS41MSwxLjM4IC04LjM4LDEuMzIgLTIuODEsMC4wNiAtNS42MywtMC4zNiAtOC4zMiwtMS4zMiAtMS44LC0wLjcyIC0yLjgxLC0xLjYyIC0yLjgxLC0yLjUyIHYgMTEuNjIgYyAxLjI2LDAuNzggMi42MywxLjM4IDQuMTMsMS42OCAyLjI4LDAuNTQgNC42NywwLjg0IDcuMDEsMC43OCA0LjkxLDAgOC45OCwtMC45IDExLjI2LC0yLjU4IHYgLTExLjUgeiIgY2xpcC1wYXRoPSJ1cmwoI1NWR0lEXzZfKSIgaWQ9InBhdGg1ODY3NyIgaW5rc2NhcGU6Y29ubmVjdG9yLWN1cnZhdHVyZT0iMCIvPiYjeGE7CTwvZz4mI3hhOzwvZz4mI3hhOzwvc3ZnPg==;fillColor=#D4E1F5;" vertex="1" parent="UGVQ1dfHeVU3jZcF55VB-71">
          <mxGeometry y="63" width="16.5" height="22" as="geometry" />
        </mxCell>
        <mxCell id="UGVQ1dfHeVU3jZcF55VB-49" value="DWH" style="text;html=1;strokeColor=none;fillColor=none;align=center;verticalAlign=middle;whiteSpace=wrap;rounded=0;" vertex="1" parent="UGVQ1dfHeVU3jZcF55VB-71">
          <mxGeometry x="8.75" width="57" height="30" as="geometry" />
        </mxCell>
        <mxCell id="UGVQ1dfHeVU3jZcF55VB-50" value="MEX" style="text;html=1;strokeColor=none;fillColor=none;align=center;verticalAlign=middle;whiteSpace=wrap;rounded=0;" vertex="1" parent="UGVQ1dfHeVU3jZcF55VB-71">
          <mxGeometry x="9.75" y="29" width="57" height="30" as="geometry" />
        </mxCell>
        <mxCell id="UGVQ1dfHeVU3jZcF55VB-51" value="C360" style="text;html=1;strokeColor=none;fillColor=none;align=center;verticalAlign=middle;whiteSpace=wrap;rounded=0;" vertex="1" parent="UGVQ1dfHeVU3jZcF55VB-71">
          <mxGeometry x="9.75" y="59" width="57" height="30" as="geometry" />
        </mxCell>
        <mxCell id="UGVQ1dfHeVU3jZcF55VB-72" value="Synapse Workgroup" style="text;html=1;strokeColor=none;fillColor=none;align=center;verticalAlign=middle;whiteSpace=wrap;rounded=0;" vertex="1" parent="1">
          <mxGeometry x="260.06" y="360" width="122.94" height="30" as="geometry" />
        </mxCell>
        <mxCell id="UGVQ1dfHeVU3jZcF55VB-75" value="" style="shape=link;html=1;rounded=0;entryX=1;entryY=0;entryDx=0;entryDy=0;" edge="1" parent="1" target="UGVQ1dfHeVU3jZcF55VB-49">
          <mxGeometry width="100" relative="1" as="geometry">
            <mxPoint x="247" y="470" as="sourcePoint" />
            <mxPoint x="460" y="430" as="targetPoint" />
          </mxGeometry>
        </mxCell>
        <mxCell id="UGVQ1dfHeVU3jZcF55VB-76" value="ADW- GFG" style="text;html=1;strokeColor=none;fillColor=none;align=center;verticalAlign=middle;whiteSpace=wrap;rounded=0;" vertex="1" parent="1">
          <mxGeometry x="247.88" y="433" width="62.12" height="25" as="geometry" />
        </mxCell>
        <mxCell id="UGVQ1dfHeVU3jZcF55VB-80" value="" style="shape=image;verticalLabelPosition=bottom;labelBackgroundColor=#ffffff;verticalAlign=top;aspect=fixed;imageAspect=0;image=data:image/svg+xml,PHN2ZyB4bWxuczpkYz0iaHR0cDovL3B1cmwub3JnL2RjL2VsZW1lbnRzLzEuMS8iIHhtbG5zOmNjPSJodHRwOi8vY3JlYXRpdmVjb21tb25zLm9yZy9ucyMiIHhtbG5zOnJkZj0iaHR0cDovL3d3dy53My5vcmcvMTk5OS8wMi8yMi1yZGYtc3ludGF4LW5zIyIgeG1sbnM6c3ZnPSJodHRwOi8vd3d3LnczLm9yZy8yMDAwL3N2ZyIgeG1sbnM9Imh0dHA6Ly93d3cudzMub3JnLzIwMDAvc3ZnIiB4bWxuczp4bGluaz0iaHR0cDovL3d3dy53My5vcmcvMTk5OS94bGluayIgeG1sbnM6c29kaXBvZGk9Imh0dHA6Ly9zb2RpcG9kaS5zb3VyY2Vmb3JnZS5uZXQvRFREL3NvZGlwb2RpLTAuZHRkIiB4bWxuczppbmtzY2FwZT0iaHR0cDovL3d3dy5pbmtzY2FwZS5vcmcvbmFtZXNwYWNlcy9pbmtzY2FwZSIgdmVyc2lvbj0iMS4xIiBpZD0iTGF5ZXJfMSIgeD0iMHB4IiB5PSIwcHgiIHZpZXdCb3g9IjAgMCAyNi45NDAwMDEgMzUuOTY2MzYyIiB4bWw6c3BhY2U9InByZXNlcnZlIiBzb2RpcG9kaTpkb2NuYW1lPSJzYXBfc2VfbW9uZ29kYi5zdmciIHdpZHRoPSIyNi45NDAwMDEiIGhlaWdodD0iMzUuOTY2MzYyIiBpbmtzY2FwZTp2ZXJzaW9uPSIwLjkyLjMgKDI0MDU1NDYsIDIwMTgtMDMtMTEpIj48bWV0YWRhdGEgaWQ9Im1ldGFkYXRhNTg2ODgiPjxyZGY6UkRGPjxjYzpXb3JrIHJkZjphYm91dD0iIj48ZGM6Zm9ybWF0PmltYWdlL3N2Zyt4bWw8L2RjOmZvcm1hdD48ZGM6dHlwZSByZGY6cmVzb3VyY2U9Imh0dHA6Ly9wdXJsLm9yZy9kYy9kY21pdHlwZS9TdGlsbEltYWdlIi8+PGRjOnRpdGxlLz48L2NjOldvcms+PC9yZGY6UkRGPjwvbWV0YWRhdGE+PGRlZnMgaWQ9ImRlZnM1ODY4NiIvPjxzb2RpcG9kaTpuYW1lZHZpZXcgcGFnZWNvbG9yPSIjZmZmZmZmIiBib3JkZXJjb2xvcj0iIzY2NjY2NiIgYm9yZGVyb3BhY2l0eT0iMSIgb2JqZWN0dG9sZXJhbmNlPSIxMCIgZ3JpZHRvbGVyYW5jZT0iMTAiIGd1aWRldG9sZXJhbmNlPSIxMCIgaW5rc2NhcGU6cGFnZW9wYWNpdHk9IjAiIGlua3NjYXBlOnBhZ2VzaGFkb3c9IjIiIGlua3NjYXBlOndpbmRvdy13aWR0aD0iMTkyMCIgaW5rc2NhcGU6d2luZG93LWhlaWdodD0iMTAxNyIgaWQ9Im5hbWVkdmlldzU4Njg0IiBzaG93Z3JpZD0iZmFsc2UiIGZpdC1tYXJnaW4tdG9wPSIwIiBmaXQtbWFyZ2luLWxlZnQ9IjAiIGZpdC1tYXJnaW4tcmlnaHQ9IjAiIGZpdC1tYXJnaW4tYm90dG9tPSIwIiBpbmtzY2FwZTp6b29tPSIxLjAzMDMwMyIgaW5rc2NhcGU6Y3g9Ii0yNi42NTUiIGlua3NjYXBlOmN5PSItMTc2LjQyMzY0IiBpbmtzY2FwZTp3aW5kb3cteD0iLTgiIGlua3NjYXBlOndpbmRvdy15PSItOCIgaW5rc2NhcGU6d2luZG93LW1heGltaXplZD0iMSIgaW5rc2NhcGU6Y3VycmVudC1sYXllcj0iTGF5ZXJfMSIvPiYjeGE7JiN4YTs8ZyBpZD0iZzU4NjgxIiB0cmFuc2Zvcm09InRyYW5zbGF0ZSgtMzI0LjAzLC0yMDguMzYpIj4mI3hhOwk8ZGVmcyBpZD0iZGVmczU4NjY0Ij4mI3hhOwkJPHJlY3QgaWQ9IlNWR0lEXzNfIiB4PSIzMjQuMDMiIHk9IjIwOC4zNiIgd2lkdGg9IjI4LjMyIiBoZWlnaHQ9IjM2LjgyIi8+JiN4YTsJPC9kZWZzPiYjeGE7CTxjbGlwUGF0aCBpZD0iU1ZHSURfNF8iPiYjeGE7CQk8dXNlIHhsaW5rOmhyZWY9IiNTVkdJRF8zXyIgc3R5bGU9Im92ZXJmbG93OnZpc2libGUiIGlkPSJ1c2U1ODY2NiIgeD0iMCIgeT0iMCIgd2lkdGg9IjEwMCUiIGhlaWdodD0iMTAwJSIvPiYjeGE7CTwvY2xpcFBhdGg+JiN4YTsJPGcgY2xpcC1wYXRoPSJ1cmwoI1NWR0lEXzRfKSIgaWQ9Imc1ODY3OSI+JiN4YTsJCTxkZWZzIGlkPSJkZWZzNTg2NzAiPiYjeGE7CQkJPHJlY3QgaWQ9IlNWR0lEXzVfIiB4PSIzMjQuMDMiIHk9IjIwOC4zNiIgd2lkdGg9IjI4LjMyIiBoZWlnaHQ9IjM2LjgyIi8+JiN4YTsJCTwvZGVmcz4mI3hhOwkJPGNsaXBQYXRoIGlkPSJTVkdJRF82XyI+JiN4YTsJCQk8dXNlIHhsaW5rOmhyZWY9IiNTVkdJRF81XyIgc3R5bGU9Im92ZXJmbG93OnZpc2libGUiIGlkPSJ1c2U1ODY3MiIgeD0iMCIgeT0iMCIgd2lkdGg9IjEwMCUiIGhlaWdodD0iMTAwJSIvPiYjeGE7CQk8L2NsaXBQYXRoPiYjeGE7CQk8cGF0aCBzdHlsZT0iZmlsbDojNWE3YTk0IiBkPSJtIDM0NS44OCwyMTcuMSBjIC0yLjY5LDAuOTYgLTUuNTEsMS4zOCAtOC4zOCwxLjMyIC0yLjg3LDAuMDYgLTUuNjksLTAuMzYgLTguMzgsLTEuMzIgLTEuNzQsLTAuNzIgLTIuODEsLTEuNjIgLTIuODEsLTIuNTIgMCwtMS41NiAzLjk1LC0zLjc3IDExLjIsLTMuNzcgNy4zLDAgMTEuMjYsMi4yMiAxMS4yNiwzLjc3IC0wLjAxLDAuOTEgLTEuMDksMS44MSAtMi44OSwyLjUyIHogbSAyLjg4LDEzLjEyIGMgMCwwLjkgLTEuMDgsMS44IC0yLjg3LDIuNDYgLTIuNjksMC45NiAtNS41MSwxLjM4IC04LjM4LDEuMzIgLTIuODcsMC4wNiAtNS42OSwtMC4zNiAtOC4zOCwtMS4zMiAtMS43NCwtMC42NiAtMi44MSwtMS42MiAtMi44MSwtMi40NiB2IC00LjAxIGMgMS4zMiwwLjc4IDIuNjksMS4zOCA0LjEzLDEuNjggMi4zMywwLjU0IDQuNjcsMC44NCA3LjA2LDAuNzggNC45MSwwIDguOTIsLTAuOSAxMS4yNiwtMi41OCB2IDQuMTMgeiBtIDAsNy44NSBjIDAsMC45IC0xLjA4LDEuOCAtMi44NywyLjUyIC0yLjY5LDAuOSAtNS41MSwxLjMyIC04LjM4LDEuMjYgLTIuODcsMC4wNiAtNS42OSwtMC4zNiAtOC4zOCwtMS4yNiAtMS43NCwtMC43MiAtMi44MSwtMS42OCAtMi44MSwtMi41MiBWIDIzNCBjIDEuMjYsMC44NCAyLjY5LDEuNDQgNC4xMywxLjggMi4zMywwLjU0IDQuNjcsMC44NCA3LjA2LDAuNzggMi4zOSwwLjA2IDQuNzksLTAuMjQgNy4xMiwtMC43OCAxLjUsLTAuMzYgMi45MywtMC45NiA0LjE5LC0xLjggdiA0LjA3IHogbSAxLjE5LC0yNi4xMiBjIC0wLjc4LC0wLjg0IC0xLjc0LC0xLjUgLTIuODEsLTEuOTIgLTMuMDUsLTEuMiAtNi4zNSwtMS43NCAtOS42NCwtMS42OCAtMy4yOSwtMC4wNiAtNi41OSwwLjQ4IC05LjY0LDEuNjggLTEuMDgsMC40MiAtMi4wNCwxLjA4IC0yLjc1LDEuOTIgLTAuNzIsMC43MiAtMS4wOCwxLjY4IC0xLjA4LDIuNjQgdiAyMy40MiBjIDAsMC45NiAwLjM2LDEuOTIgMS4wOCwyLjY0IDAuNzIsMC44NCAxLjY4LDEuNSAyLjc1LDEuOTIgMi4zOSwxLjE0IDUuNzUsMS43NCA5LjY0LDEuNzQgMy4yOSwwLjEyIDYuNTksLTAuNDIgOS42NCwtMS42MiAxLjA4LC0wLjQ4IDIuMDQsLTEuMTQgMi44MSwtMS45OCAwLjYsLTAuNzIgMS4wMiwtMS42MiAxLjAyLC0yLjY0IHYgLTIzLjQ4IGMgMCwtMC45NiAtMC4zNiwtMS45MiAtMS4wMiwtMi42NCB6IiBjbGlwLXBhdGg9InVybCgjU1ZHSURfNl8pIiBpZD0icGF0aDU4Njc1IiBpbmtzY2FwZTpjb25uZWN0b3ItY3VydmF0dXJlPSIwIi8+JiN4YTsJCTxwYXRoIHN0eWxlPSJmaWxsOiMwMDkyZDEiIGQ9Im0gMzQ4LjcsMjE0LjU5IGMgMCwwLjkgLTEuMDIsMS44IC0yLjg3LDIuNTIgLTIuNjksMC45NiAtNS41MSwxLjM4IC04LjM4LDEuMzIgLTIuODEsMC4wNiAtNS42MywtMC4zNiAtOC4zMiwtMS4zMiAtMS44LC0wLjcyIC0yLjgxLC0xLjYyIC0yLjgxLC0yLjUyIHYgMTEuNjIgYyAxLjI2LDAuNzggMi42MywxLjM4IDQuMTMsMS42OCAyLjI4LDAuNTQgNC42NywwLjg0IDcuMDEsMC43OCA0LjkxLDAgOC45OCwtMC45IDExLjI2LC0yLjU4IHYgLTExLjUgeiIgY2xpcC1wYXRoPSJ1cmwoI1NWR0lEXzZfKSIgaWQ9InBhdGg1ODY3NyIgaW5rc2NhcGU6Y29ubmVjdG9yLWN1cnZhdHVyZT0iMCIvPiYjeGE7CTwvZz4mI3hhOzwvZz4mI3hhOzwvc3ZnPg==;fillColor=#D4E1F5;" vertex="1" parent="1">
          <mxGeometry x="374.87" y="383" width="15" height="20" as="geometry" />
        </mxCell>
        <mxCell id="UGVQ1dfHeVU3jZcF55VB-81" value="" style="shape=link;html=1;rounded=0;entryX=1;entryY=0;entryDx=0;entryDy=0;" edge="1" parent="1">
          <mxGeometry width="100" relative="1" as="geometry">
            <mxPoint x="465.51" y="472.5" as="sourcePoint" />
            <mxPoint x="465.3900000000001" y="367.5" as="targetPoint" />
          </mxGeometry>
        </mxCell>
        <mxCell id="UGVQ1dfHeVU3jZcF55VB-82" value="" style="shape=image;verticalLabelPosition=bottom;labelBackgroundColor=#ffffff;verticalAlign=top;aspect=fixed;imageAspect=0;image=data:image/svg+xml,PHN2ZyB4bWxuczpkYz0iaHR0cDovL3B1cmwub3JnL2RjL2VsZW1lbnRzLzEuMS8iIHhtbG5zOmNjPSJodHRwOi8vY3JlYXRpdmVjb21tb25zLm9yZy9ucyMiIHhtbG5zOnJkZj0iaHR0cDovL3d3dy53My5vcmcvMTk5OS8wMi8yMi1yZGYtc3ludGF4LW5zIyIgeG1sbnM6c3ZnPSJodHRwOi8vd3d3LnczLm9yZy8yMDAwL3N2ZyIgeG1sbnM9Imh0dHA6Ly93d3cudzMub3JnLzIwMDAvc3ZnIiB4bWxuczpzb2RpcG9kaT0iaHR0cDovL3NvZGlwb2RpLnNvdXJjZWZvcmdlLm5ldC9EVEQvc29kaXBvZGktMC5kdGQiIHhtbG5zOmlua3NjYXBlPSJodHRwOi8vd3d3Lmlua3NjYXBlLm9yZy9uYW1lc3BhY2VzL2lua3NjYXBlIiB2ZXJzaW9uPSIxLjEiIGlkPSJzdmc5NTc5NiIgaW5rc2NhcGU6dmVyc2lvbj0iMC45Mi4zICgyNDA1NTQ2LCAyMDE4LTAzLTExKSIgc29kaXBvZGk6ZG9jbmFtZT0ic3FsX2RhdGFfd2FyZWhvdXNlLnN2ZyIgeD0iMHB4IiB5PSIwcHgiIHZpZXdCb3g9IjAgMCA5OC44MyA5Ni4xIiB4bWw6c3BhY2U9InByZXNlcnZlIiB3aWR0aD0iOTguODMwMDAyIiBoZWlnaHQ9Ijk2LjA5OTk5OCI+PG1ldGFkYXRhIGlkPSJtZXRhZGF0YTE0OTkiPjxyZGY6UkRGPjxjYzpXb3JrIHJkZjphYm91dD0iIj48ZGM6Zm9ybWF0PmltYWdlL3N2Zyt4bWw8L2RjOmZvcm1hdD48ZGM6dHlwZSByZGY6cmVzb3VyY2U9Imh0dHA6Ly9wdXJsLm9yZy9kYy9kY21pdHlwZS9TdGlsbEltYWdlIi8+PGRjOnRpdGxlLz48L2NjOldvcms+PC9yZGY6UkRGPjwvbWV0YWRhdGE+PGRlZnMgaWQ9ImRlZnMxNDk3Ij4mI3hhOwkmI3hhOyYjeGE7CSYjeGE7JiN4YTsJJiN4YTsmI3hhOwkmI3hhOyYjeGE7CSYjeGE7JiN4YTsJJiN4YTsmI3hhOwkmI3hhOyYjeGE7CSYjeGE7JiN4YTsJJiN4YTsmI3hhOwkmI3hhOyYjeGE7CSYjeGE7JiN4YTsJJiN4YTsmI3hhOwkmI3hhOyYjeGE7CSYjeGE7JiN4YTsJJiN4YTsmI3hhOwkmI3hhOyYjeGE7CSYjeGE7JiN4YTsJJiN4YTsmI3hhOwkmI3hhOyYjeGE7CSYjeGE7JiN4YTsJJiN4YTsmI3hhOwkmI3hhOyYjeGE7CSYjeGE7JiN4YTsJJiN4YTsmI3hhOwkmI3hhOyYjeGE7CSYjeGE7JiN4YTsJJiN4YTsmI3hhOwkmI3hhOyYjeGE7CSYjeGE7JiN4YTsJJiN4YTsmI3hhOwkmI3hhOwkmI3hhOwkmI3hhOyYjeGE7CSYjeGE7CSYjeGE7CSYjeGE7JiN4YTsJJiN4YTsJJiN4YTsJJiN4YTsmI3hhOwkJJiN4YTsJJiN4YTsJCSYjeGE7CSYjeGE7CQkmI3hhOwkmI3hhOwkJJiN4YTsJJiN4YTsJCSYjeGE7CSYjeGE7CQkmI3hhOwkmI3hhOwkJJiN4YTsJJiN4YTsJCSYjeGE7CSYjeGE7CQkJJiN4YTsJCSYjeGE7CQkJJiN4YTsJCTwvZGVmcz4mI3hhOzxmaWx0ZXIgaWQ9ImZpbHRlcl8yIj4mI3hhOwk8ZmVHYXVzc2lhbkJsdXIgaWQ9ImZlR2F1c3NpYW5CbHVyOTU1MTIiIHN0ZERldmlhdGlvbj0iMiIvPiYjeGE7PC9maWx0ZXI+JiN4YTs8c29kaXBvZGk6bmFtZWR2aWV3IGJvcmRlcmNvbG9yPSIjNjY2NjY2IiBib3JkZXJvcGFjaXR5PSIxIiBmaXQtbWFyZ2luLWJvdHRvbT0iMCIgZml0LW1hcmdpbi1sZWZ0PSIwIiBmaXQtbWFyZ2luLXJpZ2h0PSIwIiBmaXQtbWFyZ2luLXRvcD0iMCIgZ3JpZHRvbGVyYW5jZT0iMTAiIGd1aWRldG9sZXJhbmNlPSIxMCIgaWQ9Im5hbWVkdmlldzk1Nzk4IiBpbmtzY2FwZTpjdXJyZW50LWxheWVyPSJzdmc5NTc5NiIgaW5rc2NhcGU6Y3g9IjM2LjgzOTc1MiIgaW5rc2NhcGU6Y3k9IjQ1LjQzNTQ0NiIgaW5rc2NhcGU6cGFnZW9wYWNpdHk9IjAiIGlua3NjYXBlOnBhZ2VzaGFkb3c9IjIiIGlua3NjYXBlOndpbmRvdy1oZWlnaHQ9IjEwMTciIGlua3NjYXBlOndpbmRvdy1tYXhpbWl6ZWQ9IjEiIGlua3NjYXBlOndpbmRvdy13aWR0aD0iMTkyMCIgaW5rc2NhcGU6d2luZG93LXg9Ii04IiBpbmtzY2FwZTp3aW5kb3cteT0iLTgiIGlua3NjYXBlOnpvb209IjQuNDgxMzgxNSIgb2JqZWN0dG9sZXJhbmNlPSIxMCIgcGFnZWNvbG9yPSIjZmZmZmZmIiBzaG93Z3JpZD0iZmFsc2UiPiYjeGE7CTwvc29kaXBvZGk6bmFtZWR2aWV3PiYjeGE7JiN4YTs8cmVjdCBpZD0icmVjdDk1NTI3IiB4PSIyMy44MDAwMDMiIHk9IjMwLjEzOTk5OSIgc3R5bGU9ImZpbGw6IzdmYmI0MiIgd2lkdGg9IjkuNDYiIGhlaWdodD0iOS40NiIvPiYjeGE7JiN4YTs8cmVjdCBpZD0icmVjdDk1NTM1IiB4PSIxNi4zMDAwMDMiIHk9IjU1Ljc5MDAwMSIgc3R5bGU9ImZpbGw6IzdmYmI0MiIgd2lkdGg9IjkuNDYiIGhlaWdodD0iOS40NiIvPiYjeGE7JiN4YTs8cmVjdCBpZD0icmVjdDk1NTQzIiB4PSIyOS43NjAwMSIgeT0iNTUuNzkwMDAxIiBzdHlsZT0iZmlsbDojN2ZiYjQyIiB3aWR0aD0iOS40NiIgaGVpZ2h0PSI5LjQ2Ii8+JiN4YTsmI3hhOzxyZWN0IGlkPSJyZWN0OTU1NTEiIHg9IjQzLjA4OTk5NiIgeT0iNTUuNzkwMDAxIiBzdHlsZT0iZmlsbDojN2ZiYjQyIiB3aWR0aD0iOS40NiIgaGVpZ2h0PSI5LjQ2Ii8+JiN4YTsmI3hhOzxyZWN0IGlkPSJyZWN0OTU1NTkiIHg9IjE2LjMwMDAwMyIgeT0iNDIuOTU5OTk5IiBzdHlsZT0iZmlsbDojN2ZiYjQyIiB3aWR0aD0iOS40NiIgaGVpZ2h0PSI5LjQ2Ii8+JiN4YTsmI3hhOzxyZWN0IGlkPSJyZWN0OTU1NjciIHg9IjI5Ljc2MDAxIiB5PSI0Mi45NTk5OTkiIHN0eWxlPSJmaWxsOiM3ZmJiNDIiIHdpZHRoPSI5LjQ2IiBoZWlnaHQ9IjkuNDYiLz4mI3hhOyYjeGE7PHBhdGggaWQ9InBhdGg5NTU3NSIgaW5rc2NhcGU6Y29ubmVjdG9yLWN1cnZhdHVyZT0iMCIgc3R5bGU9ImZpbGw6IzM5OTljNiIgZD0iTSAzNy4yNiwwIDAsMTkuOCB2IDUuNzggaCA3LjYxIHYgMzkuOTkgaCA2LjM2IFYgMjUuNTggaCA0Ni4zMiB2IDM3LjQ1IGggNyBWIDI1LjU4IGggNi45NyBWIDE5LjggWiIvPiYjeGE7JiN4YTs8cGF0aCBpZD0icGF0aDk1NTgzIiBpbmtzY2FwZTpjb25uZWN0b3ItY3VydmF0dXJlPSIwIiBzdHlsZT0iZmlsbDojYjhkNDMzO2ZpbGwtb3BhY2l0eTowLjgiIGQ9Ik0gMzMuMjYsMzkuNiBIIDMyLjE3IFYgMzEuMzYgSCAyMy44IHYgLTEuMjIgaCA5LjQ2IHoiLz4mI3hhOyYjeGE7PHBhdGggaWQ9InBhdGg5NTU5MSIgaW5rc2NhcGU6Y29ubmVjdG9yLWN1cnZhdHVyZT0iMCIgc3R5bGU9ImZpbGw6I2I4ZDQzMztmaWxsLW9wYWNpdHk6MC41IiBkPSJtIDIzLjgsMzAuMTQgaCAxLjA5IHYgOC4yNyBoIDguMzcgViAzOS42IEggMjMuOCBaIi8+JiN4YTsmI3hhOzxwYXRoIGlkPSJwYXRoOTU1OTkiIGlua3NjYXBlOmNvbm5lY3Rvci1jdXJ2YXR1cmU9IjAiIHN0eWxlPSJmaWxsOiNiOGQ0MzM7ZmlsbC1vcGFjaXR5OjAuOCIgZD0iTSAyNS43Niw1Mi40MiBIIDI0LjcgdiAtOC4yNCBoIC04LjQgdiAtMS4yMiBoIDkuNDYgeiIvPiYjeGE7JiN4YTs8cGF0aCBpZD0icGF0aDk1NjA3IiBpbmtzY2FwZTpjb25uZWN0b3ItY3VydmF0dXJlPSIwIiBzdHlsZT0iZmlsbDojYjhkNDMzO2ZpbGwtb3BhY2l0eTowLjUiIGQ9Im0gMTYuMyw0Mi45NiBoIDEuMDkgdiA4LjI0IGggOC4zNyB2IDEuMjIgSCAxNi4zIFoiLz4mI3hhOyYjeGE7PHBhdGggaWQ9InBhdGg5NTYxNSIgaW5rc2NhcGU6Y29ubmVjdG9yLWN1cnZhdHVyZT0iMCIgc3R5bGU9ImZpbGw6I2I4ZDQzMztmaWxsLW9wYWNpdHk6MC44IiBkPSJtIDM5LjI3LDUyLjQyIGggLTEuMTQgdiAtOC4yNCBoIC04LjM3IHYgLTEuMjIgaCA5LjUxIHoiLz4mI3hhOyYjeGE7PHBhdGggaWQ9InBhdGg5NTYyMyIgaW5rc2NhcGU6Y29ubmVjdG9yLWN1cnZhdHVyZT0iMCIgc3R5bGU9ImZpbGw6I2I4ZDQzMztmaWxsLW9wYWNpdHk6MC41IiBkPSJtIDI5Ljc2LDQyLjk2IGggMS4xNCB2IDguMjQgaCA4LjM3IHYgMS4yMiBoIC05LjUxIHoiLz4mI3hhOyYjeGE7PHBhdGggaWQ9InBhdGg5NTYzMSIgaW5rc2NhcGU6Y29ubmVjdG9yLWN1cnZhdHVyZT0iMCIgc3R5bGU9ImZpbGw6I2I4ZDQzMztmaWxsLW9wYWNpdHk6MC44IiBkPSJNIDI1Ljc2LDY1LjI1IEggMjQuNyB2IC04LjI3IGggLTguNCB2IC0xLjE5IGggOS40NiB6Ii8+JiN4YTsmI3hhOzxwYXRoIGlkPSJwYXRoOTU2MzkiIGlua3NjYXBlOmNvbm5lY3Rvci1jdXJ2YXR1cmU9IjAiIHN0eWxlPSJmaWxsOiNiOGQ0MzM7ZmlsbC1vcGFjaXR5OjAuNSIgZD0ibSAxNi4zLDU1Ljc5IGggMS4wOSB2IDguMjQgaCA4LjM3IHYgMS4yMiBIIDE2LjMgWiIvPiYjeGE7JiN4YTs8cGF0aCBpZD0icGF0aDk1NjQ3IiBpbmtzY2FwZTpjb25uZWN0b3ItY3VydmF0dXJlPSIwIiBzdHlsZT0iZmlsbDojYjhkNDMzO2ZpbGwtb3BhY2l0eTowLjgiIGQ9Im0gMzkuMjcsNjUuMjUgaCAtMS4xNCB2IC04LjI3IGggLTguMzcgdiAtMS4xOSBoIDkuNTEgeiIvPiYjeGE7JiN4YTs8cGF0aCBpZD0icGF0aDk1NjU1IiBpbmtzY2FwZTpjb25uZWN0b3ItY3VydmF0dXJlPSIwIiBzdHlsZT0iZmlsbDojYjhkNDMzO2ZpbGwtb3BhY2l0eTowLjUiIGQ9Im0gMjkuNzYsNTUuNzkgaCAxLjE0IHYgOC4yNCBoIDguMzcgdiAxLjIyIGggLTkuNTEgeiIvPiYjeGE7JiN4YTs8cGF0aCBpZD0icGF0aDk1NjYzIiBpbmtzY2FwZTpjb25uZWN0b3ItY3VydmF0dXJlPSIwIiBzdHlsZT0iZmlsbDojYjhkNDMzO2ZpbGwtb3BhY2l0eTowLjgiIGQ9Im0gNTIuNTUsNjUuMjUgaCAtMS4wOSB2IC04LjI3IGggLTguMzcgdiAtMS4xOSBoIDkuNDYgeiIvPiYjeGE7JiN4YTs8cGF0aCBpZD0icGF0aDk1NjcxIiBpbmtzY2FwZTpjb25uZWN0b3ItY3VydmF0dXJlPSIwIiBzdHlsZT0iZmlsbDojYjhkNDMzO2ZpbGwtb3BhY2l0eTowLjUiIGQ9Im0gNDMuMDksNTUuNzkgaCAxLjA5IHYgOC4yNCBoIDguMzcgdiAxLjIyIGggLTkuNDYgeiIvPiYjeGE7JiN4YTs8cGF0aCBpZD0icGF0aDk1Njc5IiBpbmtzY2FwZTpjb25uZWN0b3ItY3VydmF0dXJlPSIwIiBzdHlsZT0iZmlsbDojYjhkNDMzO2ZpbGwtb3BhY2l0eTowLjgiIGQ9Im0gMjUuMiwzOS42IGggLTEuNCB2IC0xLjA4IGwgOC4xOSwtOC4zOCBoIDEuMjcgdiAwLjk1IHoiLz4mI3hhOyYjeGE7PHBhdGggaWQ9InBhdGg5NTY4NyIgaW5rc2NhcGU6Y29ubmVjdG9yLWN1cnZhdHVyZT0iMCIgc3R5bGU9ImZpbGw6I2I4ZDQzMztmaWxsLW9wYWNpdHk6MC44IiBkPSJtIDMxLjE2LDUyLjQyIGggLTEuNCB2IC0xLjA4IGwgOC4yNywtOC4zOCBoIDEuMjQgdiAwLjk1IHoiLz4mI3hhOyYjeGE7PHBhdGggaWQ9InBhdGg5NTY5NSIgaW5rc2NhcGU6Y29ubmVjdG9yLWN1cnZhdHVyZT0iMCIgc3R5bGU9ImZpbGw6I2I4ZDQzMztmaWxsLW9wYWNpdHk6MC44IiBkPSJtIDE3LjcsNTIuNDIgaCAtMS40IHYgLTEuMDggbCA4LjE5LC04LjM4IGggMS4yNyB2IDAuOTUgeiIvPiYjeGE7JiN4YTs8cGF0aCBpZD0icGF0aDk1NzAzIiBpbmtzY2FwZTpjb25uZWN0b3ItY3VydmF0dXJlPSIwIiBzdHlsZT0iZmlsbDojYjhkNDMzO2ZpbGwtb3BhY2l0eTowLjgiIGQ9Im0gMTcuNyw2NS4yNSBoIC0xLjQgdiAtMS4wOCBsIDguMTksLTguMzggaCAxLjI3IHYgMC45NSB6Ii8+JiN4YTsmI3hhOzxwYXRoIGlkPSJwYXRoOTU3MTEiIGlua3NjYXBlOmNvbm5lY3Rvci1jdXJ2YXR1cmU9IjAiIHN0eWxlPSJmaWxsOiNiOGQ0MzM7ZmlsbC1vcGFjaXR5OjAuOCIgZD0ibSAzMS4xNiw2NS4yNSBoIC0xLjQgdiAtMS4wOCBsIDguMjcsLTguMzggaCAxLjI0IHYgMC45NSB6Ii8+JiN4YTsmI3hhOzxwYXRoIGlkPSJwYXRoOTU3MTkiIGlua3NjYXBlOmNvbm5lY3Rvci1jdXJ2YXR1cmU9IjAiIHN0eWxlPSJmaWxsOiNiOGQ0MzM7ZmlsbC1vcGFjaXR5OjAuOCIgZD0ibSA0NC40OSw2NS4yNSBoIC0xLjQgdiAtMS4wOCBsIDguMTksLTguMzggaCAxLjI3IHYgMC45NSB6Ii8+JiN4YTsmI3hhOzxwYXRoIGlkPSJwYXRoOTU3MjkiIGlua3NjYXBlOmNvbm5lY3Rvci1jdXJ2YXR1cmU9IjAiIHN0eWxlPSJmaWxsOiMzOTk5YzYiIGQ9Im0gNTYuMDUsNDcuMTUgdiA0MS4xOCBjIDAsNC4yNCA5LjU5LDcuNzQgMjEuMzksNy43NCBWIDQ3LjE1IFoiLz4mI3hhOyYjeGE7PHBhdGggaWQ9InBhdGg5NTczNyIgaW5rc2NhcGU6Y29ubmVjdG9yLWN1cnZhdHVyZT0iMCIgc3R5bGU9ImZpbGw6IzVhYjRkOSIgZD0ibSA3Ny4xMiw5Ni4xIGggMC4zMiBjIDExLjgyLDAgMjEuMzksLTMuNSAyMS4zOSwtNy43NCBWIDQ3LjE1IEggNzcuMTIgWiIvPiYjeGE7JiN4YTs8cGF0aCBpZD0icGF0aDk1NzQ1IiBpbmtzY2FwZTpjb25uZWN0b3ItY3VydmF0dXJlPSIwIiBzdHlsZT0iZmlsbDojZmZmZmZmIiBkPSJtIDk4LjgzLDQ3LjE1IGMgMCw0LjI0IC05LjYsNy43NCAtMjEuMzksNy43NCAtMTEuOCwwIC0yMS4zOSwtMy40NyAtMjEuMzksLTcuNzQgMCwtNC4yNiA5LjU5LC03Ljc0IDIxLjM5LC03Ljc0IDExLjc5LDAgMjEuMzksMy40MiAyMS4zOSw3Ljc0IHoiLz4mI3hhOyYjeGE7PHBhdGggaWQ9InBhdGg5NTc1MyIgaW5rc2NhcGU6Y29ubmVjdG9yLWN1cnZhdHVyZT0iMCIgc3R5bGU9ImZpbGw6IzdmYmI0MiIgZD0ibSA5NC40Niw0Ni43IGMgMCwyLjc4IC03LjYxLDUuMTQgLTE3LjAyLDUuMTQgLTkuNCwwIC0xNy4wMSwtMi4yOCAtMTcuMDEsLTUuMTQgMCwtMi43OCA3LjYxLC01LjE0IDE3LjAxLC01LjE0IDkuNDEsMCAxNy4wMiwyLjMgMTcuMDIsNS4xNCB6Ii8+JiN4YTsmI3hhOzxwYXRoIGlkPSJwYXRoOTU3NjEiIGlua3NjYXBlOmNvbm5lY3Rvci1jdXJ2YXR1cmU9IjAiIHN0eWxlPSJmaWxsOiNiOGQ0MzMiIGQ9Im0gOTAuOTEsNDkuODMgYyAyLjIyLC0wLjkgMy41NSwtMS45NiAzLjU1LC0zLjEgMCwtMi43OCAtNy42MSwtNS4xNCAtMTcuMDIsLTUuMTQgLTkuNCwwIC0xNy4wMSwyLjI4IC0xNy4wMSw1LjE0IDAsMS4yMiAxLjMzLDIuMjggMy41NSwzLjEgMy4xLC0xLjIyIDguMDEsLTEuOTYgMTMuNDYsLTEuOTYgNS40NiwtMC4wOCAxMC4zNCwwLjc0IDEzLjQ3LDEuOTYgeiIvPiYjeGE7PHBhdGggZD0ibSA2MS4zODEyMyw3Ni42ODA3MiB2IC0yLjkyIGMgMC41LDAuNDUgMS4wOSwwLjc3IDEuNzIsMS4wMSAwLjY0LDAuMTggMS4yNywwLjMyIDEuODMsMC4zMiAwLjM3LDAgMC42OSwtMC4wNiAwLjk1LC0wLjE0IDAuMjcsLTAuMDUgMC41MSwtMC4xMyAwLjY5LC0wLjI2IDAuMTksLTAuMTMgMC4zMiwtMC4yNyAwLjM3LC0wLjQ1IDAuMDYsLTAuMTkgMC4xNCwtMC4zMiAwLjE0LC0wLjUxIDAsLTAuMjYgLTAuMDYsLTAuNSAtMC4xOSwtMC42OSAtMC4xMywtMC4xOCAtMC4zMiwtMC4zNyAtMC41OCwtMC41OCAtMC4yNywtMC4xOCAtMC41OCwtMC4zMiAtMC45LC0wLjUgLTAuMzIsLTAuMTMgLTAuNjksLTAuMzIgLTEuMTQsLTAuNTEgLTEuMDEsLTAuNDUgLTEuNzgsLTAuOTUgLTIuMjgsLTEuNTEgLTAuNSwtMC42MyAtMC43NywtMS4zMiAtMC43NywtMi4yMiAwLC0wLjY5IDAuMTMsLTEuMjcgMC4zNywtMS43MiAwLjI3LC0wLjUxIDAuNjQsLTAuOTEgMS4wOSwtMS4yMiAwLjQ1LC0wLjMyIDEsLTAuNTkgMS42NCwtMC42OSAwLjY0LC0wLjE0IDEuMjcsLTAuMTkgMS45NiwtMC4xOSAwLjY5LDAgMS4yNywwLjA1IDEuNzgsMC4xMyAwLjUsMC4wNiAxLDAuMTkgMS40NiwwLjM3IHYgMi43MyBjIC0wLjE5LC0wLjEzIC0wLjQ2LC0wLjI2IC0wLjY5LC0wLjM3IC0wLjI0LC0wLjEgLTAuNTEsLTAuMTggLTAuNzcsLTAuMjYgLTAuMjcsLTAuMDUgLTAuNTksLTAuMTMgLTAuODIsLTAuMTkgLTAuMjcsLTAuMDUgLTAuNTEsLTAuMDUgLTAuNzcsLTAuMDUgLTAuMzIsMCAtMC42NCwwIC0wLjksMC4wNSAtMC4yNywwLjA2IC0wLjUxLDAuMTQgLTAuNjksMC4yNyAtMC4xOSwwLjEzIC0wLjMyLDAuMjYgLTAuNDUsMC4zNyAtMC4xNCwwLjE4IC0wLjE0LDAuMzIgLTAuMTQsMC41IDAsMC4xOSAwLjA2LDAuMzcgMC4xOSwwLjU5IDAuMTMsMC4xOCAwLjI2LDAuMzEgMC41LDAuNSAwLjE5LDAuMTMgMC40NSwwLjMyIDAuNzcsMC40NSAwLjMyLDAuMTMgMC42NCwwLjMyIDEuMDEsMC40NSAwLjUsMC4xOSAxLjAxLDAuNDUgMS40LDAuNjkgMC40NSwwLjI2IDAuNzcsMC41IDEuMDksMC44MiAwLjMyLDAuMzIgMC41LDAuNjQgMC42OSwxLjA5IDAuMTMsMC4zNyAwLjI2LDAuODIgMC4yNiwxLjQgMCwwLjY5IC0wLjEzLDEuMzMgLTAuMzcsMS44MyAtMC4yNiwwLjUgLTAuNjMsMC45IC0xLjE0LDEuMjIgLTAuNDUsMC4zMiAtMSwwLjUgLTEuNjQsMC42NCAtMC42NCwwLjEzIC0xLjI3LDAuMTggLTEuOTYsMC4xOCAtMC42OSwwIC0xLjQxLC0wLjA1IC0yLjA0LC0wLjE4IC0wLjY2LDAgLTEuMjIsLTAuMjIgLTEuNjcsLTAuNDUgeiIgc3R5bGU9ImZpbGw6I2ZmZmZmZiIgaW5rc2NhcGU6Y29ubmVjdG9yLWN1cnZhdHVyZT0iMCIgaWQ9InBhdGg5NTc3MSIvPiYjeGE7PHBhdGggZD0ibSA3Ny44MDc4Myw3Ny40NDM0IGMgLTEuODIsMCAtMy4zNiwtMC42MyAtNC41NSwtMS44MyAtMS4xNCwtMS4yMiAtMS43OCwtMi43OCAtMS43OCwtNC43NyAwLC0yLjA0IDAuNTgsLTMuNjggMS43OCwtNC45NSAxLjIxLC0xLjI4IDIuNzMsLTEuOTEgNC42OSwtMS45MSAxLjgzLDAgMy4zNiwwLjYzIDQuNSwxLjgzIDEuMTQsMS4xOSAxLjcyLDIuNzggMS43Miw0LjgyIDAsMi4wNCAtMC41OCwzLjY4IC0xLjc3LDQuOTYgLTAuMDUsMC4wNSAtMC4wNSwwLjA1IC0wLjEzLDAuMTMgLTAuMDYsMC4wNSAtMC4wNiwwLjA1IC0wLjE0LDAuMTMgbCAzLjMyLDMuMTggaCAtNC4xNCBsIC0xLjcyLC0xLjc3IGMgLTAuNDIsMC4xIC0xLjA2LDAuMTggLTEuNzgsMC4xOCB6IG0gMC4xNCwtMTAuOTIgYyAtMS4wMSwwIC0xLjgzLDAuMzcgLTIuNDcsMS4xNCAtMC42MywwLjc3IC0wLjksMS43OCAtMC45LDMuMDUgMCwxLjI3IDAuMzIsMi4yOCAwLjksMy4wNSAwLjY0LDAuNzcgMS40MSwxLjE0IDIuMzYsMS4xNCAxLjAxLDAgMS43OCwtMC4zNyAyLjQxLC0xLjA5IDAuNTksLTAuNzcgMC45LC0xLjc4IDAuOSwtMy4wNSAwLC0xLjMyIC0wLjMxLC0yLjQxIC0wLjksLTMuMTggLTAuNTMsLTAuNjkgLTEuMywtMS4wNiAtMi4zLC0xLjA2IHoiIHN0eWxlPSJmaWxsOiNmZmZmZmYiIGlua3NjYXBlOmNvbm5lY3Rvci1jdXJ2YXR1cmU9IjAiIGlkPSJwYXRoOTU3NzkiLz4mI3hhOzxwYXRoIGQ9Im0gOTQuMTM4ODMsNzcuMTc4MjEgaCAtNy43NCB2IC0xMy4wMSBoIDIuOTIgdiAxMC42IGggNC44MiB6IiBzdHlsZT0iZmlsbDojZmZmZmZmIiBpbmtzY2FwZTpjb25uZWN0b3ItY3VydmF0dXJlPSIwIiBpZD0icGF0aDk1Nzg3Ii8+JiN4YTs8L3N2Zz4=;" vertex="1" parent="1">
          <mxGeometry x="493.5399999999999" y="393" width="62.91" height="61" as="geometry" />
        </mxCell>
        <mxCell id="UGVQ1dfHeVU3jZcF55VB-83" value="FDW" style="text;html=1;strokeColor=none;fillColor=none;align=center;verticalAlign=middle;whiteSpace=wrap;rounded=0;" vertex="1" parent="1">
          <mxGeometry x="447.06" y="365" width="122.94" height="30" as="geometry" />
        </mxCell>
        <mxCell id="UGVQ1dfHeVU3jZcF55VB-84" value="DWH-FDW" style="text;html=1;strokeColor=none;fillColor=none;align=center;verticalAlign=middle;whiteSpace=wrap;rounded=0;" vertex="1" parent="1">
          <mxGeometry x="580" y="378" width="82.39" height="30" as="geometry" />
        </mxCell>
        <mxCell id="UGVQ1dfHeVU3jZcF55VB-85" value="" style="shape=image;verticalLabelPosition=bottom;labelBackgroundColor=#ffffff;verticalAlign=top;aspect=fixed;imageAspect=0;image=data:image/svg+xml,PHN2ZyB4bWxuczpkYz0iaHR0cDovL3B1cmwub3JnL2RjL2VsZW1lbnRzLzEuMS8iIHhtbG5zOmNjPSJodHRwOi8vY3JlYXRpdmVjb21tb25zLm9yZy9ucyMiIHhtbG5zOnJkZj0iaHR0cDovL3d3dy53My5vcmcvMTk5OS8wMi8yMi1yZGYtc3ludGF4LW5zIyIgeG1sbnM6c3ZnPSJodHRwOi8vd3d3LnczLm9yZy8yMDAwL3N2ZyIgeG1sbnM9Imh0dHA6Ly93d3cudzMub3JnLzIwMDAvc3ZnIiB4bWxuczp4bGluaz0iaHR0cDovL3d3dy53My5vcmcvMTk5OS94bGluayIgeG1sbnM6c29kaXBvZGk9Imh0dHA6Ly9zb2RpcG9kaS5zb3VyY2Vmb3JnZS5uZXQvRFREL3NvZGlwb2RpLTAuZHRkIiB4bWxuczppbmtzY2FwZT0iaHR0cDovL3d3dy5pbmtzY2FwZS5vcmcvbmFtZXNwYWNlcy9pbmtzY2FwZSIgdmVyc2lvbj0iMS4xIiBpZD0iTGF5ZXJfMSIgeD0iMHB4IiB5PSIwcHgiIHZpZXdCb3g9IjAgMCAyNi45NDAwMDEgMzUuOTY2MzYyIiB4bWw6c3BhY2U9InByZXNlcnZlIiBzb2RpcG9kaTpkb2NuYW1lPSJzYXBfc2VfbW9uZ29kYi5zdmciIHdpZHRoPSIyNi45NDAwMDEiIGhlaWdodD0iMzUuOTY2MzYyIiBpbmtzY2FwZTp2ZXJzaW9uPSIwLjkyLjMgKDI0MDU1NDYsIDIwMTgtMDMtMTEpIj48bWV0YWRhdGEgaWQ9Im1ldGFkYXRhNTg2ODgiPjxyZGY6UkRGPjxjYzpXb3JrIHJkZjphYm91dD0iIj48ZGM6Zm9ybWF0PmltYWdlL3N2Zyt4bWw8L2RjOmZvcm1hdD48ZGM6dHlwZSByZGY6cmVzb3VyY2U9Imh0dHA6Ly9wdXJsLm9yZy9kYy9kY21pdHlwZS9TdGlsbEltYWdlIi8+PGRjOnRpdGxlLz48L2NjOldvcms+PC9yZGY6UkRGPjwvbWV0YWRhdGE+PGRlZnMgaWQ9ImRlZnM1ODY4NiIvPjxzb2RpcG9kaTpuYW1lZHZpZXcgcGFnZWNvbG9yPSIjZmZmZmZmIiBib3JkZXJjb2xvcj0iIzY2NjY2NiIgYm9yZGVyb3BhY2l0eT0iMSIgb2JqZWN0dG9sZXJhbmNlPSIxMCIgZ3JpZHRvbGVyYW5jZT0iMTAiIGd1aWRldG9sZXJhbmNlPSIxMCIgaW5rc2NhcGU6cGFnZW9wYWNpdHk9IjAiIGlua3NjYXBlOnBhZ2VzaGFkb3c9IjIiIGlua3NjYXBlOndpbmRvdy13aWR0aD0iMTkyMCIgaW5rc2NhcGU6d2luZG93LWhlaWdodD0iMTAxNyIgaWQ9Im5hbWVkdmlldzU4Njg0IiBzaG93Z3JpZD0iZmFsc2UiIGZpdC1tYXJnaW4tdG9wPSIwIiBmaXQtbWFyZ2luLWxlZnQ9IjAiIGZpdC1tYXJnaW4tcmlnaHQ9IjAiIGZpdC1tYXJnaW4tYm90dG9tPSIwIiBpbmtzY2FwZTp6b29tPSIxLjAzMDMwMyIgaW5rc2NhcGU6Y3g9Ii0yNi42NTUiIGlua3NjYXBlOmN5PSItMTc2LjQyMzY0IiBpbmtzY2FwZTp3aW5kb3cteD0iLTgiIGlua3NjYXBlOndpbmRvdy15PSItOCIgaW5rc2NhcGU6d2luZG93LW1heGltaXplZD0iMSIgaW5rc2NhcGU6Y3VycmVudC1sYXllcj0iTGF5ZXJfMSIvPiYjeGE7JiN4YTs8ZyBpZD0iZzU4NjgxIiB0cmFuc2Zvcm09InRyYW5zbGF0ZSgtMzI0LjAzLC0yMDguMzYpIj4mI3hhOwk8ZGVmcyBpZD0iZGVmczU4NjY0Ij4mI3hhOwkJPHJlY3QgaWQ9IlNWR0lEXzNfIiB4PSIzMjQuMDMiIHk9IjIwOC4zNiIgd2lkdGg9IjI4LjMyIiBoZWlnaHQ9IjM2LjgyIi8+JiN4YTsJPC9kZWZzPiYjeGE7CTxjbGlwUGF0aCBpZD0iU1ZHSURfNF8iPiYjeGE7CQk8dXNlIHhsaW5rOmhyZWY9IiNTVkdJRF8zXyIgc3R5bGU9Im92ZXJmbG93OnZpc2libGUiIGlkPSJ1c2U1ODY2NiIgeD0iMCIgeT0iMCIgd2lkdGg9IjEwMCUiIGhlaWdodD0iMTAwJSIvPiYjeGE7CTwvY2xpcFBhdGg+JiN4YTsJPGcgY2xpcC1wYXRoPSJ1cmwoI1NWR0lEXzRfKSIgaWQ9Imc1ODY3OSI+JiN4YTsJCTxkZWZzIGlkPSJkZWZzNTg2NzAiPiYjeGE7CQkJPHJlY3QgaWQ9IlNWR0lEXzVfIiB4PSIzMjQuMDMiIHk9IjIwOC4zNiIgd2lkdGg9IjI4LjMyIiBoZWlnaHQ9IjM2LjgyIi8+JiN4YTsJCTwvZGVmcz4mI3hhOwkJPGNsaXBQYXRoIGlkPSJTVkdJRF82XyI+JiN4YTsJCQk8dXNlIHhsaW5rOmhyZWY9IiNTVkdJRF81XyIgc3R5bGU9Im92ZXJmbG93OnZpc2libGUiIGlkPSJ1c2U1ODY3MiIgeD0iMCIgeT0iMCIgd2lkdGg9IjEwMCUiIGhlaWdodD0iMTAwJSIvPiYjeGE7CQk8L2NsaXBQYXRoPiYjeGE7CQk8cGF0aCBzdHlsZT0iZmlsbDojNWE3YTk0IiBkPSJtIDM0NS44OCwyMTcuMSBjIC0yLjY5LDAuOTYgLTUuNTEsMS4zOCAtOC4zOCwxLjMyIC0yLjg3LDAuMDYgLTUuNjksLTAuMzYgLTguMzgsLTEuMzIgLTEuNzQsLTAuNzIgLTIuODEsLTEuNjIgLTIuODEsLTIuNTIgMCwtMS41NiAzLjk1LC0zLjc3IDExLjIsLTMuNzcgNy4zLDAgMTEuMjYsMi4yMiAxMS4yNiwzLjc3IC0wLjAxLDAuOTEgLTEuMDksMS44MSAtMi44OSwyLjUyIHogbSAyLjg4LDEzLjEyIGMgMCwwLjkgLTEuMDgsMS44IC0yLjg3LDIuNDYgLTIuNjksMC45NiAtNS41MSwxLjM4IC04LjM4LDEuMzIgLTIuODcsMC4wNiAtNS42OSwtMC4zNiAtOC4zOCwtMS4zMiAtMS43NCwtMC42NiAtMi44MSwtMS42MiAtMi44MSwtMi40NiB2IC00LjAxIGMgMS4zMiwwLjc4IDIuNjksMS4zOCA0LjEzLDEuNjggMi4zMywwLjU0IDQuNjcsMC44NCA3LjA2LDAuNzggNC45MSwwIDguOTIsLTAuOSAxMS4yNiwtMi41OCB2IDQuMTMgeiBtIDAsNy44NSBjIDAsMC45IC0xLjA4LDEuOCAtMi44NywyLjUyIC0yLjY5LDAuOSAtNS41MSwxLjMyIC04LjM4LDEuMjYgLTIuODcsMC4wNiAtNS42OSwtMC4zNiAtOC4zOCwtMS4yNiAtMS43NCwtMC43MiAtMi44MSwtMS42OCAtMi44MSwtMi41MiBWIDIzNCBjIDEuMjYsMC44NCAyLjY5LDEuNDQgNC4xMywxLjggMi4zMywwLjU0IDQuNjcsMC44NCA3LjA2LDAuNzggMi4zOSwwLjA2IDQuNzksLTAuMjQgNy4xMiwtMC43OCAxLjUsLTAuMzYgMi45MywtMC45NiA0LjE5LC0xLjggdiA0LjA3IHogbSAxLjE5LC0yNi4xMiBjIC0wLjc4LC0wLjg0IC0xLjc0LC0xLjUgLTIuODEsLTEuOTIgLTMuMDUsLTEuMiAtNi4zNSwtMS43NCAtOS42NCwtMS42OCAtMy4yOSwtMC4wNiAtNi41OSwwLjQ4IC05LjY0LDEuNjggLTEuMDgsMC40MiAtMi4wNCwxLjA4IC0yLjc1LDEuOTIgLTAuNzIsMC43MiAtMS4wOCwxLjY4IC0xLjA4LDIuNjQgdiAyMy40MiBjIDAsMC45NiAwLjM2LDEuOTIgMS4wOCwyLjY0IDAuNzIsMC44NCAxLjY4LDEuNSAyLjc1LDEuOTIgMi4zOSwxLjE0IDUuNzUsMS43NCA5LjY0LDEuNzQgMy4yOSwwLjEyIDYuNTksLTAuNDIgOS42NCwtMS42MiAxLjA4LC0wLjQ4IDIuMDQsLTEuMTQgMi44MSwtMS45OCAwLjYsLTAuNzIgMS4wMiwtMS42MiAxLjAyLC0yLjY0IHYgLTIzLjQ4IGMgMCwtMC45NiAtMC4zNiwtMS45MiAtMS4wMiwtMi42NCB6IiBjbGlwLXBhdGg9InVybCgjU1ZHSURfNl8pIiBpZD0icGF0aDU4Njc1IiBpbmtzY2FwZTpjb25uZWN0b3ItY3VydmF0dXJlPSIwIi8+JiN4YTsJCTxwYXRoIHN0eWxlPSJmaWxsOiMwMDkyZDEiIGQ9Im0gMzQ4LjcsMjE0LjU5IGMgMCwwLjkgLTEuMDIsMS44IC0yLjg3LDIuNTIgLTIuNjksMC45NiAtNS41MSwxLjM4IC04LjM4LDEuMzIgLTIuODEsMC4wNiAtNS42MywtMC4zNiAtOC4zMiwtMS4zMiAtMS44LC0wLjcyIC0yLjgxLC0xLjYyIC0yLjgxLC0yLjUyIHYgMTEuNjIgYyAxLjI2LDAuNzggMi42MywxLjM4IDQuMTMsMS42OCAyLjI4LDAuNTQgNC42NywwLjg0IDcuMDEsMC43OCA0LjkxLDAgOC45OCwtMC45IDExLjI2LC0yLjU4IHYgLTExLjUgeiIgY2xpcC1wYXRoPSJ1cmwoI1NWR0lEXzZfKSIgaWQ9InBhdGg1ODY3NyIgaW5rc2NhcGU6Y29ubmVjdG9yLWN1cnZhdHVyZT0iMCIvPiYjeGE7CTwvZz4mI3hhOzwvZz4mI3hhOzwvc3ZnPg==;fillColor=#D4E1F5;" vertex="1" parent="1">
          <mxGeometry x="565" y="383" width="15" height="20" as="geometry" />
        </mxCell>
        <mxCell id="UGVQ1dfHeVU3jZcF55VB-86" value="" style="shape=image;verticalLabelPosition=bottom;labelBackgroundColor=#ffffff;verticalAlign=top;aspect=fixed;imageAspect=0;image=data:image/svg+xml,PHN2ZyB4bWxuczpkYz0iaHR0cDovL3B1cmwub3JnL2RjL2VsZW1lbnRzLzEuMS8iIHhtbG5zOmNjPSJodHRwOi8vY3JlYXRpdmVjb21tb25zLm9yZy9ucyMiIHhtbG5zOnJkZj0iaHR0cDovL3d3dy53My5vcmcvMTk5OS8wMi8yMi1yZGYtc3ludGF4LW5zIyIgeG1sbnM6c3ZnPSJodHRwOi8vd3d3LnczLm9yZy8yMDAwL3N2ZyIgeG1sbnM9Imh0dHA6Ly93d3cudzMub3JnLzIwMDAvc3ZnIiB4bWxuczp4bGluaz0iaHR0cDovL3d3dy53My5vcmcvMTk5OS94bGluayIgeG1sbnM6c29kaXBvZGk9Imh0dHA6Ly9zb2RpcG9kaS5zb3VyY2Vmb3JnZS5uZXQvRFREL3NvZGlwb2RpLTAuZHRkIiB4bWxuczppbmtzY2FwZT0iaHR0cDovL3d3dy5pbmtzY2FwZS5vcmcvbmFtZXNwYWNlcy9pbmtzY2FwZSIgdmVyc2lvbj0iMS4xIiBpZD0iTGF5ZXJfMSIgeD0iMHB4IiB5PSIwcHgiIHZpZXdCb3g9IjAgMCAyNi45NDAwMDEgMzUuOTY2MzYyIiB4bWw6c3BhY2U9InByZXNlcnZlIiBzb2RpcG9kaTpkb2NuYW1lPSJzYXBfc2VfbW9uZ29kYi5zdmciIHdpZHRoPSIyNi45NDAwMDEiIGhlaWdodD0iMzUuOTY2MzYyIiBpbmtzY2FwZTp2ZXJzaW9uPSIwLjkyLjMgKDI0MDU1NDYsIDIwMTgtMDMtMTEpIj48bWV0YWRhdGEgaWQ9Im1ldGFkYXRhNTg2ODgiPjxyZGY6UkRGPjxjYzpXb3JrIHJkZjphYm91dD0iIj48ZGM6Zm9ybWF0PmltYWdlL3N2Zyt4bWw8L2RjOmZvcm1hdD48ZGM6dHlwZSByZGY6cmVzb3VyY2U9Imh0dHA6Ly9wdXJsLm9yZy9kYy9kY21pdHlwZS9TdGlsbEltYWdlIi8+PGRjOnRpdGxlLz48L2NjOldvcms+PC9yZGY6UkRGPjwvbWV0YWRhdGE+PGRlZnMgaWQ9ImRlZnM1ODY4NiIvPjxzb2RpcG9kaTpuYW1lZHZpZXcgcGFnZWNvbG9yPSIjZmZmZmZmIiBib3JkZXJjb2xvcj0iIzY2NjY2NiIgYm9yZGVyb3BhY2l0eT0iMSIgb2JqZWN0dG9sZXJhbmNlPSIxMCIgZ3JpZHRvbGVyYW5jZT0iMTAiIGd1aWRldG9sZXJhbmNlPSIxMCIgaW5rc2NhcGU6cGFnZW9wYWNpdHk9IjAiIGlua3NjYXBlOnBhZ2VzaGFkb3c9IjIiIGlua3NjYXBlOndpbmRvdy13aWR0aD0iMTkyMCIgaW5rc2NhcGU6d2luZG93LWhlaWdodD0iMTAxNyIgaWQ9Im5hbWVkdmlldzU4Njg0IiBzaG93Z3JpZD0iZmFsc2UiIGZpdC1tYXJnaW4tdG9wPSIwIiBmaXQtbWFyZ2luLWxlZnQ9IjAiIGZpdC1tYXJnaW4tcmlnaHQ9IjAiIGZpdC1tYXJnaW4tYm90dG9tPSIwIiBpbmtzY2FwZTp6b29tPSIxLjAzMDMwMyIgaW5rc2NhcGU6Y3g9Ii0yNi42NTUiIGlua3NjYXBlOmN5PSItMTc2LjQyMzY0IiBpbmtzY2FwZTp3aW5kb3cteD0iLTgiIGlua3NjYXBlOndpbmRvdy15PSItOCIgaW5rc2NhcGU6d2luZG93LW1heGltaXplZD0iMSIgaW5rc2NhcGU6Y3VycmVudC1sYXllcj0iTGF5ZXJfMSIvPiYjeGE7JiN4YTs8ZyBpZD0iZzU4NjgxIiB0cmFuc2Zvcm09InRyYW5zbGF0ZSgtMzI0LjAzLC0yMDguMzYpIj4mI3hhOwk8ZGVmcyBpZD0iZGVmczU4NjY0Ij4mI3hhOwkJPHJlY3QgaWQ9IlNWR0lEXzNfIiB4PSIzMjQuMDMiIHk9IjIwOC4zNiIgd2lkdGg9IjI4LjMyIiBoZWlnaHQ9IjM2LjgyIi8+JiN4YTsJPC9kZWZzPiYjeGE7CTxjbGlwUGF0aCBpZD0iU1ZHSURfNF8iPiYjeGE7CQk8dXNlIHhsaW5rOmhyZWY9IiNTVkdJRF8zXyIgc3R5bGU9Im92ZXJmbG93OnZpc2libGUiIGlkPSJ1c2U1ODY2NiIgeD0iMCIgeT0iMCIgd2lkdGg9IjEwMCUiIGhlaWdodD0iMTAwJSIvPiYjeGE7CTwvY2xpcFBhdGg+JiN4YTsJPGcgY2xpcC1wYXRoPSJ1cmwoI1NWR0lEXzRfKSIgaWQ9Imc1ODY3OSI+JiN4YTsJCTxkZWZzIGlkPSJkZWZzNTg2NzAiPiYjeGE7CQkJPHJlY3QgaWQ9IlNWR0lEXzVfIiB4PSIzMjQuMDMiIHk9IjIwOC4zNiIgd2lkdGg9IjI4LjMyIiBoZWlnaHQ9IjM2LjgyIi8+JiN4YTsJCTwvZGVmcz4mI3hhOwkJPGNsaXBQYXRoIGlkPSJTVkdJRF82XyI+JiN4YTsJCQk8dXNlIHhsaW5rOmhyZWY9IiNTVkdJRF81XyIgc3R5bGU9Im92ZXJmbG93OnZpc2libGUiIGlkPSJ1c2U1ODY3MiIgeD0iMCIgeT0iMCIgd2lkdGg9IjEwMCUiIGhlaWdodD0iMTAwJSIvPiYjeGE7CQk8L2NsaXBQYXRoPiYjeGE7CQk8cGF0aCBzdHlsZT0iZmlsbDojNWE3YTk0IiBkPSJtIDM0NS44OCwyMTcuMSBjIC0yLjY5LDAuOTYgLTUuNTEsMS4zOCAtOC4zOCwxLjMyIC0yLjg3LDAuMDYgLTUuNjksLTAuMzYgLTguMzgsLTEuMzIgLTEuNzQsLTAuNzIgLTIuODEsLTEuNjIgLTIuODEsLTIuNTIgMCwtMS41NiAzLjk1LC0zLjc3IDExLjIsLTMuNzcgNy4zLDAgMTEuMjYsMi4yMiAxMS4yNiwzLjc3IC0wLjAxLDAuOTEgLTEuMDksMS44MSAtMi44OSwyLjUyIHogbSAyLjg4LDEzLjEyIGMgMCwwLjkgLTEuMDgsMS44IC0yLjg3LDIuNDYgLTIuNjksMC45NiAtNS41MSwxLjM4IC04LjM4LDEuMzIgLTIuODcsMC4wNiAtNS42OSwtMC4zNiAtOC4zOCwtMS4zMiAtMS43NCwtMC42NiAtMi44MSwtMS42MiAtMi44MSwtMi40NiB2IC00LjAxIGMgMS4zMiwwLjc4IDIuNjksMS4zOCA0LjEzLDEuNjggMi4zMywwLjU0IDQuNjcsMC44NCA3LjA2LDAuNzggNC45MSwwIDguOTIsLTAuOSAxMS4yNiwtMi41OCB2IDQuMTMgeiBtIDAsNy44NSBjIDAsMC45IC0xLjA4LDEuOCAtMi44NywyLjUyIC0yLjY5LDAuOSAtNS41MSwxLjMyIC04LjM4LDEuMjYgLTIuODcsMC4wNiAtNS42OSwtMC4zNiAtOC4zOCwtMS4yNiAtMS43NCwtMC43MiAtMi44MSwtMS42OCAtMi44MSwtMi41MiBWIDIzNCBjIDEuMjYsMC44NCAyLjY5LDEuNDQgNC4xMywxLjggMi4zMywwLjU0IDQuNjcsMC44NCA3LjA2LDAuNzggMi4zOSwwLjA2IDQuNzksLTAuMjQgNy4xMiwtMC43OCAxLjUsLTAuMzYgMi45MywtMC45NiA0LjE5LC0xLjggdiA0LjA3IHogbSAxLjE5LC0yNi4xMiBjIC0wLjc4LC0wLjg0IC0xLjc0LC0xLjUgLTIuODEsLTEuOTIgLTMuMDUsLTEuMiAtNi4zNSwtMS43NCAtOS42NCwtMS42OCAtMy4yOSwtMC4wNiAtNi41OSwwLjQ4IC05LjY0LDEuNjggLTEuMDgsMC40MiAtMi4wNCwxLjA4IC0yLjc1LDEuOTIgLTAuNzIsMC43MiAtMS4wOCwxLjY4IC0xLjA4LDIuNjQgdiAyMy40MiBjIDAsMC45NiAwLjM2LDEuOTIgMS4wOCwyLjY0IDAuNzIsMC44NCAxLjY4LDEuNSAyLjc1LDEuOTIgMi4zOSwxLjE0IDUuNzUsMS43NCA5LjY0LDEuNzQgMy4yOSwwLjEyIDYuNTksLTAuNDIgOS42NCwtMS42MiAxLjA4LC0wLjQ4IDIuMDQsLTEuMTQgMi44MSwtMS45OCAwLjYsLTAuNzIgMS4wMiwtMS42MiAxLjAyLC0yLjY0IHYgLTIzLjQ4IGMgMCwtMC45NiAtMC4zNiwtMS45MiAtMS4wMiwtMi42NCB6IiBjbGlwLXBhdGg9InVybCgjU1ZHSURfNl8pIiBpZD0icGF0aDU4Njc1IiBpbmtzY2FwZTpjb25uZWN0b3ItY3VydmF0dXJlPSIwIi8+JiN4YTsJCTxwYXRoIHN0eWxlPSJmaWxsOiMwMDkyZDEiIGQ9Im0gMzQ4LjcsMjE0LjU5IGMgMCwwLjkgLTEuMDIsMS44IC0yLjg3LDIuNTIgLTIuNjksMC45NiAtNS41MSwxLjM4IC04LjM4LDEuMzIgLTIuODEsMC4wNiAtNS42MywtMC4zNiAtOC4zMiwtMS4zMiAtMS44LC0wLjcyIC0yLjgxLC0xLjYyIC0yLjgxLC0yLjUyIHYgMTEuNjIgYyAxLjI2LDAuNzggMi42MywxLjM4IDQuMTMsMS42OCAyLjI4LDAuNTQgNC42NywwLjg0IDcuMDEsMC43OCA0LjkxLDAgOC45OCwtMC45IDExLjI2LC0yLjU4IHYgLTExLjUgeiIgY2xpcC1wYXRoPSJ1cmwoI1NWR0lEXzZfKSIgaWQ9InBhdGg1ODY3NyIgaW5rc2NhcGU6Y29ubmVjdG9yLWN1cnZhdHVyZT0iMCIvPiYjeGE7CTwvZz4mI3hhOzwvZz4mI3hhOzwvc3ZnPg==;fillColor=#D4E1F5;" vertex="1" parent="1">
          <mxGeometry x="565" y="413" width="15" height="20" as="geometry" />
        </mxCell>
        <mxCell id="UGVQ1dfHeVU3jZcF55VB-87" value="C360" style="text;html=1;strokeColor=none;fillColor=none;align=center;verticalAlign=middle;whiteSpace=wrap;rounded=0;" vertex="1" parent="1">
          <mxGeometry x="565" y="408.5" width="82.39" height="30" as="geometry" />
        </mxCell>
        <mxCell id="UGVQ1dfHeVU3jZcF55VB-88" value="" style="shape=link;html=1;rounded=0;entryX=1;entryY=0;entryDx=0;entryDy=0;" edge="1" parent="1">
          <mxGeometry width="100" relative="1" as="geometry">
            <mxPoint x="670.1200000000002" y="472.5" as="sourcePoint" />
            <mxPoint x="670.0000000000003" y="367.5" as="targetPoint" />
          </mxGeometry>
        </mxCell>
        <mxCell id="UGVQ1dfHeVU3jZcF55VB-90" value="" style="shape=image;verticalLabelPosition=bottom;labelBackgroundColor=#ffffff;verticalAlign=top;aspect=fixed;imageAspect=0;image=data:image/svg+xml,PHN2ZyB4bWxuczpkYz0iaHR0cDovL3B1cmwub3JnL2RjL2VsZW1lbnRzLzEuMS8iIHhtbG5zOmNjPSJodHRwOi8vY3JlYXRpdmVjb21tb25zLm9yZy9ucyMiIHhtbG5zOnJkZj0iaHR0cDovL3d3dy53My5vcmcvMTk5OS8wMi8yMi1yZGYtc3ludGF4LW5zIyIgeG1sbnM6c3ZnPSJodHRwOi8vd3d3LnczLm9yZy8yMDAwL3N2ZyIgeG1sbnM9Imh0dHA6Ly93d3cudzMub3JnLzIwMDAvc3ZnIiB4bWxuczpzb2RpcG9kaT0iaHR0cDovL3NvZGlwb2RpLnNvdXJjZWZvcmdlLm5ldC9EVEQvc29kaXBvZGktMC5kdGQiIHhtbG5zOmlua3NjYXBlPSJodHRwOi8vd3d3Lmlua3NjYXBlLm9yZy9uYW1lc3BhY2VzL2lua3NjYXBlIiB2ZXJzaW9uPSIxLjEiIGlkPSJzdmc3NjI4MyIgaW5rc2NhcGU6dmVyc2lvbj0iMC45Mi4zICgyNDA1NTQ2LCAyMDE4LTAzLTExKSIgc29kaXBvZGk6ZG9jbmFtZT0iZGF0YV9jYXRhbG9nLnN2ZyIgeD0iMHB4IiB5PSIwcHgiIHZpZXdCb3g9IjAgMCA4NC4yNiA4OS45OSIgeG1sOnNwYWNlPSJwcmVzZXJ2ZSIgd2lkdGg9Ijg0LjI2MDAwMiIgaGVpZ2h0PSI4OS45ODk5OTgiPjxtZXRhZGF0YSBpZD0ibWV0YWRhdGEyMjQ4NSI+PHJkZjpSREY+PGNjOldvcmsgcmRmOmFib3V0PSIiPjxkYzpmb3JtYXQ+aW1hZ2Uvc3ZnK3htbDwvZGM6Zm9ybWF0PjxkYzp0eXBlIHJkZjpyZXNvdXJjZT0iaHR0cDovL3B1cmwub3JnL2RjL2RjbWl0eXBlL1N0aWxsSW1hZ2UiLz48ZGM6dGl0bGUvPjwvY2M6V29yaz48L3JkZjpSREY+PC9tZXRhZGF0YT48ZGVmcyBpZD0iZGVmczIyNDgzIi8+JiN4YTs8ZmlsdGVyIGlkPSJmaWx0ZXJfMiI+JiN4YTsJPGZlR2F1c3NpYW5CbHVyIGlkPSJmZUdhdXNzaWFuQmx1cjc2MTg0IiBzdGREZXZpYXRpb249IjIiLz4mI3hhOzwvZmlsdGVyPiYjeGE7PHNvZGlwb2RpOm5hbWVkdmlldyBib3JkZXJjb2xvcj0iIzY2NjY2NiIgYm9yZGVyb3BhY2l0eT0iMSIgZml0LW1hcmdpbi1ib3R0b209IjAiIGZpdC1tYXJnaW4tbGVmdD0iMCIgZml0LW1hcmdpbi1yaWdodD0iMCIgZml0LW1hcmdpbi10b3A9IjAiIGdyaWR0b2xlcmFuY2U9IjEwIiBndWlkZXRvbGVyYW5jZT0iMTAiIGlkPSJuYW1lZHZpZXc3NjI4NSIgaW5rc2NhcGU6Y3VycmVudC1sYXllcj0ic3ZnNzYyODMiIGlua3NjYXBlOmN4PSItNDQuOTgzMjMyIiBpbmtzY2FwZTpjeT0iNDYuNTQ2ODk2IiBpbmtzY2FwZTpwYWdlb3BhY2l0eT0iMCIgaW5rc2NhcGU6cGFnZXNoYWRvdz0iMiIgaW5rc2NhcGU6d2luZG93LWhlaWdodD0iMTAxNyIgaW5rc2NhcGU6d2luZG93LW1heGltaXplZD0iMSIgaW5rc2NhcGU6d2luZG93LXdpZHRoPSIxOTIwIiBpbmtzY2FwZTp3aW5kb3cteD0iLTgiIGlua3NjYXBlOndpbmRvdy15PSItOCIgaW5rc2NhcGU6em9vbT0iNS42ODAyODEzIiBvYmplY3R0b2xlcmFuY2U9IjEwIiBwYWdlY29sb3I9IiNmZmZmZmYiIHNob3dncmlkPSJmYWxzZSI+JiN4YTsJPC9zb2RpcG9kaTpuYW1lZHZpZXc+JiN4YTsmI3hhOzxwYXRoIGlkPSJwYXRoNzYxOTciIGlua3NjYXBlOmNvbm5lY3Rvci1jdXJ2YXR1cmU9IjAiIHN0eWxlPSJmaWxsOiMwMDcyYzYiIGQ9Im0gNjQsNjQgaCAyLjg3IFYgMCBIIDE0LjUyIDEwLjc2IEMgOC45NiwwLjE4IDUuMiw0LjY2IDUuMiw1LjIgYyAwLDAuMTggMCw2MS44NSAwLDYxLjg1IDAsMS43OSAxLjQzLDMuNCAzLjQxLDMuNCBIIDU5LjcgdiAtMS4wNyB6Ii8+JiN4YTsmI3hhOzxwYXRoIGlkPSJwYXRoNzYyMDUiIGlua3NjYXBlOmNvbm5lY3Rvci1jdXJ2YXR1cmU9IjAiIHN0eWxlPSJmaWxsOiNlNWU1ZTUiIGQ9Im0gMTMuMjYsMi44NiBjIC0xLjYxLDAgLTIuMTUsMC4xOCAtMy41OCwxLjQ0IC0zLjA1LDIuNjkgMC43MSwyLjY5IDIuMTUsMi42OSBIIDU5LjY5IFYgNjkuMzcgTCA2NCw2My44MiBWIDIuODYgWiIvPiYjeGE7JiN4YTs8cGF0aCBpZD0icGF0aDc2MjEzIiBpbmtzY2FwZTpjb25uZWN0b3ItY3VydmF0dXJlPSIwIiBzdHlsZT0iZmlsbDojYTBhMWEyO2ZpbGwtb3BhY2l0eTowLjUiIGQ9Ik0gNTkuNyw2OS4zNyA2NCw2NCBWIDIuODYgbCAtNC4zLDQuMTMgeiIvPiYjeGE7JiN4YTs8cGF0aCBpZD0icGF0aDc2MjIxIiBpbmtzY2FwZTpjb25uZWN0b3ItY3VydmF0dXJlPSIwIiBzdHlsZT0iZmlsbDojYTBhMWEyIiBkPSJtIDEzLjI3LDM4IGMgMCwxLjQ0IC0xLjA4LDIuNTEgLTIuNTEsMi41MSBIIDIuNTEgQyAxLjA4LDQwLjUxIDAsMzkuNDQgMCwzOCAwLDM2LjU3IDEuMDgsMzUuNSAyLjUxLDM1LjUgaCA4LjI1IGMgMS40MywtMC4xOCAyLjUxLDEuMDcgMi41MSwyLjUgeiIvPiYjeGE7JiN4YTs8cGF0aCBpZD0icGF0aDc2MjI5IiBpbmtzY2FwZTpjb25uZWN0b3ItY3VydmF0dXJlPSIwIiBzdHlsZT0iZmlsbDojYTBhMWEyIiBkPSJtIDEzLjI3LDE5LjU0IGMgMCwxLjQ0IC0xLjA4LDIuNTEgLTIuNTEsMi41MSBIIDIuNTEgQyAxLjA4LDIyLjA1IDAsMjAuOTggMCwxOS41NCBjIDAsLTEuNDMgMS4wOCwtMi41IDIuNTEsLTIuNSBoIDguMjUgYyAxLjQzLDAgMi41MSwxLjI1IDIuNTEsMi41IHoiLz4mI3hhOyYjeGE7PHBhdGggaWQ9InBhdGg3NjIzNyIgaW5rc2NhcGU6Y29ubmVjdG9yLWN1cnZhdHVyZT0iMCIgc3R5bGU9ImZpbGw6I2EwYTFhMiIgZD0ibSAxMy4yNyw1Ni4yOSBjIDAsMS40NCAtMS4wOCwyLjUxIC0yLjUxLDIuNTEgSCAyLjUxIEMgMS4wOCw1OC44IDAsNTcuNzMgMCw1Ni4yOSBjIDAsLTEuNDMgMS4wOCwtMi41IDIuNTEsLTIuNSBoIDguMjUgYyAxLjQzLDAgMi41MSwxLjA3IDIuNTEsMi41IHoiLz4mI3hhOyYjeGE7PHBhdGggaWQ9InBhdGg3NjI0NSIgaW5rc2NhcGU6Y29ubmVjdG9yLWN1cnZhdHVyZT0iMCIgc3R5bGU9ImZpbGw6IzM5OTljNiIgZD0ibSA0MC41MiwzOS44IHYgNDIuMTMgYyAwLDQuMyA5Ljg2LDcuODggMjEuODcsNy44OCBWIDM5LjYyIEggNDAuNTIgWiIvPiYjeGE7JiN4YTs8cGF0aCBpZD0icGF0aDc2MjUzIiBpbmtzY2FwZTpjb25uZWN0b3ItY3VydmF0dXJlPSIwIiBzdHlsZT0iZmlsbDojNTliNGQ5IiBkPSJtIDYyLjAzLDg5Ljk5IGggMC4zNiBjIDEyLjAxLDAgMjEuODcsLTMuNTggMjEuODcsLTcuODggViAzOS44IEggNjIuMDMgWiIvPiYjeGE7JiN4YTs8cGF0aCBpZD0icGF0aDc2MjYxIiBpbmtzY2FwZTpjb25uZWN0b3ItY3VydmF0dXJlPSIwIiBzdHlsZT0iZmlsbDojZmZmZmZmIiBkPSJtIDg0LjI2LDM5LjggYyAwLDQuMyAtOS44Niw3Ljg4IC0yMS44Nyw3Ljg4IC0xMi4wMSwwIC0yMS44NywtMy41OCAtMjEuODcsLTcuODggMCwtNC4zMSA5Ljg2LC03Ljg5IDIxLjg3LC03Ljg5IDEyLjAxLDAgMjEuODcsMy41OCAyMS44Nyw3Ljg5IHoiLz4mI3hhOyYjeGE7PHBhdGggaWQ9InBhdGg3NjI2OSIgaW5rc2NhcGU6Y29ubmVjdG9yLWN1cnZhdHVyZT0iMCIgc3R5bGU9ImZpbGw6IzdmYmEwMCIgZD0ibSA3OS43OCwzOS4yNyBjIDAsMi44NiAtNy44OSw1LjE5IC0xNy4zOSw1LjE5IC05LjUsMCAtMTcuMzksLTIuMzMgLTE3LjM5LC01LjE5IDAsLTIuODcgNy44OSwtNS4yIDE3LjM5LC01LjIgOS41LDAgMTcuMzksMi4zMyAxNy4zOSw1LjIgeiIvPiYjeGE7PGcgaWQ9InBhdGg3NjI3NCIgaW5rc2NhcGU6Y29ubmVjdG9yLWN1cnZhdHVyZT0iMCIgc3R5bGU9ImZpbHRlcjp1cmwoI2ZpbHRlcl8yKSI+JiN4YTsJPHBhdGggc3R5bGU9Im9wYWNpdHk6MC4yMjAwMDAwMjtmaWxsOiM1YjliZDUiIGQ9Im0gNzYuNTMsNDQuNDYgYyAyLjMzLC0wLjg5IDMuNTksLTEuOTcgMy41OSwtMy4yMiAwLC0yLjg3IC03Ljg5LC01LjIgLTE3LjM5LC01LjIgLTkuNjgsMCAtMTcuMzksMi4zMyAtMTcuMzksNS4yIDAsMS4yNSAxLjQzLDIuMzMgMy41OSwzLjIyIDMuMjIsLTEuMjUgOC4yNCwtMS45NyAxMy44LC0xLjk3IDUuNTYsMCAxMC41OCwwLjcyIDEzLjgsMS45NyB6IiBpZD0icGF0aDIyNDc4IiBpbmtzY2FwZTpjb25uZWN0b3ItY3VydmF0dXJlPSIwIi8+JiN4YTs8L2c+JiN4YTs8cGF0aCBpZD0icGF0aDc2Mjc3IiBpbmtzY2FwZTpjb25uZWN0b3ItY3VydmF0dXJlPSIwIiBzdHlsZT0iZmlsbDojYjhkNDMyIiBkPSJtIDc2LjE5LDQyLjQ4IGMgMi4zMywtMC44OSAzLjU5LC0xLjk3IDMuNTksLTMuMjIgMCwtMi44NyAtNy44OSwtNS4yIC0xNy4zOSwtNS4yIC05LjY4LDAgLTE3LjM5LDIuMzMgLTE3LjM5LDUuMiAwLDEuMjUgMS40MywyLjMzIDMuNTksMy4yMiAzLjIyLC0xLjI1IDguMjQsLTEuOTcgMTMuOCwtMS45NyA1LjU2LDAgMTAuNTgsMC43MiAxMy44LDEuOTcgeiIvPiYjeGE7PC9zdmc+;fillColor=#D4E1F5;" vertex="1" parent="1">
          <mxGeometry x="406.69000000000005" y="273.75" width="35" height="37.5" as="geometry" />
        </mxCell>
        <mxCell id="UGVQ1dfHeVU3jZcF55VB-91" value="Analytics Models&amp;nbsp;" style="text;html=1;strokeColor=none;fillColor=none;align=center;verticalAlign=middle;whiteSpace=wrap;rounded=0;" vertex="1" parent="1">
          <mxGeometry x="26.54" y="315" width="112.75" height="30" as="geometry" />
        </mxCell>
        <mxCell id="UGVQ1dfHeVU3jZcF55VB-92" value="Catalogue" style="text;html=1;strokeColor=none;fillColor=none;align=center;verticalAlign=middle;whiteSpace=wrap;rounded=0;" vertex="1" parent="1">
          <mxGeometry x="219.36" y="240" width="112.75" height="30" as="geometry" />
        </mxCell>
        <mxCell id="UGVQ1dfHeVU3jZcF55VB-100" style="edgeStyle=orthogonalEdgeStyle;rounded=0;orthogonalLoop=1;jettySize=auto;html=1;entryX=0;entryY=0;entryDx=0;entryDy=0;" edge="1" parent="1" source="UGVQ1dfHeVU3jZcF55VB-93" target="UGVQ1dfHeVU3jZcF55VB-49">
          <mxGeometry relative="1" as="geometry" />
        </mxCell>
        <mxCell id="UGVQ1dfHeVU3jZcF55VB-101" style="edgeStyle=orthogonalEdgeStyle;rounded=0;orthogonalLoop=1;jettySize=auto;html=1;" edge="1" parent="1" source="UGVQ1dfHeVU3jZcF55VB-93" target="UGVQ1dfHeVU3jZcF55VB-23">
          <mxGeometry relative="1" as="geometry" />
        </mxCell>
        <mxCell id="UGVQ1dfHeVU3jZcF55VB-93" value="Analytics Stakeholder" style="text;html=1;strokeColor=none;fillColor=none;align=center;verticalAlign=middle;whiteSpace=wrap;rounded=0;" vertex="1" parent="1">
          <mxGeometry x="17.129999999999995" y="202.5" width="122.94" height="30" as="geometry" />
        </mxCell>
        <mxCell id="UGVQ1dfHeVU3jZcF55VB-99" style="edgeStyle=orthogonalEdgeStyle;rounded=0;orthogonalLoop=1;jettySize=auto;html=1;entryX=0.25;entryY=0;entryDx=0;entryDy=0;" edge="1" parent="1" source="UGVQ1dfHeVU3jZcF55VB-94" target="UGVQ1dfHeVU3jZcF55VB-1">
          <mxGeometry relative="1" as="geometry" />
        </mxCell>
        <mxCell id="UGVQ1dfHeVU3jZcF55VB-94" value="Business Teams" style="text;html=1;strokeColor=none;fillColor=none;align=center;verticalAlign=middle;whiteSpace=wrap;rounded=0;" vertex="1" parent="1">
          <mxGeometry x="11.119999999999994" y="90" width="122.94" height="30" as="geometry" />
        </mxCell>
        <mxCell id="UGVQ1dfHeVU3jZcF55VB-111" style="edgeStyle=orthogonalEdgeStyle;rounded=0;orthogonalLoop=1;jettySize=auto;html=1;entryX=0.768;entryY=-0.036;entryDx=0;entryDy=0;entryPerimeter=0;" edge="1" parent="1" source="UGVQ1dfHeVU3jZcF55VB-95" target="UGVQ1dfHeVU3jZcF55VB-22">
          <mxGeometry relative="1" as="geometry" />
        </mxCell>
        <mxCell id="UGVQ1dfHeVU3jZcF55VB-95" value="Reports" style="text;html=1;strokeColor=none;fillColor=none;align=center;verticalAlign=middle;whiteSpace=wrap;rounded=0;" vertex="1" parent="1">
          <mxGeometry x="542.12" y="90" width="122.94" height="30" as="geometry" />
        </mxCell>
        <mxCell id="UGVQ1dfHeVU3jZcF55VB-98" value="" style="shape=image;verticalLabelPosition=bottom;labelBackgroundColor=default;verticalAlign=top;aspect=fixed;imageAspect=0;image=data:image/png,iVBORw0KGgoAAAANSUhEUgAAAOEAAADhCAMAAAAJbSJIAAAAkFBMVEX////zcCHyZwDzbh3yZQDyaADzbRnzbBXzag7zaxL+9/P+9e/6y7XyYgD4rYn//fv2l2b95tr71MH82cj97OP1i1P0eC/6xKr6ybL96d/3onj3qIL2lGL4tJP839H70LvzdCf1hUj0gD75vqL2m231kFr0fjj5uJn1jVT3n3T4q4f1iU383s73pXz0gkL5waUQ1LjCAAAI0ElEQVR4nO2c13rCOBCFY0tyoZlqCNX0kATy/m+3mATjMWPJlgzsfjv/ZYraYVTOSLy9EQRBEARBEARBEARBEARBEARBEARBEARBEARBEARBEARBEARBEARBEARB/D/o/ey7r27DA+nPXNsWzc6r2/Egaost95hlWXz+6qY8hE4r5I4Vw5y+QTnd9m738RNU1q6qaAy8i3wxblu/nPpX02XMEV6jurZVwPtE2I6VwN+1SwpC/7cMxtv1CltoRG30wT0rhYmEh1tJfrSorpEGdCYRdywA14/CjkiVw+x2rcKWahGMTiKJviveWL/AtguK8p3Xrqydc/Rlu3ceeVdfwrnIFmaPXyZjfTjg/n3/zhJO9AuduvfFRb3qGl2CztgSDtK986j7+hJ+N7EC+fNlrA13uHyXMW/pF/yFD5oXPlfG+dETed07Y+sPeI/nlMnsydO2OPXh0s6V7zLeM/3CcyS8FLt7zk53vnFyoi8ZbUdfwoUtK7jZeriM9XXIXZl8MWKtX8FSPnhi9VgZvw/S6LuOdGggYV4UXnGEwSSmoL5eCWn0XbENJAzVFYjdY07WvXYR+S4SRvqxMlJJGOPwWeXR2I+jr1D3zvCRfkUZCR37fsMbYy8rlTHobfyC8sWwUL+qIdiRMr4djmYhR+p2vH1l/avvd0I5eabh+sfyGpCQeb8nw94quxOPf2mvTDyShKA35ejHJKnIFx78ibPUr24NuiKSM9MMW38dkzXpj/5eHn3M57tjYwa7KPSP5LUoPZje5+03c1zGgZmM3akrl8/2xr3zwheAo4CJhHtwtAf7oqDVRNriiqF2ZfVZKI2+WL7hbxO+wQTP9Y/jNVBQdlH93mXC4dIM/qElY9DdNqXyOXZ0TDZPR78iCVvpLjAru+QFn9ik6vrlZezPlNE3GN4svhpYSPi3dgfrDigIaXgvwmS0p+X8xsXWV8gnJmC1BRONu9Xu4NsESLjDdi3BEXGELN8rvsXot+TnIuaJ5QhWXbfSddr6G/8+CHuR0+heiEZjMds4SajkyxdO7jZLIHhMTOAjkHCVt/GsjbFo9CP1NuOWUMnB44PG/aEoM/L6u8U+nJElDe76vnWH0jZepBIquHx2C81CTKqScJNuNtvJ/jTYoNHo52813lsgoXI/Pp43yBnTPljtm/pbjPdSi+oCnVT5AZWx1sgkVO7k4yEuX8whPfL+QbuDb5v0+uR8qf683sa2OF54PzKdT3n0MY9vF/kf8He4U67Kx+cFjNGGi0bjAcxQQWOJny+vuDZrSVsNgqcyH7/YolpvY5OqZ91GpzNRRZ+/VRwTYBLMIKc9Bw6iKLgvGjmYjLzdixfH/k9OQiUZRx7OlC0GSbD0YacsH+mhLr4v6m8xV8cV4XK5chVbl+a0q/Z65qB8oZ+N7sEZucSi+oOtGxZjjtSUOI/BrFBrgf1u4uMDE7jcojoPCxtkiXz+tOAJD5wLmatvAndBFNrl9kX1k9wjz+DwSB19VwbpooWB9QUkLL2o1qXLQUY+PlgUd1p7YCKNKvLxNTKre+mGJSWfiD5LFQ6i0MT2WqU18I+l/3+ImFSIfujBQQYc+VDfZW/AGbn8onoq8il1o9L+ERh5W9/yegMnaI190bjIh9RZlo4iMPLMKt2uhGF6ImWlF9X5skgHdWZ6YL8b+PgBKKjkohr02tKNZ4LGwRVEN1uV/v8E4OMzVkbCS0KlSP+KHMeyBDsgYVU+fplFVZVQgdhl55mfdPCUH6Abe71FVZVQuYO55e7iwJEvPT6pglwdCbtTuaWLd7FU2hYEj4mPD9xk5hX5l0tCRdYV5qAHC8ZLLEQB8PGb+nex6mA3UmBRVSdUBDsNvvAxEKfCuwkw8s6HdgffPoGEyn3R+0xhKsUJlbgXtfMqgiVxWMFPaiaDYuDjw4IU1asSKswWx9vBq+cYuP/Qx59qdzCTisn18WP6LaYwlcQJJlSCA2obuwU2J9X5+NCKzK9anVDhSELlrYvaxs2NUkbo42+0Owjd5Px9kcrStTz+McLN7g3qN6ru/sORN3hSARMCefuihjKhIj7z27DwML9RbKRz2hj4+AYSAivSOWF/8v5p6yZU/qihk6rnSjYpmZGv6EkF5uPXRgN1QkU9C4ws1DbOvzRemY8PJbxbVDuTUCGfNKGSIsf9z7s03gETvMmTCujjw+qCkTKh4hT3BM9HPWSLw+wjGo1QQgMffwtSMWBR7RyNEyoZ6lM0GiMkPwJ8fObo+/jwlpF9q+ryQkXSvWIJlTuGPiYjv780Dkbe5EkFMIFvOe35MVLIVyihgtAfYNF4d2kcpmIMnlR0QUHer9kqfaESd69wQgXlB43GzN3/5UN8fMs+zzPBfOyheaSkLcJtm71g6w+wCoCMo8p8fOhSu+3G5KRMZ+7NL8yu8WuqicH3Dm8/VfikwpU/ATivfdNqnjz1V7iMw8tHtROB2cHgSUWjyH38pCJX7PbVPQXee4iMTIjjcHiA1zsMrq4WeVJxq9vfVPtirbNEXx35IjMRmdzHL/Sk4oLLd+vqX3LP5IexP0yeVETFJGTC2+hfVpXR2ckej/3VbiDhWl385QnA6QHyXWkp3t6Z+fgFovAs3/gx8l1B7/6nqO5JBda9c/T9PPx7FIJP7GJcgomPL7/pcl5/ncNz3ol+Y7eNr60wSMXMZMd25tvL4dO+BiOY5G4Ti1wdzKEm+Ywy2zs+9wtt0EvjhhK28iRMvVB5IrUDdqaymgY+fs7+0xHW8TXfuIQ94ajMx0/JNxi97EtoEBlFVU8q/vpne4gj/0y6mdvGvsF9/LurL3FCpfHyr4LK2MaVPanIS6i8gkZ0k7Gy79WJLd2SF80eyM029g0usKWfVMgTKq9gJITDmNv8MpjzEgnjhMq/49ut0gTrr93OyOy65rSLJVT+i1zM1ktC5eWT54PoNIVtuxqO/H+H7nr4mm+zIgiCIAiCIAiCIAiCIAiCIAiCIAiCIAiCIAiCIAiCIAiCIAiCIAiCIAiCeD7/AJtZe/wbqcRhAAAAAElFTkSuQmCC;" vertex="1" parent="1">
          <mxGeometry x="232.56" y="275" width="35" height="35" as="geometry" />
        </mxCell>
        <mxCell id="UGVQ1dfHeVU3jZcF55VB-103" value="" style="shape=image;verticalLabelPosition=bottom;labelBackgroundColor=default;verticalAlign=top;aspect=fixed;imageAspect=0;image=data:image/png,iVBORw0KGgoAAAANSUhEUgAAAOEAAADhCAMAAAAJbSJIAAAANlBMVEX///+63vy23PzQ6P3K5f3S6f3W6/3F4/zA4fy02/z7/f/a7f35/P/1+v/g8P7D4vzv9/7p9P7UJ3zUAAAK/ElEQVR4nO2d2aKiMAyGBdlFhPd/2REV7ZK1lO0M/92MHtsPmjZJS7hcTp06derUqVOnTp3679QM3dBs3Ykllaej8q27sZiaJE1GpdXWPVlK2RvwiZht3ZVl1E+AT8R+684sosIgvG3dmUV0NQj/5mRjEl637swiOgmPr5Pw+DoJj68/RNhlSZIN3n/ThEOW1knertG/uWqrkST1vWuS8O2Vp6l/YfanT4iUpA/nA4qwnD6r9++T518OF5EgLH8f7T92TH5KS+sTnNAA3H9gdU9RRJSwtP6mW7fDavVmb21EjLC0/2TvhK3VXQsRISydv9j7KL1UCYYIEzqASbJFp1UaagwRJHQBdz9IL1Y6xkaECD3AQ6Q3MESA0AM8iL+KIPqERwXEED3C4wIiiC7hkQFhRIdw54D32zUrqLXZQ8wcQhVgX2TX2z02BKXitUtGdspHvJo4mQbw+m6uiI2Ba+qeEzzY8hDRf3CA0+1ebxwPvxCQ8kBcREJk37tfc2tlAB5G36jviRHpm2N8kRozMWXGq6T5CxFpQDPiTOOCYGrMJmlHWYTImFdnNrfSKQezSWa/WoDIzR+Z+eV4EKRKRZssIjtBml9ea///pkkcMYgsYC+3iXiyGmV35ElEfom7iee1mDL7zE/gBKJgDTeXpvUyHJluAkcRBYDWxL2eb25N4AI/A0GU9HhQNhVJ1iIs8YdBRNEtyc2mVtyZMjsq2mgAEGVjzkxOuls9EdR2Vzgsu6qvrIcoA2y50fIMVGdEjp8oMPddpQDrcBCFs0ZHL71Nns45zzndqNRfaJta3VcbUfpHV3LW7tKpi0HOjnGf0sq9T1buXviD5somDYPMZlyKoTJ6GDLNWhBpaY/1IsDTMFxo6S0kXLa7negJ2FhtnKnBNschwFsMIETNsMnd7unjqrs3+ZkkFr/QCAIIsSjma4DqgWTIvYfjr1S/y2galTDyDiCEXba+AvoWEBs/vF8Z56zpUqkiqLf0hKAZ3t1E5Esh3sAAelrTsquLoAIJofms8Abo69Mgl9U15s9vJe+LaX4ou4B6Qn9N6rxM6/v3Apf8G3i5PuZoRVAiI1ATWi7byAAZ4PhZ+MF4eMiP5tioI6gAQsc3bNHezIk5BvSq3d0LHJ/QipzusAFaE3yY/KXn88Pmv0QehZrQahC71BGSU577ADUkGSdaQs/nAPgiHWy4e2devKYkV1JL2LGtZvFybwM8Set6rCVEJpbvb3gBzzwhK8dXkh4rCWm++Nnh9kohShxfJWFPtgckHuarfxCpXcEVVRLeiNbKpZLfyMoxShBBKQlLrKk0WTJviiy7oghKSVgjDS397CLuyLFLoooQddGuy2+S9lDgKLm2GkJsrERcAVH1N8xAOPuQE+LLb1Us+zj/vctSal1MS8oLlhJSc/ZzqKTlbZmD0m13TZhVP6HNREZIr7sTZdbFHa7NkFfkzTNbR81RRMj5Tj/IKh/i7EU1ffEQ0n0ax8xRQMj5vx5l0c80y3tXqug+TcMuB0tIGiBKWc44tFgE0L1VQ24jQ9hekTWep0zCTi02cFQtbdV3VGlCoQEizVUhg1UG+LQFJMHn5U8oQsQAn78uG0ch5VLYCPs7azfI/O6G4DghlkQYf+G5BgtWqZDDRKhr/6X7rbxoHtOyD4wQSwT9RsHTj2Jvpf5gJk33XIyskY/lohPj0iKEWDIvse/KUDADNhrhs5UrtNTy6UyQEEnIgkF8O+QJTqkmhEbp89dxd4mNqwBC1ADRIB41S/0odWeaNK05l5cxR58QM0AmSHmaZe1ShiSmzHMAo38kSR2QNuUSYl8WddYxy6DiWu1UmQsxPFDovPjoHULkhiuC+Ha4TmaZJmFO+K0iDQ8Walq5adkZtoYqs2hvs6zCUzdNyKXB/BPiX9//DEnzthsU8QvzMVd97GeuMEeOBJy10bm+sIkE5Zu90bm+EEcO5gsywO1V1DLGtC6OWvETS1w7gGukeRcTb46xNzrXF7FflSyy0bm+qJMOy2x0ri/whNwL8OgD9K0/fw//uh1K5tLjOTM/SdfDYzmkhqQhxqGCCkOafaRlj1cso7tyH2lMcxxJQfHhCqcsooleIVDELap8h+VpJMEvkqcJMccZeZrunWvTGQie+jZLB5RY1nHVXNvjly+VZxSJ7QsTKkO3tOWOnHE6JGyH1Mh7AptNsLAtqJdvZhMSWUdRzjufnfN2A4I0rR9h+xbTUX6XULJfBbdze8TYt4DMiUyBo1vBk2n5hAGPUETce6qAX/lQgmaJPWDzmx4BQun28YduoI5lRSNMQLNETxoYsxxISGwfWysHfyxLTcidlDf38dHdGMtNQQhxc3wsu4+Pph4sSvIsxsMezCghvoY+rxB3HnL6akAkzT5G8qHEztN4/glOiJtjUglP8oXskM48E+W7GRRhqC/7BQzz3Gaca4Nme5rw0uTB59pmRNB3gYkDTcKxHkOImyNNN+ds4ktNzx3VcRvFvC6WcIvzpR+1mjPC6IgREGpyO4rzEzLJZm1qH0lEuNE570ncykvvI8kItzur/1EzFLjHSq+6UkJq+3jp5y1eumdw42zoKifEn5lZ7KG1n1Az4dvWEBLPPS2cIEenupr/WxWhXbTBRFw0I0csVwLXXkmIzqnLJcipNLbkwioJiYPmyzxDSj+WLyngoiQkH8dfIEHOuf6Cn1ASUlmG+ObIpbFF1cS0hEwth5jmGKmmgpaQzTJEM8dc4I5KmtISNny8GOWkg6i2iSjRpSV0KlXNOBROCa/qY9WnUZebERFaZaL6RerT4CnpkBpDakKn1Bfem2BzJOtE6Qt8qgktx238i9h1ouS1vmSpPD2hGcW8izZgs0JQJR66Xpu60G4IIVA2EXGtgk7IRa+5pycELyO8OkeofZnY05b5eIiwbqKe0HqA7lf2DgpxAqooK2pfCjdFAgit6cxY3BepfWm7DwFlE0MI0SXJ2w0KqYQtr0ErXHIDCImyd260KvtBS9HrCJtzv7QYJ9WOaY5hztv3jUBxakFb07x0L8UuLOh++nVJyJcWkT8vquctu3zOOiZEZBpqxzdBJfSLp0jdb1kG7uzQlxaSt1DLENlXI4xdLBbI2pjmIVprAU9Ehqh540tEqSt7gq6WCHGbV5SoIyfsmJ4AMWThjSDM1UCEppQk9z/AeYogs1V+ZaOeKOHvoh9BrSDdyKEzyexd1OcSIkgVOXFZT+4uBgSi86WZwdkSvWyvzS8v8B4Wtk3GhZbUIGYQldNaDCnenScAZBGHDVZEcZMiQA6xNb38lR7JMO2Q+p4QkEM0XMSQ83khEr6HVAzILBobvIf09xYhysnwo4nQu/gNVNd6/eHlGzlSYZn3IhirYIv/PmDqLr6bq1d96fMrLKMWew+wdN7p7CFSdxENVLcTAMi+l/tQj1lCgPy71Q+ECAJ6hAdGhAF9wsMiIoAA4UERvXeqT4smQHhIxL5GAEFCD7Hef42FEgOECf27uEWnNXK2rEy/DiZ0EXdf78TedrQcV4TQQdzigW6VrHtoe+YYoY24e0IzmnNCD5TQQtz9KDWjOSe2wgkv5m7nel0N1XRDvOCRIPwhHqIiz+ssIxA8UoTTdYn1Eq6F1RdZlvvRHEl46ao6rcn3Y+xfNOFzGt5XiBsgjvD4OgmPr5Pw+DoJj6/8zxMam+NHSMcEyDjgID2weTR9typCjxLuXs30toXkQNX1dGqyetwly/4s4GWszNAtVA3h1KlTp06dOnXq1Kld6x84LWQo5K83VQAAAABJRU5ErkJggg==;" vertex="1" parent="1">
          <mxGeometry x="287.37" y="275" width="35" height="35" as="geometry" />
        </mxCell>
        <mxCell id="UGVQ1dfHeVU3jZcF55VB-104" value="Alation" style="text;html=1;strokeColor=none;fillColor=none;align=center;verticalAlign=middle;whiteSpace=wrap;rounded=0;" vertex="1" parent="1">
          <mxGeometry x="219.87" y="315" width="60.64" height="10" as="geometry" />
        </mxCell>
        <mxCell id="UGVQ1dfHeVU3jZcF55VB-105" value="Snowflake" style="text;html=1;strokeColor=none;fillColor=none;align=center;verticalAlign=middle;whiteSpace=wrap;rounded=0;" vertex="1" parent="1">
          <mxGeometry x="273.94" y="315" width="60.64" height="10" as="geometry" />
        </mxCell>
        <mxCell id="UGVQ1dfHeVU3jZcF55VB-106" value="Wiki" style="text;html=1;strokeColor=none;fillColor=none;align=center;verticalAlign=middle;whiteSpace=wrap;rounded=0;" vertex="1" parent="1">
          <mxGeometry x="334.58" y="315" width="60.64" height="10" as="geometry" />
        </mxCell>
        <mxCell id="UGVQ1dfHeVU3jZcF55VB-108" value="Purview" style="text;html=1;strokeColor=none;fillColor=none;align=center;verticalAlign=middle;whiteSpace=wrap;rounded=0;" vertex="1" parent="1">
          <mxGeometry x="395.21999999999997" y="315" width="60.64" height="10" as="geometry" />
        </mxCell>
        <mxCell id="UGVQ1dfHeVU3jZcF55VB-109" value="" style="sketch=0;pointerEvents=1;shadow=0;dashed=0;html=1;strokeColor=none;fillColor=#505050;labelPosition=center;verticalLabelPosition=bottom;verticalAlign=top;outlineConnect=0;align=center;shape=mxgraph.office.sites.wiki_site;" vertex="1" parent="1">
          <mxGeometry x="344.87" y="275" width="35.13" height="35" as="geometry" />
        </mxCell>
      </root>
    </mxGraphModel>
  </diagram>
</mxfile>
